<svg width="25" height="25" viewBox="0 0 25 25" fill="none" xmlns="http://www.w3.org/2000/svg">
<path d="M20.8334 5.35713C20.5155 4.24523 20.1191 3.45237 19.6429 2.97618C19.1667 2.49999 18.3739 2.10356 17.262 1.78571M4.27148 5.35713C4.52029 4.24523 4.88101 3.45237 5.3572 2.97618C5.83339 2.49999 6.66196 2.10356 7.84291 1.78571M15.4762 20.2381C14.6822 21.4286 13.6905 22.0238 12.5001 22.0238C11.3096 22.0238 10.3179 21.4286 9.52386 20.2381M18.5536 18.4524H6.44648C6.09867 18.4525 5.75705 18.3603 5.45654 18.1852C5.15603 18.0101 4.90741 17.7583 4.73609 17.4556C4.56476 17.153 4.47688 16.8102 4.48143 16.4624C4.48598 16.1146 4.58278 15.7743 4.76196 15.4762C5.93033 13.5289 6.54756 11.3007 6.54767 9.02975V7.73809C6.54767 6.47515 7.04937 5.26394 7.9424 4.37091C8.83543 3.47788 10.0466 2.97618 11.3096 2.97618H13.6905C14.9535 2.97618 16.1647 3.47788 17.0577 4.37091C17.9507 5.26394 18.4524 6.47515 18.4524 7.73809V9.02975C18.4524 11.3 19.0691 13.5298 20.2382 15.4762C20.4173 15.7743 20.5141 16.1146 20.5187 16.4624C20.5232 16.8102 20.4353 17.153 20.264 17.4556C20.0927 17.7583 19.8441 18.0101 19.5436 18.1852C19.2431 18.3603 18.9014 18.4525 18.5536 18.4524Z" stroke="#1E1E1E" stroke-linecap="round" stroke-linejoin="round"/>
</svg>
