<svg width="50" height="50" viewBox="0 0 50 50" fill="none" xmlns="http://www.w3.org/2000/svg">
<path fill-rule="evenodd" clip-rule="evenodd" d="M5.95215 34.5238V20.2381C5.95215 18.9752 6.45385 17.764 7.34688 16.8709C8.23991 15.9779 9.45112 15.4762 10.7141 15.4762H15.476L20.426 10.7143H29.7593L34.3307 15.4762H39.2855C40.5484 15.4762 41.7596 15.9779 42.6527 16.8709C43.5457 17.764 44.0474 18.9752 44.0474 20.2381V34.5238C44.0474 35.7868 43.5457 36.998 42.6527 37.891C41.7596 38.784 40.5484 39.2857 39.2855 39.2857H10.7141C9.45112 39.2857 8.23991 38.784 7.34688 37.891C6.45385 36.998 5.95215 35.7868 5.95215 34.5238Z" fill="#228B22"/>
<path fill-rule="evenodd" clip-rule="evenodd" d="M32.1426 27.381C32.1426 25.4866 31.3901 23.6697 30.0506 22.3302C28.711 20.9906 26.8942 20.2381 24.9998 20.2381C23.1054 20.2381 21.2886 20.9906 19.949 22.3302C18.6095 23.6697 17.8569 25.4866 17.8569 27.381C17.8569 29.2754 18.6095 31.0922 19.949 32.4317C21.2886 33.7713 23.1054 34.5238 24.9998 34.5238C26.8942 34.5238 28.711 33.7713 30.0506 32.4317C31.3901 31.0922 32.1426 29.2754 32.1426 27.381Z" fill="#E5F2FF"/>
</svg>
