<svg width="30" height="30" viewBox="0 0 30 30" fill="none" xmlns="http://www.w3.org/2000/svg">
<path fill-rule="evenodd" clip-rule="evenodd" d="M23.5713 5C24.3291 5 25.0558 5.30102 25.5916 5.83684C26.1274 6.37266 26.4284 7.09938 26.4284 7.85714V22.1429C26.4284 22.9006 26.1274 23.6273 25.5916 24.1632C25.0558 24.699 24.3291 25 23.5713 25L19.287 24.9986L16.0099 28.2757C15.7639 28.5217 15.4366 28.6694 15.0894 28.6913C14.7422 28.7131 14.399 28.6075 14.1241 28.3943L13.9899 28.2757L10.7127 24.9986L6.42843 25C5.67067 25 4.94394 24.699 4.40813 24.1632C3.87231 23.6273 3.57129 22.9006 3.57129 22.1429V7.85714C3.57129 7.09938 3.87231 6.37266 4.40813 5.83684C4.94394 5.30102 5.67067 5 6.42843 5H23.5713Z" fill="#D9D9D9" fill-opacity="0.5"/>
<path fill-rule="evenodd" clip-rule="evenodd" d="M14.9984 16.4286C15.7126 16.4286 16.4269 15.7143 16.4269 15C16.4269 14.2857 15.7126 13.5714 14.9984 13.5714C14.2841 13.5714 13.5712 14.2857 13.5712 15C13.5712 15.7143 14.2841 16.4286 14.9984 16.4286ZM9.28408 16.4286C9.99836 16.4286 10.7126 15.7143 10.7126 15C10.7126 14.2857 9.99836 13.5714 9.28408 13.5714C8.56979 13.5714 7.85693 14.2857 7.85693 15C7.85693 15.7143 8.56979 16.4286 9.28408 16.4286ZM20.7126 16.4286C21.4269 16.4286 22.1412 15.7143 22.1412 15C22.1412 14.2857 21.4269 13.5714 20.7126 13.5714C19.9984 13.5714 19.2855 14.2857 19.2855 15C19.2855 15.7143 19.9984 16.4286 20.7126 16.4286Z" fill="#228B22"/>
</svg>
