<svg width="23" height="23" viewBox="0 0 23 23" fill="none" xmlns="http://www.w3.org/2000/svg">
<g clip-path="url(#clip0_55_2168)">
<path d="M20.4446 8.30556H15.3334C14.9946 8.30556 14.6695 8.44018 14.4299 8.67981C14.1903 8.91944 14.0557 9.24445 14.0557 9.58334V19.1667C14.0557 19.5056 14.1903 19.8306 14.4299 20.0702C14.6695 20.3098 14.9946 20.4444 15.3334 20.4444H20.4446C20.7834 20.4444 21.1084 20.3098 21.3481 20.0702C21.5877 19.8306 21.7223 19.5056 21.7223 19.1667V9.58334C21.7223 9.24445 21.5877 8.91944 21.3481 8.67981C21.1084 8.44018 20.7834 8.30556 20.4446 8.30556ZM20.4446 9.58334V17.8889H15.3334V9.58334H20.4446Z" fill="#228B22"/>
<path d="M17.8889 2.55556H2.55561C2.21672 2.55556 1.89171 2.69018 1.65208 2.92981C1.41245 3.16944 1.27783 3.49445 1.27783 3.83333V14.0556C1.27783 14.3944 1.41245 14.7195 1.65208 14.9591C1.89171 15.1987 2.21672 15.3333 2.55561 15.3333H7.66672V16.6111H5.9545C5.75877 16.5889 5.56198 16.6428 5.40496 16.7618C5.24794 16.8807 5.14274 17.0556 5.11117 17.25C5.14274 17.4444 5.24794 17.6193 5.40496 17.7382C5.56198 17.8572 5.75877 17.9111 5.9545 17.8889H12.7267V17.6525H12.7778V14.0556H2.55561V3.83333H17.8889V7.02778H19.1667V3.83333C19.1667 3.49445 19.0321 3.16944 18.7925 2.92981C18.5528 2.69018 18.2278 2.55556 17.8889 2.55556Z" fill="#228B22"/>
</g>
<defs>
<clipPath id="clip0_55_2168">
<rect width="23" height="23" fill="white"/>
</clipPath>
</defs>
</svg>
