<svg width="25" height="25" viewBox="0 0 25 25" fill="none" xmlns="http://www.w3.org/2000/svg">
<path d="M19.8051 10.5729C19.74 10.6397 19.6923 10.7215 19.6659 10.811C19.6396 10.9005 19.6355 10.995 19.6541 11.0865C19.7457 11.5448 19.7916 12.016 19.7916 12.5C19.7915 13.97 19.3471 15.4057 18.5166 16.6186C17.6862 17.8316 16.5085 18.7653 15.1381 19.2971C13.7677 19.829 12.2685 19.9342 10.8372 19.599C9.40591 19.2638 8.10936 18.5038 7.11762 17.4187C7.06844 17.3636 7.00868 17.3189 6.9419 17.2873C6.87512 17.2556 6.80267 17.2377 6.72884 17.2346C6.65501 17.2315 6.58131 17.2433 6.51211 17.2692C6.4429 17.2951 6.3796 17.3346 6.32595 17.3854C6.2348 17.4737 6.18105 17.5936 6.17582 17.7204C6.17058 17.8472 6.21426 17.9712 6.29783 18.0667C7.52152 19.4311 9.1609 20.3541 10.9622 20.6928C12.7634 21.0314 14.6261 20.7667 16.2617 19.9397C17.8974 19.1128 19.2148 17.7697 20.0099 16.1183C20.8051 14.467 21.0337 12.5996 20.6603 10.8052C20.578 10.4062 20.0926 10.2865 19.8051 10.574M18.5301 7.45937C18.623 7.3694 18.677 7.24664 18.6805 7.11736C18.684 6.98809 18.6368 6.86258 18.5489 6.76771C17.2943 5.44259 15.6395 4.56589 13.8385 4.27223C12.0375 3.97857 10.1899 4.28418 8.57934 5.14214C6.96882 6.00009 5.68443 7.36296 4.92339 9.02148C4.16236 10.68 3.96674 12.5425 4.36658 14.3229C4.45408 14.7167 4.93533 14.8323 5.22075 14.5469C5.35616 14.4115 5.40825 14.2135 5.36866 14.026C5.03663 12.4763 5.21856 10.8606 5.8869 9.42355C6.55525 7.98648 7.67362 6.80629 9.07269 6.06167C10.4718 5.31704 12.0753 5.04853 13.6407 5.29678C15.206 5.54503 16.6478 6.29653 17.7478 7.4375C17.7977 7.4903 17.8574 7.53275 17.9236 7.56243C17.9899 7.59212 18.0613 7.60844 18.1339 7.61047C18.2065 7.6125 18.2787 7.6002 18.3465 7.57428C18.4144 7.54835 18.4774 7.5093 18.5301 7.45937Z" fill="#228B22"/>
<path fill-rule="evenodd" clip-rule="evenodd" d="M18.8801 5.20833C19.0183 5.20833 19.1507 5.26321 19.2484 5.36088C19.3461 5.45856 19.401 5.59103 19.401 5.72917V7.8125C19.401 7.95063 19.3461 8.08311 19.2484 8.18078C19.1507 8.27846 19.0183 8.33333 18.8801 8.33333H16.7968C16.6587 8.33333 16.5262 8.27846 16.4285 8.18078C16.3308 8.08311 16.276 7.95063 16.276 7.8125C16.276 7.67437 16.3308 7.54189 16.4285 7.44421C16.5262 7.34654 16.6587 7.29167 16.7968 7.29167H18.3593V5.72917C18.3593 5.59103 18.4142 5.45856 18.5118 5.36088C18.6095 5.26321 18.742 5.20833 18.8801 5.20833ZM5.75096 16.8198C5.79933 16.7713 5.8568 16.7328 5.92008 16.7065C5.98336 16.6802 6.0512 16.6667 6.11971 16.6667H8.20304C8.34118 16.6667 8.47365 16.7215 8.57133 16.8192C8.669 16.9169 8.72388 17.0494 8.72388 17.1875C8.72388 17.3256 8.669 17.4581 8.57133 17.5558C8.47365 17.6535 8.34118 17.7083 8.20304 17.7083H6.64054V19.2708C6.64054 19.409 6.58567 19.5414 6.488 19.6391C6.39032 19.7368 6.25784 19.7917 6.11971 19.7917C5.98158 19.7917 5.8491 19.7368 5.75143 19.6391C5.65375 19.5414 5.59888 19.409 5.59888 19.2708V17.1875C5.59876 17.1191 5.61212 17.0513 5.63822 16.988C5.66432 16.9247 5.70263 16.8682 5.75096 16.8198Z" fill="#228B22"/>
<path d="M12.7334 12.8479V14.8698C13.423 14.7927 13.9188 14.3937 13.9188 13.8219C13.9188 13.2406 13.372 13.024 12.7563 12.8531L12.7334 12.8479ZM11.2407 11.099C11.2407 11.6771 11.8345 11.9167 12.2668 12.0385V10.1469C11.6397 10.2302 11.2407 10.6052 11.2407 11.099Z" fill="#228B22"/>
<path fill-rule="evenodd" clip-rule="evenodd" d="M12.5001 17.7083C13.8814 17.7083 15.2062 17.1596 16.1829 16.1828C17.1597 15.2061 17.7084 13.8813 17.7084 12.5C17.7084 11.1187 17.1597 9.79391 16.1829 8.81715C15.2062 7.8404 13.8814 7.29167 12.5001 7.29167C11.1187 7.29167 9.79399 7.8404 8.81723 8.81715C7.84048 9.79391 7.29175 11.1187 7.29175 12.5C7.29175 13.8813 7.84048 15.2061 8.81723 16.1828C9.79399 17.1596 11.1187 17.7083 12.5001 17.7083ZM12.7334 16.1458H12.2667V15.5104C11.147 15.4375 10.4636 14.8104 10.398 13.9125H11.1272C11.1792 14.499 11.6688 14.8073 12.2667 14.8698V12.7135L12.0386 12.6479C11.1272 12.3865 10.5574 11.9188 10.5574 11.1333C10.5574 10.2375 11.2897 9.61771 12.2657 9.51875V8.85417H12.7345V9.50938C13.7657 9.57813 14.4949 10.2104 14.522 11.0417H13.8386C13.7761 10.5229 13.3376 10.1979 12.7345 10.1385V12.1635L12.9615 12.226C13.5657 12.3865 14.6022 12.7396 14.6022 13.8333C14.6022 14.7219 13.9303 15.4281 12.7334 15.5104V16.1458Z" fill="#228B22"/>
</svg>
