<svg width="300" height="186" viewBox="0 0 300 186" fill="none" xmlns="http://www.w3.org/2000/svg">
<g clip-path="url(#clip0_2108_5535)">
<path d="M245.869 177.867L242.75 177.136L244.636 162.763L249.239 163.842L245.869 177.867Z" fill="#FFB6B6"/>
<path d="M233.555 181.574C233.42 182.098 233.681 182.619 234.139 182.738L240.293 184.334C240.293 184.334 241.53 182.058 244.27 181.651L243.537 185.176L246.711 186L247.78 180.303C247.78 180.303 249.406 177.529 248.04 175.54C246.674 173.552 248.047 174.136 248.047 174.136L248.252 170.491L243.309 169.811L241.863 175.24L238.134 180.034L234.282 180.834C233.939 180.905 233.654 181.196 233.555 181.574Z" fill="#2F2E41"/>
<path d="M275.769 174.476L272.925 175.949L265.007 163.805L269.205 161.631L275.769 174.476Z" fill="#FFB6B6"/>
<path d="M268.829 185.3C269.066 185.786 269.603 186.012 270.029 185.804L275.741 183.015C275.741 183.015 275.2 180.481 277.017 178.39L278.753 181.544L281.7 180.105L278.805 175.083C278.805 175.083 278.236 171.918 275.904 171.297C273.573 170.675 274.996 170.225 274.996 170.225L272.781 167.324L268.584 170.022L271.017 175.086L271.304 181.152L268.899 184.265C268.685 184.543 268.657 184.949 268.829 185.3Z" fill="#2F2E41"/>
<path d="M108.943 121.091H191.615C192.656 121.091 193.5 120.247 193.5 119.206V2.2368C193.5 1.1961 192.656 0.352448 191.615 0.352448H108.943C107.902 0.352448 107.059 1.1961 107.059 2.2368V119.206C107.059 120.247 107.902 121.091 108.943 121.091Z" fill="white"/>
<path d="M193.852 121.443H106.706V0H193.852V121.443ZM107.411 120.738H193.147V0.704932H107.411V120.738Z" fill="#E6E6E6"/>
<path d="M174.268 19.4547C174.603 19.4547 174.875 19.7266 174.875 20.062V21.2766C174.875 21.612 174.603 21.8839 174.268 21.8839H126.291C125.956 21.8839 125.684 21.612 125.684 21.2766V20.062C125.684 19.7266 125.956 19.4547 126.291 19.4547H174.268Z" fill="#E6E6E6"/>
<path d="M174.268 25.2232C174.603 25.2232 174.875 25.495 174.875 25.8305V27.0451C174.875 27.3805 174.603 27.6524 174.268 27.6524H126.291C125.956 27.6524 125.684 27.3805 125.684 27.0451V25.8305C125.684 25.4951 125.956 25.2232 126.291 25.2232H174.268Z" fill="#E6E6E6"/>
<path d="M174.268 30.992C174.603 30.992 174.875 31.2639 174.875 31.5993V32.8139C174.875 33.1493 174.603 33.4212 174.268 33.4212H126.291C125.956 33.4212 125.684 33.1493 125.684 32.8139V31.5996C125.684 31.2642 125.956 30.9923 126.291 30.9923L174.268 30.992Z" fill="#228B22"/>
<path d="M262.575 46.1262H278.512C278.488 45.3775 278.647 44.6344 278.975 43.9609C278.984 44.7083 279.149 45.4456 279.458 46.1262H280.182C281.289 46.1251 282.186 45.2279 282.187 44.1208V33.7661C282.187 28.6963 277.851 21.0962 273.141 24.2765C272.989 24.2685 270.601 23.211 270.449 23.211C266.304 23.2143 264.879 26.9537 263.628 30.904C262.201 30.2469 261.219 32.9897 260.508 37.8172C260.301 39.226 260.116 40.8123 259.951 42.5435C259.494 43.996 260.301 45.5438 261.754 46.0006C262.02 46.0842 262.297 46.1271 262.576 46.1276L262.575 46.1262Z" fill="#2F2E41"/>
<path d="M231.301 105.324C230.511 107.197 230.837 109.122 232.029 109.625C233.221 110.128 234.827 109.017 235.617 107.144C235.943 106.4 236.086 105.589 236.034 104.778L239.282 96.801L235.506 95.3567L232.704 103.374C232.087 103.903 231.606 104.571 231.3 105.324L231.301 105.324Z" fill="#FFB6B6"/>
<path d="M266.22 42.6214L273.837 44.2146L272.669 47.7191L275.006 74.5239L271.111 83.1548L247.354 81.2076L253.196 69.5247C253.196 69.5247 250.859 59.7897 253.975 57.8419C257.091 55.894 262.154 46.159 262.154 46.159L266.22 42.6214Z" fill="#228B22"/>
<path d="M273.321 45.7647L280.07 48.4966L277.733 82.7643L282.796 112.359L266.438 115.085C266.438 115.085 268.386 49.6649 269.554 48.4966C270.722 47.3283 273.321 45.763 273.321 45.763V45.7647Z" fill="#2F2E41"/>
<path d="M260.104 50.0384C260.104 50.0384 255.713 47.2607 253.341 49.3175C250.969 51.3742 232.704 101.091 232.704 101.091L237.63 103.231L248.929 79.5451L260.104 50.0384Z" fill="#2F2E41"/>
<path d="M247.526 133.806L243.071 168.046L249.303 168.435C249.303 168.435 252.543 159.596 256.239 149.183C257.026 146.975 257.832 144.697 258.63 142.415C259.495 139.939 260.356 137.462 261.173 135.071C263.194 129.176 264.967 123.809 265.979 120.305C266.154 119.69 266.31 119.133 266.438 118.642C269.163 108.175 270.722 80.8206 270.722 80.8206L248.133 78.8735L247.892 79.1733L243.071 85.1974L243.297 86.4708L249.303 120.151L247.527 133.807L247.526 133.806Z" fill="#2F2E41"/>
<path d="M249.302 120.15L247.526 133.807L255.514 147.868L256.238 149.184L267.236 169.168L272.669 166.088C272.669 166.088 265.6 149.845 261.172 135.071C260.681 133.447 260.226 131.839 259.817 130.274C258.613 125.69 260.584 117.326 259.813 115.02C257.208 107.24 248.717 91.6754 244.776 84.6243L243.296 86.4701L249.302 120.15Z" fill="#2F2E41"/>
<path d="M262.252 45.8657L254.366 48.8877L233.725 109.246L246.187 111.193L252.029 76.1464L262.252 45.8657Z" fill="#2F2E41"/>
<path d="M281.974 111.017C282.174 113.04 283.381 114.576 284.668 114.448C285.955 114.32 286.836 112.577 286.635 110.554C286.566 109.744 286.304 108.963 285.871 108.276L284.913 99.7169L280.905 100.252L282.275 108.633C281.986 109.392 281.882 110.21 281.974 111.017Z" fill="#FFB6B6"/>
<path d="M277.342 48.4983C277.342 48.4983 282.405 47.33 283.963 50.056C285.521 52.782 286.299 105.741 286.299 105.741L280.942 106.131L278.121 80.0414L277.342 48.4993L277.342 48.4983Z" fill="#2F2E41"/>
<path d="M270.881 41.6767C275.352 41.6767 278.977 38.0526 278.977 33.5821C278.977 29.1116 275.352 25.4875 270.881 25.4875C266.41 25.4875 262.785 29.1116 262.785 33.5821C262.785 38.0526 266.41 41.6767 270.881 41.6767Z" fill="#FFB6B6"/>
<path d="M274.131 46.1259H278.129C278.332 46.1259 278.505 45.9693 278.514 45.7664L278.515 45.744C278.537 45.3211 279.13 45.2499 279.268 45.6504C279.324 45.8115 279.387 45.9702 279.457 46.1259H279.851V33.6465C279.851 31.506 278.115 29.7709 275.975 29.7709C274.147 29.7709 272.567 31.0475 272.184 32.8344C272.184 32.8344 269.467 36.1665 271.069 38.0399C272.67 39.9133 270.34 41.4382 270.34 41.4382C269.823 43.8508 271.663 46.1259 274.131 46.1259Z" fill="#2F2E41"/>
<path d="M141.573 60.6623C142.47 60.0838 142.659 58.8457 142.032 57.9822L139.092 53.9376C138.405 52.9919 137.082 52.7818 136.136 53.4683C136.052 53.5291 135.973 53.596 135.899 53.6685C130.921 56.3293 128.242 60.2151 131.221 64.8086C131.221 65.5757 131.277 66.3418 131.388 67.1007C131.437 67.43 131.547 67.7521 131.735 68.0269C132.293 68.8427 133.278 69.1422 134.144 68.8598L138.952 67.2978C139.974 66.966 140.527 65.8509 140.149 64.8454C139.662 63.546 139.863 61.7651 141.573 60.6623Z" fill="#F2F2F2"/>
<path d="M152.984 72.5932C151.601 72.4567 150.42 73.5965 150.42 74.9864V79.1335C150.42 79.2409 150.428 79.3482 150.445 79.4544C150.622 80.61 151.703 81.4027 152.859 81.225C159.597 82.0553 164.202 79.1255 164.479 72.6975C164.523 72.6073 164.561 72.5141 164.592 72.4185C164.951 71.3078 164.341 70.1163 163.23 69.7572L159.205 68.4494C157.816 67.9982 156.373 68.8997 156.13 70.3394C155.91 71.6399 155.052 72.7973 152.984 72.5932Z" fill="#E6E6E6"/>
<path d="M128.096 76.6483C129.493 84.9407 136.77 88.0866 144.36 88.5839C144.508 88.6067 144.658 88.6182 144.809 88.6183C146.446 88.6192 147.773 87.293 147.774 85.6563V78.7219C147.774 76.7822 146.184 75.2716 144.244 75.2521C142.369 75.2332 141.147 74.3458 140.645 72.7167C140.071 70.8558 138.026 69.8746 136.174 70.4764L129.844 72.5333C129.024 72.7995 128.36 73.4092 128.025 74.2036C127.693 74.9901 127.718 75.8823 128.096 76.6483Z" fill="#3F3D56"/>
<path d="M167.095 47.9749C165.927 46.8306 164.052 46.85 162.908 48.0182C162.806 48.1221 162.712 48.2335 162.626 48.3513L157.002 56.0925C156.282 57.0823 156.693 58.4613 157.818 58.9446C160.451 60.0768 160.174 62.6181 159.317 64.1734C158.897 64.9355 159.243 65.8893 160.071 66.1582L169.55 69.2377C171.109 69.7411 172.781 68.8852 173.285 67.326C173.336 67.169 173.373 67.0081 173.397 66.8448C173.56 65.7598 173.642 64.6641 173.642 63.5669C175.245 57.5885 173.026 51.9528 167.095 47.9749Z" fill="#228B22"/>
<path d="M150.817 56.9509C151.868 57.5421 153.193 57.2561 153.901 56.2812L155.786 53.6881C156.151 53.1852 156.278 52.5473 156.133 51.9428C155.993 51.3493 155.599 50.8472 155.056 50.5692C150.622 46.5631 145.373 46.3173 140.923 50.5487C140.363 50.831 139.956 51.3447 139.809 51.9537C139.664 52.5541 139.79 53.1879 140.153 53.6873L142.355 56.7178C143.112 57.7586 144.577 58.031 145.619 57.2765C147.134 56.1803 149.334 56.1157 150.817 56.9509Z" fill="#E6E6E6"/>
<path d="M300 185.384H0V185.977H300V185.384Z" fill="#E6E6E6"/>
<path d="M125.991 109.191C126.161 108.475 126.955 108.24 127.605 108.267C128.015 108.294 128.422 108.359 128.821 108.459C129.239 108.553 129.652 108.663 130.064 108.78C130.818 108.995 131.564 109.255 132.331 109.423C132.974 109.6 133.651 109.609 134.299 109.452C134.923 109.281 135.414 108.8 135.597 108.18C135.783 107.588 135.515 106.947 134.962 106.664C134.451 106.383 133.807 106.569 133.526 107.08C133.521 107.088 133.517 107.095 133.513 107.103C133.276 107.734 133.462 108.445 133.978 108.88C134.242 109.128 134.531 109.347 134.841 109.535C135.155 109.749 135.505 109.906 135.875 109.998C136.503 110.164 137.166 109.905 137.515 109.358C137.585 109.226 137.626 109.082 137.638 108.935C137.656 108.733 137.342 108.734 137.323 108.935C137.27 109.511 136.595 109.781 136.09 109.718C135.749 109.661 135.423 109.535 135.134 109.347C134.854 109.184 134.589 108.997 134.341 108.788C133.913 108.417 133.512 107.807 133.799 107.229C134.023 106.857 134.506 106.737 134.878 106.961C134.927 106.991 134.974 107.026 135.015 107.067C135.465 107.435 135.385 108.102 135.088 108.539C134.732 108.995 134.182 109.257 133.603 109.247C132.993 109.248 132.386 109.153 131.805 108.965C131.081 108.759 130.364 108.529 129.636 108.335C129.223 108.225 128.807 108.126 128.386 108.049C127.989 107.962 127.58 107.933 127.174 107.965C126.489 107.998 125.896 108.453 125.687 109.107C125.642 109.304 125.945 109.388 125.991 109.191Z" fill="#3F3D56"/>
<path d="M138.441 100.996C138.536 100.996 138.613 101.268 138.613 101.603V102.818C138.613 103.153 138.536 103.425 138.441 103.425H124.881C124.786 103.425 124.709 103.153 124.709 102.818V101.603C124.709 101.268 124.786 100.996 124.881 100.996H138.441Z" fill="#E6E6E6"/>
<path d="M174.704 100.996C174.799 100.996 174.875 101.268 174.875 101.603V102.818C174.875 103.153 174.799 103.425 174.704 103.425H161.143C161.049 103.425 160.972 103.153 160.972 102.818V101.603C160.972 101.268 161.049 100.996 161.143 100.996H174.704Z" fill="#E6E6E6"/>
<path d="M168.665 107.837L165.974 108.727L164.628 109.172C164.214 109.348 163.767 109.431 163.318 109.413C162.986 109.39 162.695 109.184 162.564 108.879C162.507 108.572 162.638 108.261 162.898 108.089C163.541 107.601 164.353 108.098 164.808 108.604C165.365 109.223 165.68 110.022 166.202 110.67C166.667 111.251 167.256 111.721 167.926 112.044C169.266 112.709 170.864 112.572 172.072 111.69C173.491 110.596 173.636 108.699 173.643 107.044C173.638 106.885 173.504 106.761 173.345 106.766C173.194 106.772 173.073 106.893 173.068 107.044C173.061 108.544 172.976 110.382 171.608 111.321C170.297 112.22 168.576 111.981 167.37 111.023C166.748 110.47 166.23 109.809 165.842 109.073C165.412 108.368 164.877 107.687 164.066 107.414C163.349 107.153 162.548 107.433 162.15 108.083C161.806 108.662 161.996 109.409 162.575 109.752C162.619 109.779 162.666 109.803 162.714 109.823C163.654 110.271 164.729 109.746 165.634 109.447L168.819 108.395C169.169 108.279 169.02 107.723 168.666 107.839L168.665 107.837Z" fill="#228B22"/>
<path d="M49.0515 174.823C49.0164 174.792 48.9894 174.776 48.9711 174.777C48.5319 174.78 48.1406 175.011 47.925 175.392L43.1966 184.172C43.0884 184.363 43.0353 184.572 43.0372 184.781C43.039 184.99 43.0957 185.198 43.2071 185.387C43.43 185.765 53.8727 185.901 53.8727 185.901C54.3119 185.897 55.5171 180.496 49.0515 174.823Z" fill="#E6E6E6"/>
<path d="M30.979 183.774L34.5679 183.742L36.1544 169.886L30.8574 169.932L30.979 183.774Z" fill="#FFB6B6"/>
<path d="M43.2746 183.585C43.388 183.772 43.4523 184.379 43.4542 184.598C43.4601 185.271 42.9195 185.821 42.2467 185.827L31.1321 185.924C30.6732 185.928 30.2978 185.559 30.2938 185.1L30.2898 184.637C30.2898 184.637 29.7278 183.252 30.8449 181.528C30.8449 181.528 32.2635 182.857 34.3475 180.737L34.9576 179.609L39.4739 182.851L41.964 183.136C42.5087 183.198 42.9906 183.116 43.2746 183.585Z" fill="#2F2E41"/>
<path d="M44.6318 171.811L48.0419 172.93L53.9832 160.312L48.9503 158.66L44.6318 171.811Z" fill="#FFB6B6"/>
<path d="M56.3406 175.569C56.388 175.783 56.2545 176.379 56.1862 176.587C55.9763 177.226 55.288 177.574 54.6488 177.364L44.0886 173.896C43.6525 173.753 43.4151 173.284 43.5583 172.848L43.7027 172.408C43.7027 172.408 43.6142 170.915 45.2246 169.64C45.2246 169.64 46.1425 171.354 48.7959 170.013L49.7354 169.139L52.9751 173.657L55.2429 174.724C55.7391 174.957 56.2217 175.034 56.3406 175.569Z" fill="#2F2E41"/>
<path d="M49.4473 91.4675L56.6177 114.456L65.0239 135.116L52.2821 164.845L45.1925 162.083L51.5377 136.353L40.6911 117.141L35.5652 174.813L29.3295 174.067L21.2217 104.983L22.4932 89.9605L49.4473 91.4675Z" fill="#2F2E41"/>
<path d="M42.111 39.1255L34.3634 37.2556L32.2262 42.3312C32.2262 42.3312 21.7569 44.0995 21.2218 52.1132C21.2218 52.1132 19.1353 62.6325 20.4709 65.571C21.8066 68.5095 25.0994 78.9006 25.0994 78.9006C25.0994 78.9006 19.8858 91.8467 21.2218 92.6468C22.5578 93.4469 51.1853 96.3643 51.1853 94.7616C51.1853 93.1589 51.5121 74.1176 51.5121 74.1176L50.3911 45.2683L43.1798 42.5983L42.111 39.1255Z" fill="#E6E6E6"/>
<path d="M40.7994 37.8347C45.1113 37.8347 48.6067 34.3398 48.6067 30.0285C48.6067 25.7173 45.1113 22.2223 40.7994 22.2223C36.4876 22.2223 32.9922 25.7173 32.9922 30.0285C32.9922 34.3398 36.4876 37.8347 40.7994 37.8347Z" fill="#FFB6B6"/>
<path d="M35.6307 31.1889C36.2538 31.5297 35.6633 33.1581 36.0527 33.2987C36.5029 33.4613 38.1432 31.593 38.1628 29.5011C38.1687 28.8679 38.0229 28.564 38.1628 27.8133C38.3458 26.8313 38.908 25.6729 39.4288 25.7035C39.7376 25.7216 40.0392 26.1579 40.0619 26.5474C40.0936 27.0932 39.5634 27.3083 39.6399 27.6023C39.7855 28.1623 42.0125 28.5482 42.805 27.6023C43.4262 26.8607 42.9491 25.5592 43.227 25.4925C43.4318 25.4433 43.6519 26.1598 44.493 26.9693C44.8099 27.2743 45.2812 27.7279 45.548 27.6023C45.9337 27.4207 45.653 26.1424 45.759 26.1254C45.8468 26.1114 45.9023 27.0099 46.3921 27.8133C47.0213 28.8453 48.3189 29.6406 48.9241 29.2901C49.2949 29.0754 49.324 28.478 49.3462 28.0242C49.3927 27.0683 50.7813 24.8691 50.4215 23.8466C49.6892 21.7656 48.4363 23.2332 47.8691 22.5388C47.1013 21.5988 46.4129 22.1046 45.126 21.0619C43.8689 20.0434 43.8576 19.0192 43.016 18.9521C42.258 18.8917 41.9888 19.7002 41.1169 19.5851C40.3783 19.4876 40.2174 18.8607 39.6399 18.9521C39.1111 19.0359 39.0764 19.5882 38.3738 19.7961C37.9253 19.9287 37.8266 19.737 37.3188 19.7961C36.2621 19.919 35.5526 20.8816 35.4197 21.0619C34.9074 21.757 35.1064 22.05 34.5757 22.7498C34.1181 23.3532 33.1034 23.0974 32.722 23.3988C31.4759 24.3837 30.941 26.1995 30.9309 28.2688C30.9238 29.7162 31.1128 30.4474 31.5346 32.2741C31.8548 33.6612 33.3368 35.4533 34.1537 36.2524C34.373 36.4669 34.9877 37.0682 35.4197 36.8853C35.8291 36.712 35.8412 35.9333 35.8417 35.8305C35.8435 35.4768 35.7491 35.0393 34.9977 33.9316C34.2084 32.7682 33.895 32.6355 33.9427 32.2438C34.027 31.5515 35.1341 30.9173 35.6307 31.1889Z" fill="#2F2E41"/>
<path d="M13.5523 109.052C13.2804 111.322 14.2311 113.302 15.6758 113.475C17.1205 113.648 18.512 111.948 18.7839 109.678C18.9029 108.685 18.7876 107.747 18.4992 106.991L19.5306 97.3584L14.9993 96.9708L14.4635 106.508C14.0049 107.174 13.6713 108.058 13.5523 109.052Z" fill="#FFB6B6"/>
<path d="M26.6 45.081C26.6 45.081 24.2524 45.1136 22.697 48.1485C21.8704 49.7612 16.4977 78.6667 16.4977 78.6667L14.9883 87.8087L15.764 89.3207C14.5309 91.2065 14.1914 93.5398 14.836 95.6987L13.3613 104.631L20.2958 104.668L25.7075 81.2696L30.2579 67.6994L26.6 45.081Z" fill="#E6E6E6"/>
<path d="M62.0271 108.699C62.299 110.969 61.3483 112.95 59.9036 113.123C58.4589 113.296 57.0674 111.596 56.7955 109.326C56.6765 108.332 56.7918 107.394 57.0802 106.639L56.0488 97.006L60.5801 96.6183L61.1159 106.155C61.5745 106.821 61.9081 107.706 62.0271 108.699Z" fill="#FFB6B6"/>
<path d="M48.9801 44.7285C48.9801 44.7285 51.3277 44.7611 52.8832 47.796C53.7097 49.4087 59.0825 78.3142 59.0825 78.3142L60.5918 87.4562L59.8161 88.9682C61.0493 90.854 61.3887 93.1873 60.7441 95.3462L62.2188 104.278L55.2843 104.316L49.8726 80.9171L45.3223 67.347L48.9801 44.7285Z" fill="#E6E6E6"/>
<path d="M261.15 32.3801C261.438 32.8514 262.966 31.1269 265.312 30.9367C265.91 30.8871 267.256 33.174 268.801 33.207C269.825 33.2277 270.455 33.2194 271.716 33.207C273.206 33.1905 273.614 33.1574 273.902 32.7936C274.459 32.0865 274 30.8295 274.266 30.7261C274.488 30.6393 275.064 31.4166 275.359 32.3801C275.978 34.402 273.756 37.2178 273.537 39.8228C273.304 42.6303 275.599 37.2509 275.359 39.8228C275.089 42.7172 274.124 42.498 274.135 43.5442C274.138 43.7013 274.178 43.8377 274.266 43.9576C274.342 44.0651 274.419 44.1065 275.723 44.3711C277.283 44.6895 278.066 44.8466 278.274 44.7846C278.809 44.6275 279.352 43.755 279.731 43.1307C280.358 42.1093 279.913 43.1389 279.731 41.8902C279.556 40.6828 279.009 40.5257 279.002 39.4093C278.995 38.0035 279.858 37.5776 280.459 36.1014C281.571 33.3724 280.485 30.2134 280.095 29.0722C279.908 28.5249 279.568 27.8322 278.973 26.6878C278.495 25.7691 277.861 24.9597 277.088 24.3533C275.929 23.4444 274.582 22.8217 273.127 22.5749C272.329 22.4397 271.517 22.5107 270.733 22.7245L268.702 23.2782C267.849 23.5109 267.044 23.9327 266.335 24.5194C265.673 24.5219 265.1 25.007 264.873 25.7119C264.85 25.7857 264.828 25.8287 264.81 25.8224C261.15 24.5239 261.153 28.3698 261.193 30.7722C261.197 31.0181 261.189 31.2357 261.161 31.4125V31.4249C261.088 31.9004 261.07 32.2478 261.15 32.3801Z" fill="#2F2E41"/>
<path d="M213.571 53.6199H175.039V54.3249H213.571V53.6199Z" fill="#3F3D56"/>
<path d="M221.327 58.5441C218.605 58.5441 216.392 56.3305 216.392 53.6096C216.392 50.8887 218.605 48.6751 221.327 48.6751C224.048 48.6751 226.262 50.8887 226.262 53.6096C226.262 56.3305 224.048 58.5441 221.327 58.5441ZM221.327 49.38C218.994 49.38 217.097 51.2774 217.097 53.6096C217.097 55.9418 218.994 57.8392 221.327 57.8392C223.659 57.8392 225.557 55.9418 225.557 53.6096C225.557 51.2774 223.659 49.38 221.327 49.38Z" fill="#3F3D56"/>
<path d="M221.327 56.0769C222.69 56.0769 223.795 54.9722 223.795 53.6096C223.795 52.247 222.69 51.1423 221.327 51.1423C219.964 51.1423 218.859 52.247 218.859 53.6096C218.859 54.9722 219.964 56.0769 221.327 56.0769Z" fill="#228B22"/>
<path d="M125.552 79.7024H87.0195V80.4074H125.552V79.7024Z" fill="#3F3D56"/>
<path d="M74.3291 79.6921C74.3291 76.9712 76.543 74.7576 79.2643 74.7576C81.9856 74.7576 84.1994 76.9712 84.1994 79.6921C84.1994 82.413 81.9856 84.6266 79.2643 84.6266C76.543 84.6266 74.3291 82.413 74.3291 79.6921ZM75.0341 79.6921C75.0341 82.0243 76.9318 83.9217 79.2643 83.9217C81.5967 83.9217 83.4944 82.0243 83.4944 79.6921C83.4944 77.3599 81.5967 75.4625 79.2643 75.4625C76.9318 75.4625 75.0341 77.3599 75.0341 79.6921Z" fill="#3F3D56"/>
<path d="M79.2645 82.1594C80.6273 82.1594 81.732 81.0547 81.732 79.6921C81.732 78.3295 80.6273 77.2248 79.2645 77.2248C77.9017 77.2248 76.7969 78.3295 76.7969 79.6921C76.7969 81.0547 77.9017 82.1594 79.2645 82.1594Z" fill="#228B22"/>
</g>
<defs>
<clipPath id="clip0_2108_5535">
<rect width="300" height="186" fill="white"/>
</clipPath>
</defs>
</svg>
