<svg width="25" height="25" viewBox="0 0 25 25" fill="none" xmlns="http://www.w3.org/2000/svg">
<path d="M13.5417 12.0833L16.6667 15.2083C16.8577 15.3993 16.9532 15.6424 16.9532 15.9375C16.9532 16.2326 16.8577 16.4757 16.6667 16.6667C16.4758 16.8576 16.2327 16.9531 15.9376 16.9531C15.6424 16.9531 15.3994 16.8576 15.2084 16.6667L11.7709 13.2292C11.6667 13.125 11.5886 13.0076 11.5365 12.8771C11.4845 12.7472 11.4584 12.6128 11.4584 12.474V8.33333C11.4584 8.03819 11.5584 7.79063 11.7584 7.59063C11.9577 7.39132 12.2049 7.29167 12.5001 7.29167C12.7952 7.29167 13.0428 7.39132 13.2428 7.59063C13.4421 7.79063 13.5417 8.03819 13.5417 8.33333V12.0833ZM2.96883 16.7448C2.74314 16.2413 2.56085 15.7247 2.42196 15.1948C2.28307 14.6656 2.18758 14.1146 2.1355 13.5417H4.24487C4.29696 13.9236 4.37057 14.2924 4.46571 14.6479C4.56154 15.0042 4.6789 15.3559 4.81779 15.7031L2.96883 16.7448ZM2.1355 11.4583C2.18758 10.8854 2.28758 10.3299 2.4355 9.79167C2.58272 9.25347 2.76918 8.73264 2.99487 8.22917L4.81779 9.27083C4.6789 9.61805 4.56154 9.97396 4.46571 10.3385C4.37057 10.7031 4.29696 11.0764 4.24487 11.4583H2.1355ZM6.43237 20.9896C5.96362 20.6424 5.5296 20.2646 5.13029 19.8562C4.73098 19.4486 4.35772 19.0104 4.0105 18.5417L5.83341 17.5C6.07647 17.8125 6.33272 18.1031 6.60216 18.3719C6.87091 18.6413 7.16154 18.8976 7.47404 19.1406L6.43237 20.9896ZM5.85946 7.47396L4.0105 6.43229C4.35772 5.96354 4.73098 5.52951 5.13029 5.13021C5.5296 4.7309 5.96362 4.35764 6.43237 4.01042L7.47404 5.85937C7.16154 6.10243 6.87508 6.35417 6.61466 6.61458C6.35425 6.875 6.10251 7.16146 5.85946 7.47396ZM11.4584 22.8646C10.8855 22.8125 10.3299 22.7128 9.79175 22.5656C9.25355 22.4177 8.73272 22.2309 8.22925 22.0052L9.27091 20.1823C9.61814 20.3212 9.97404 20.4382 10.3386 20.5333C10.7032 20.6292 11.0765 20.7031 11.4584 20.7552V22.8646ZM9.27091 4.81771L8.22925 2.99479C8.73272 2.7691 9.25355 2.58229 9.79175 2.43437C10.3299 2.28715 10.8855 2.1875 11.4584 2.13542V4.24479C11.0765 4.29687 10.7032 4.37049 10.3386 4.46563C9.97404 4.56146 9.61814 4.67882 9.27091 4.81771ZM13.5417 22.8646V20.7552C13.9237 20.7031 14.297 20.6292 14.6615 20.5333C15.0261 20.4382 15.382 20.3212 15.7292 20.1823L16.7709 22.0052C16.2674 22.2309 15.7466 22.4177 15.2084 22.5656C14.6702 22.7128 14.1147 22.8125 13.5417 22.8646ZM15.7292 4.81771C15.382 4.67882 15.0261 4.56146 14.6615 4.46563C14.297 4.37049 13.9237 4.29687 13.5417 4.24479V2.13542C14.1147 2.1875 14.6702 2.28715 15.2084 2.43437C15.7466 2.58229 16.2674 2.7691 16.7709 2.99479L15.7292 4.81771ZM18.5678 20.9896L17.5261 19.1406C17.8386 18.8976 18.1251 18.6458 18.3855 18.3854C18.6459 18.125 18.8977 17.8385 19.1407 17.526L20.9897 18.5677C20.6424 19.0365 20.2692 19.4747 19.8699 19.8823C19.4706 20.2906 19.0365 20.6597 18.5678 20.9896ZM19.1407 7.47396C18.8977 7.17882 18.6417 6.89653 18.373 6.62708C18.1036 6.35833 17.8213 6.10243 17.5261 5.85937L18.5678 4.01042C19.0192 4.34028 19.4487 4.70903 19.8563 5.11667C20.2647 5.525 20.6338 5.95486 20.9636 6.40625L19.1407 7.47396ZM20.7553 11.4583C20.7032 11.059 20.6296 10.6812 20.5345 10.325C20.4386 9.96944 20.3213 9.61805 20.1824 9.27083L22.0053 8.20312C22.231 8.7066 22.4178 9.2316 22.5657 9.77812C22.7129 10.3253 22.8126 10.8854 22.8647 11.4583H20.7553ZM22.0053 16.7708L20.1824 15.7292C20.3213 15.3819 20.4386 15.026 20.5345 14.6615C20.6296 14.2969 20.7032 13.9236 20.7553 13.5417H22.8647C22.8126 14.1146 22.7129 14.6701 22.5657 15.2083C22.4178 15.7465 22.231 16.2674 22.0053 16.7708Z" fill="#228B22"/>
</svg>
