<svg width="21" height="21" viewBox="0 0 21 21" fill="none" xmlns="http://www.w3.org/2000/svg">
<path d="M3.35714 0.5H17.6429C18.4006 0.5 19.1273 0.801019 19.6632 1.33684C20.199 1.87266 20.5 2.59938 20.5 3.35714V17.6429C20.5 18.4006 20.199 19.1273 19.6632 19.6632C19.1273 20.199 18.4006 20.5 17.6429 20.5H3.35714C2.59938 20.5 1.87266 20.199 1.33684 19.6632C0.801019 19.1273 0.5 18.4006 0.5 17.6429V3.35714C0.5 2.59938 0.801019 1.87266 1.33684 1.33684C1.87266 0.801019 2.59938 0.5 3.35714 0.5ZM6.21429 16.1214V4.78571V16.1214ZM10.5 16.1929V10.5V16.1929ZM14.7857 16.2143V7.64286V16.2143Z" fill="white"/>
<path d="M6.21429 16.1214V4.78571M10.5 16.1929V10.5M14.7857 16.2143V7.64286M3.35714 0.5H17.6429C18.4006 0.5 19.1273 0.801019 19.6632 1.33684C20.199 1.87266 20.5 2.59938 20.5 3.35714V17.6429C20.5 18.4006 20.199 19.1273 19.6632 19.6632C19.1273 20.199 18.4006 20.5 17.6429 20.5H3.35714C2.59938 20.5 1.87266 20.199 1.33684 19.6632C0.801019 19.1273 0.5 18.4006 0.5 17.6429V3.35714C0.5 2.59938 0.801019 1.87266 1.33684 1.33684C1.87266 0.801019 2.59938 0.5 3.35714 0.5Z" stroke="#228B22" stroke-linecap="round" stroke-linejoin="round"/>
</svg>
