<svg width="300" height="276" viewBox="0 0 300 276" fill="none" xmlns="http://www.w3.org/2000/svg">
<g clip-path="url(#clip0_2108_5506)">
<path d="M137.752 151.852C137.698 151.852 137.665 151.851 137.653 151.85L131.238 151.851V150.906H137.676C137.825 150.911 140.866 150.997 143.668 147.601C147.844 142.541 151.273 130.012 143.896 99.0677C133.977 57.4584 142.25 20.6988 146.267 6.82581C146.465 6.13945 146.5 5.41653 146.37 4.71416C146.24 4.01178 145.949 3.34921 145.518 2.77878C145.088 2.20835 144.531 1.7457 143.89 1.42738C143.25 1.10906 142.545 0.943794 141.83 0.944642H46.0323C45.304 0.945618 44.5861 1.1181 43.937 1.44808C43.288 1.77807 42.7259 2.25626 42.2966 2.84385C40.5948 5.18192 38.2594 9.67358 36.798 17.7953L35.8672 17.6283C37.3602 9.33017 39.7716 4.70637 41.5315 2.2885C42.0488 1.58049 42.7259 1.00428 43.5079 0.606647C44.2899 0.209018 45.1548 0.00117646 46.0323 2.57038e-06H141.83C142.691 -0.000825659 143.542 0.198512 144.313 0.582266C145.084 0.96602 145.756 1.52368 146.274 2.21118C146.793 2.89868 147.144 3.69719 147.301 4.54362C147.457 5.39005 147.414 6.26121 147.175 7.08827C143.179 20.8893 134.949 57.4581 144.816 98.8491C152.296 130.229 148.7 143.029 144.366 148.24C141.508 151.678 138.358 151.852 137.752 151.852Z" fill="#E6E6E6"/>
<path d="M120.491 169.092C120.438 169.092 120.404 169.09 120.392 169.09L113.978 169.09V168.146H120.415C120.565 168.15 123.605 168.237 126.407 164.841C130.583 159.78 134.012 147.252 126.635 116.307C116.716 74.698 124.989 37.9385 129.006 24.0655C129.204 23.3791 129.239 22.6562 129.11 21.9538C128.98 21.2515 128.688 20.5889 128.258 20.0185C127.827 19.448 127.27 18.9854 126.63 18.667C125.99 18.3487 125.284 18.1835 124.569 18.1843H28.7716C28.0433 18.1853 27.3254 18.3578 26.6764 18.6878C26.0273 19.0177 25.4652 19.4959 25.0359 20.0835C23.3341 22.4216 20.9987 26.9133 19.5373 35.0349L18.6064 34.868C20.0995 26.5698 22.5109 21.946 24.2709 19.5282C24.7881 18.8202 25.4652 18.2439 26.2472 17.8463C27.0292 17.4487 27.8941 17.2408 28.7716 17.2397H124.569C125.431 17.2388 126.281 17.4382 127.052 17.8219C127.824 18.2057 128.495 18.7633 129.014 19.4508C129.532 20.1383 129.883 20.9369 130.04 21.7833C130.196 22.6297 130.153 23.5009 129.915 24.3279C125.918 38.129 117.688 74.6978 127.555 116.089C135.036 147.469 131.44 160.268 127.106 165.48C124.247 168.918 121.097 169.092 120.491 169.092Z" fill="#CCCCCC"/>
<path d="M103.231 186.331C103.177 186.331 103.143 186.33 103.132 186.329L8.8108 186.33C7.90271 186.331 7.00819 186.11 6.20553 185.686C5.40286 185.261 4.71651 184.647 4.20655 183.897C3.69659 183.146 3.37856 182.282 3.28028 181.381C3.18201 180.479 3.30648 179.567 3.64282 178.725C7.06509 170.185 11.673 149.696 4.08333 108.425C-4.87873 59.6908 3.1447 42.0782 7.01025 36.7679C7.5275 36.0598 8.20461 35.4836 8.98664 35.086C9.76867 34.6884 10.6336 34.4805 11.5111 34.4794H107.308C108.17 34.4785 109.02 34.6779 109.792 35.0616C110.563 35.4454 111.235 36.003 111.753 36.6905C112.272 37.378 112.623 38.1765 112.779 39.023C112.936 39.8694 112.893 40.7406 112.654 41.5676C108.658 55.3687 100.428 91.9375 110.295 133.328C117.775 164.708 114.179 177.508 109.845 182.72C106.987 186.157 103.837 186.331 103.231 186.331ZM11.5111 35.424C10.7827 35.425 10.0649 35.5974 9.41579 35.9274C8.7667 36.2574 8.20464 36.7356 7.77525 37.3232C3.98139 42.5351 -3.88237 59.8799 5.01353 108.254C12.2639 147.68 8.74752 168.529 4.52083 179.076C4.23597 179.772 4.12905 180.527 4.20971 181.275C4.29038 182.022 4.55609 182.738 4.98287 183.357C5.40606 183.982 5.97637 184.494 6.64377 184.848C7.31118 185.201 8.05528 185.386 8.81079 185.385H103.155C103.304 185.392 106.345 185.477 109.147 182.081C113.322 177.02 116.751 164.492 109.375 133.547C99.4555 91.9377 107.728 55.1782 111.746 41.3052C111.944 40.6188 111.979 39.8959 111.849 39.1935C111.719 38.4911 111.427 37.8286 110.997 37.2581C110.567 36.6877 110.009 36.2251 109.369 35.9067C108.729 35.5884 108.023 35.4231 107.308 35.424H11.5111Z" fill="#3F3D56"/>
<path d="M91.0139 76.9881H15.8232C14.8199 76.9881 13.8576 76.59 13.1481 75.8814C12.4386 75.1728 12.04 74.2117 12.04 73.2096C12.04 72.2074 12.4386 71.2464 13.1481 70.5377C13.8576 69.8291 14.8199 69.431 15.8232 69.431H91.0139C92.0172 69.431 92.9795 69.8291 93.689 70.5377C94.3985 71.2464 94.797 72.2074 94.797 73.2096C94.797 74.2117 94.3985 75.1728 93.689 75.8814C92.9795 76.59 92.0172 76.9881 91.0139 76.9881Z" fill="#228B22"/>
<path d="M91.0139 93.047H15.8232C14.8199 93.047 13.8576 92.6489 13.1481 91.9403C12.4386 91.2317 12.04 90.2706 12.04 89.2685C12.04 88.2663 12.4386 87.3052 13.1481 86.5966C13.8576 85.888 14.8199 85.4899 15.8232 85.4899H91.0139C92.0172 85.4899 92.9795 85.888 93.689 86.5966C94.3985 87.3052 94.797 88.2663 94.797 89.2685C94.797 90.2706 94.3985 91.2317 93.689 91.9403C92.9795 92.6489 92.0172 93.047 91.0139 93.047Z" fill="#CCCCCC"/>
<path d="M91.0139 109.106H15.8232C14.8199 109.106 13.8576 108.708 13.1481 107.999C12.4386 107.291 12.04 106.329 12.04 105.327C12.04 104.325 12.4386 103.364 13.1481 102.655C13.8576 101.947 14.8199 101.549 15.8232 101.549H91.0139C92.0172 101.549 92.9795 101.947 93.689 102.655C94.3985 103.364 94.797 104.325 94.797 105.327C94.797 106.329 94.3985 107.291 93.689 107.999C92.9795 108.708 92.0172 109.106 91.0139 109.106Z" fill="#CCCCCC"/>
<path d="M96.6887 125.165H21.498C20.4947 125.165 19.5324 124.767 18.8229 124.058C18.1134 123.349 17.7148 122.388 17.7148 121.386C17.7148 120.384 18.1134 119.423 18.8229 118.714C19.5324 118.006 20.4947 117.608 21.498 117.608H96.6887C97.692 117.608 98.6543 118.006 99.3638 118.714C100.073 119.423 100.472 120.384 100.472 121.386C100.472 122.388 100.073 123.349 99.3638 124.058C98.6543 124.767 97.692 125.165 96.6887 125.165Z" fill="#CCCCCC"/>
<path d="M96.6887 141.224H21.498C20.4947 141.224 19.5324 140.826 18.8229 140.117C18.1134 139.408 17.7148 138.447 17.7148 137.445C17.7148 136.443 18.1134 135.482 18.8229 134.773C19.5324 134.065 20.4947 133.667 21.498 133.667H96.6887C97.692 133.667 98.6543 134.065 99.3638 134.773C100.073 135.482 100.472 136.443 100.472 137.445C100.472 138.447 100.073 139.408 99.3638 140.117C98.6543 140.826 97.692 141.224 96.6887 141.224Z" fill="#CCCCCC"/>
<path d="M51.2905 60.9293H15.8232C14.8199 60.9293 13.8576 60.5312 13.1481 59.8226C12.4386 59.1139 12.04 58.1528 12.04 57.1507C12.04 56.1486 12.4386 55.1875 13.1481 54.4789C13.8576 53.7702 14.8199 53.3721 15.8232 53.3721H51.2905C52.2939 53.3721 53.2561 53.7702 53.9656 54.4789C54.6751 55.1875 55.0737 56.1486 55.0737 57.1507C55.0737 58.1528 54.6751 59.1139 53.9656 59.8226C53.2561 60.5312 52.2939 60.9293 51.2905 60.9293Z" fill="#228B22"/>
<path d="M46.7111 167.117C47.4744 163.889 51.0607 162.831 53.9929 162.949C55.8454 163.074 57.683 163.364 59.4836 163.817C61.3677 164.238 63.2335 164.736 65.0898 165.265C68.4939 166.234 71.863 167.407 75.3232 168.165C78.2038 168.796 81.3343 169.166 84.207 168.295C86.9684 167.458 89.3111 165.402 90.0625 162.559C90.7705 159.88 89.7984 156.951 87.1995 155.727C84.8295 154.611 81.8357 155.178 80.661 157.703C79.3365 160.55 80.6599 163.654 82.7571 165.714C83.9491 166.832 85.2547 167.822 86.6527 168.669C88.0716 169.635 89.651 170.341 91.3172 170.756C94.0529 171.339 97.3118 170.479 98.7226 167.869C99.0362 167.278 99.2248 166.629 99.2767 165.962C99.3603 165.055 97.941 165.06 97.8581 165.962C97.6189 168.562 94.5711 169.779 92.2919 169.494C90.7534 169.239 89.2842 168.67 87.9765 167.821C86.7145 167.086 85.5186 166.243 84.4023 165.302C82.4692 163.631 80.6571 160.882 81.9554 158.274C83.0126 156.151 85.7685 156.172 87.4447 157.542C89.4746 159.2 89.1126 162.209 87.7738 164.179C86.2913 166.359 83.6044 167.273 81.0709 167.372C78.3182 167.479 75.5885 166.848 72.9576 166.102C69.6886 165.174 66.4523 164.137 63.1676 163.264C61.3028 162.768 59.4237 162.321 57.5254 161.973C55.7303 161.578 53.8866 161.451 52.0541 161.595C49.0939 161.936 46.072 163.657 45.3431 166.74C45.1334 167.627 46.501 168.006 46.7111 167.117Z" fill="#3F3D56"/>
<path d="M191.654 247.231C191.736 256.532 192.418 265.817 193.696 275.029C193.741 275.353 193.79 275.677 193.835 276L281.038 275.513C281.294 275.192 281.546 274.867 281.79 274.538C282.605 273.449 283.368 272.329 284.068 271.17C287.435 265.589 288.976 259.054 287.432 254.545L287.404 254.475C287.071 253.488 286.545 252.576 285.858 251.792C282.336 247.833 275.216 248.493 268.754 251.689C274.55 245.353 279.165 237.357 279.515 230.22C279.859 223.259 276.215 218.286 272.262 214.06C272.132 213.921 272.003 213.785 271.873 213.649C271.81 213.579 271.743 213.513 271.681 213.443C268.597 210.223 265.001 207.048 259.797 207.432C254.089 207.854 247.761 212.629 243.324 218.193C238.887 223.753 235.939 230.07 232.95 236.234C229.958 242.395 226.72 248.713 221.918 253.979C228.422 245.762 233.666 236.414 235.603 227.321C237.54 218.229 235.835 209.497 230.039 205.215C228.279 203.955 226.243 203.134 224.101 202.821C223.85 202.78 223.596 202.746 223.338 202.717C217.973 202.107 211.566 203.96 206.115 208.391C200.112 213.269 195.95 220.502 193.879 227.367C191.808 234.233 191.588 240.842 191.654 247.231Z" fill="#F2F2F2"/>
<path d="M248.708 275.694L250.376 275.684C250.905 275.354 251.437 275.027 251.971 274.704C252.302 274.496 252.637 274.295 252.972 274.09C258.503 270.716 264.069 267.48 269.669 264.381C275.264 261.28 280.887 258.322 286.539 255.506C286.689 255.441 286.811 255.325 286.884 255.18C286.958 255.034 286.978 254.867 286.941 254.708C286.934 254.687 286.925 254.667 286.913 254.65C286.834 254.502 286.658 254.44 286.401 254.567C285.707 254.914 285.01 255.261 284.317 255.616C278.65 258.48 273.008 261.486 267.389 264.636C261.775 267.784 256.193 271.071 250.642 274.497C250.526 274.568 250.409 274.643 250.292 274.714C249.763 275.04 249.237 275.367 248.708 275.694Z" fill="white"/>
<path d="M227.207 275.814L228.238 275.808C228.471 275.483 228.699 275.158 228.932 274.833C234.396 267.18 239.859 259.527 245.321 251.874C254.265 239.345 263.206 226.816 272.145 214.287C272.198 214.22 272.238 214.143 272.261 214.06C272.338 213.783 272.134 213.62 271.872 213.649C271.762 213.665 271.656 213.704 271.562 213.764C271.469 213.823 271.388 213.902 271.327 213.995C266.313 221.022 261.299 228.045 256.287 235.066C247.39 247.533 238.493 259.998 229.598 272.461C229.032 273.252 228.466 274.047 227.901 274.839C227.668 275.164 227.436 275.489 227.207 275.814Z" fill="white"/>
<path d="M204.236 269.833C204.289 271.569 204.404 273.277 204.554 274.969C204.583 275.292 204.612 275.616 204.641 275.94L205.723 275.934C205.69 275.61 205.657 275.286 205.628 274.963C205.399 272.518 205.237 270.046 205.215 267.507C205.186 260.466 205.873 253.441 207.265 246.539C208.745 239.108 210.87 231.82 213.615 224.756C216.497 217.307 219.971 210.1 224.005 203.204C224.081 203.092 224.115 202.956 224.1 202.822C224.056 202.514 223.645 202.422 223.338 202.717C223.278 202.774 223.226 202.84 223.183 202.912C222.684 203.77 222.194 204.629 221.713 205.491C217.829 212.425 214.503 219.657 211.769 227.119C209.165 234.205 207.185 241.505 205.85 248.935C204.599 255.828 204.058 262.83 204.236 269.833Z" fill="white"/>
<path d="M98.8378 167.453C98.6585 167.304 98.5273 167.105 98.4609 166.881C98.3946 166.658 98.3959 166.42 98.4648 166.197C98.5337 165.974 98.667 165.777 98.848 165.63C99.029 165.483 99.2496 165.392 99.482 165.37C102.061 165.121 104.664 165.388 107.139 166.154L132.352 173.931C132.678 174.032 132.982 174.196 133.245 174.413C133.508 174.631 133.725 174.898 133.885 175.2C134.044 175.502 134.143 175.832 134.174 176.171C134.206 176.511 134.171 176.854 134.07 177.18C133.969 177.506 133.805 177.808 133.587 178.071C133.369 178.334 133.101 178.551 132.799 178.71C132.497 178.869 132.167 178.968 131.827 179C131.487 179.031 131.144 178.996 130.817 178.895L105.604 171.118C103.128 170.357 100.828 169.111 98.8378 167.453Z" fill="#3F3D56"/>
<path d="M202.188 199.759C201.503 199.472 200.89 199.039 200.391 198.49C199.892 197.94 199.519 197.288 199.3 196.58C199.08 195.871 199.019 195.123 199.12 194.388C199.222 193.653 199.483 192.949 199.886 192.326L195.564 169.753L206.579 168.896L207.244 190.975C208.247 191.721 208.941 192.808 209.195 194.031C209.449 195.254 209.245 196.527 208.622 197.61C207.999 198.693 207 199.51 205.814 199.906C204.628 200.302 203.338 200.25 202.188 199.759Z" fill="#FFB8B8"/>
<path d="M194.884 188.109L183.666 135.926C183.205 133.783 183.616 131.545 184.807 129.704C185.999 127.863 187.874 126.57 190.02 126.11C192.166 125.65 194.407 126.06 196.25 127.25C198.093 128.44 199.388 130.313 199.848 132.456L211.067 184.639C211.185 185.19 211.079 185.765 210.773 186.238C210.466 186.712 209.985 187.044 209.433 187.163L197.412 189.741C197.138 189.8 196.856 189.804 196.581 189.754C196.306 189.704 196.044 189.6 195.809 189.448C195.575 189.297 195.372 189.101 195.213 188.871C195.055 188.641 194.943 188.382 194.884 188.109Z" fill="#228B22"/>
<path d="M176.471 270.197H170.673L167.915 247.862L176.472 247.863L176.471 270.197Z" fill="#FFB8B8"/>
<path d="M166.532 268.543H177.713V275.574H159.492C159.492 274.651 159.674 273.736 160.028 272.883C160.382 272.03 160.9 271.255 161.554 270.602C162.208 269.949 162.984 269.431 163.838 269.078C164.692 268.724 165.608 268.543 166.532 268.543Z" fill="#2F2E41"/>
<path d="M195.859 269.725H190.062L187.304 247.39L195.861 247.39L195.859 269.725Z" fill="#FFB8B8"/>
<path d="M185.921 268.07H197.102V275.102H178.881C178.881 274.178 179.063 273.264 179.417 272.411C179.771 271.558 180.289 270.783 180.943 270.13C181.597 269.477 182.373 268.959 183.227 268.605C184.081 268.252 184.996 268.07 185.921 268.07Z" fill="#2F2E41"/>
<path d="M169.525 266.031C169.307 265.853 169.128 265.633 168.997 265.385C168.865 265.136 168.785 264.864 168.76 264.585L162.02 190.535C161.994 190.247 162.027 189.957 162.117 189.683C162.206 189.409 162.351 189.155 162.542 188.939C162.733 188.722 162.966 188.546 163.227 188.422C163.488 188.298 163.771 188.229 164.06 188.218L197.863 186.952C198.155 186.941 198.447 186.991 198.719 187.097C198.992 187.204 199.239 187.366 199.446 187.573C199.653 187.779 199.816 188.026 199.923 188.299C200.03 188.571 200.08 188.862 200.069 189.154L197.367 262.919C197.347 263.436 197.14 263.927 196.784 264.302C196.428 264.677 195.948 264.911 195.433 264.958L188.617 265.577C188.335 265.603 188.05 265.572 187.779 265.486C187.509 265.4 187.258 265.261 187.043 265.077C186.827 264.893 186.65 264.667 186.523 264.414C186.395 264.161 186.32 263.884 186.301 263.602L183.173 216.74C183.171 216.649 183.151 216.561 183.114 216.479C183.077 216.396 183.024 216.322 182.958 216.261C182.893 216.199 182.815 216.152 182.731 216.12C182.646 216.089 182.556 216.075 182.466 216.079H182.463C182.373 216.075 182.282 216.09 182.198 216.121C182.113 216.153 182.036 216.201 181.97 216.264C181.904 216.326 181.851 216.4 181.815 216.483C181.778 216.566 181.759 216.655 181.757 216.745L178.958 263.923C178.93 264.428 178.722 264.907 178.371 265.272C178.02 265.636 177.55 265.864 177.046 265.912L171.091 266.507C170.812 266.536 170.529 266.508 170.26 266.427C169.991 266.345 169.741 266.21 169.525 266.031Z" fill="#2F2E41"/>
<path d="M182.527 115.021C188.942 115.021 194.142 109.827 194.142 103.42C194.142 97.0135 188.942 91.8197 182.527 91.8197C176.112 91.8197 170.912 97.0135 170.912 103.42C170.912 109.827 176.112 115.021 182.527 115.021Z" fill="#FFB8B8"/>
<path d="M160.161 191.036C159.954 190.801 159.802 190.524 159.716 190.223C159.63 189.923 159.612 189.607 159.663 189.298C161.807 176.281 160.599 157.146 159.207 143.386C158.844 139.735 159.45 136.054 160.964 132.713C162.479 129.371 164.848 126.487 167.833 124.35L173.899 119.158C174.302 118.816 174.817 118.635 175.345 118.646L190.414 119.076C190.958 119.091 191.474 119.314 191.858 119.699L194.187 124.849L194.211 124.866C196.986 126.904 199.212 129.596 200.69 132.702C202.169 135.809 202.853 139.233 202.683 142.668L200.465 188.453C200.436 188.986 200.21 189.488 199.829 189.862C199.449 190.236 198.942 190.455 198.409 190.475L161.832 191.759C161.808 191.759 161.784 191.76 161.761 191.76C161.458 191.76 161.158 191.696 160.882 191.571C160.606 191.446 160.36 191.264 160.161 191.036Z" fill="#228B22"/>
<path d="M116.287 171.93C116.268 171.189 116.413 170.452 116.711 169.772C117.008 169.093 117.452 168.487 118.009 167.997C118.567 167.506 119.225 167.144 119.938 166.936C120.651 166.728 121.4 166.678 122.135 166.79L140.987 153.613L146.278 163.299L126.38 172.942C126.11 174.161 125.4 175.239 124.387 175.971C123.374 176.703 122.128 177.039 120.883 176.914C119.639 176.789 118.484 176.213 117.637 175.294C116.79 174.376 116.309 173.179 116.287 171.93Z" fill="#FFB8B8"/>
<path d="M132.152 174.221C131.875 174.179 131.61 174.083 131.371 173.938C131.132 173.794 130.924 173.603 130.759 173.377L123.484 163.478C123.15 163.023 123.011 162.455 123.097 161.898C123.182 161.341 123.486 160.84 123.94 160.506L167.018 128.925C168.788 127.628 171.001 127.086 173.17 127.419C174.244 127.583 175.276 127.958 176.205 128.52C177.134 129.083 177.944 129.823 178.587 130.698C179.23 131.573 179.694 132.566 179.953 133.62C180.212 134.674 180.26 135.769 180.095 136.842C179.931 137.915 179.556 138.945 178.993 139.873C178.429 140.802 177.688 141.61 176.812 142.252L133.734 173.833C133.37 174.101 132.931 174.245 132.479 174.246C132.37 174.245 132.26 174.237 132.152 174.221Z" fill="#228B22"/>
<path d="M183.122 113.747C184.662 111.861 184.494 108.988 183.257 106.89C182.021 104.793 179.922 103.348 177.763 102.219C175.604 101.091 173.31 100.204 171.278 98.86C169.245 97.5164 169.334 91.8284 168.793 89.455L170.084 89.8844C169.587 89.2506 169.428 87.3779 168.932 86.7441C170.391 86.888 171.512 88.2709 172.97 88.4148L172.129 86.1588C177.129 85.8509 180.238 89.3215 185.239 89.0136C187.717 88.861 190.407 88.7645 192.444 90.1817C194.214 91.4132 195.11 93.5447 195.698 95.6177C196.96 100.068 197.156 105.054 194.976 109.135C192.796 113.217 187.771 115.967 183.381 114.493L183.122 113.747Z" fill="#2F2E41"/>
<path d="M119.354 275.835H299.528C299.653 275.835 299.773 275.785 299.862 275.696C299.951 275.608 300 275.488 300 275.362C300 275.237 299.951 275.117 299.862 275.029C299.773 274.94 299.653 274.89 299.528 274.89H119.354C119.228 274.89 119.108 274.94 119.019 275.029C118.931 275.117 118.881 275.237 118.881 275.362C118.881 275.488 118.931 275.608 119.019 275.696C119.108 275.785 119.228 275.835 119.354 275.835Z" fill="#3F3D56"/>
</g>
<defs>
<clipPath id="clip0_2108_5506">
<rect width="300" height="276" fill="white"/>
</clipPath>
</defs>
</svg>
