<svg width="129" height="100" viewBox="0 0 129 100" fill="none" xmlns="http://www.w3.org/2000/svg">
<g clip-path="url(#clip0_62_2083)">
<path d="M67.0288 30.4353V22.4016H40.6445V77.5984H67.0288V69.5647C61.624 69.5647 56.4404 67.5033 52.6187 63.8342C48.7969 60.1652 46.6499 55.1889 46.6499 50C46.6499 44.8111 48.7969 39.8347 52.6187 36.1657C56.4404 32.4965 61.624 30.4353 67.0288 30.4353Z" fill="#228B22"/>
<path d="M67.0303 30.4353V69.5645C72.4352 69.5645 77.6187 67.5033 81.4405 63.8342C85.2622 60.165 87.4091 55.1888 87.4091 50C87.4091 44.8111 85.2622 39.8346 81.4405 36.1657C77.6187 32.4965 72.4352 30.4353 67.0303 30.4353Z" fill="#FFD700"/>
</g>
<defs>
<clipPath id="clip0_62_2083">
<rect width="128.054" height="100" fill="white"/>
</clipPath>
</defs>
</svg>
