<svg width="25" height="25" viewBox="0 0 25 25" fill="none" xmlns="http://www.w3.org/2000/svg">
<g clip-path="url(#clip0_581_2160)">
<path d="M8.92861 5.35714C8.40361 5.35714 7.6917 5.35238 6.55003 5.35119C6.2584 5.35058 5.97669 5.45703 5.75834 5.65036C5.54 5.84369 5.40021 6.11044 5.36551 6.4L5.35718 6.54286V19.6345C5.35718 19.9503 5.4826 20.2531 5.70586 20.4763C5.92912 20.6996 6.23192 20.825 6.54765 20.825L18.4524 20.8321C18.744 20.8324 19.0256 20.7257 19.2437 20.5321C19.4618 20.3386 19.6013 20.0717 19.6357 19.7821L19.6429 19.6429V6.54762C19.6429 6.23189 19.5175 5.92908 19.2942 5.70583C19.071 5.48257 18.7681 5.35714 18.4524 5.35714H16.0715" stroke="#228B22" stroke-linecap="round" stroke-linejoin="round"/>
<path d="M7.73804 10.119H13.6904M7.73804 12.5H16.0714M7.73804 14.881H11.3095M7.73804 17.2619H14.8809M10.119 4.16667H14.8809C15.1966 4.16667 15.4994 4.29209 15.7227 4.51535C15.9459 4.73861 16.0714 5.04141 16.0714 5.35714C16.0714 5.67288 15.9459 5.97568 15.7227 6.19894C15.4994 6.4222 15.1966 6.54762 14.8809 6.54762H10.119C9.80326 6.54762 9.50045 6.4222 9.2772 6.19894C9.05394 5.97568 8.92851 5.67288 8.92851 5.35714C8.92851 5.04141 9.05394 4.73861 9.2772 4.51535C9.50045 4.29209 9.80326 4.16667 10.119 4.16667Z" stroke="#228B22" stroke-linecap="round" stroke-linejoin="round"/>
</g>
<defs>
<clipPath id="clip0_581_2160">
<rect width="25" height="25" fill="white"/>
</clipPath>
</defs>
</svg>
