<svg width="300" height="182" viewBox="0 0 300 182" fill="none" xmlns="http://www.w3.org/2000/svg">
<g clip-path="url(#clip0_2108_5452)">
<path d="M24.8362 39.4858C33.3746 39.4858 40.2964 32.5548 40.2964 24.0051C40.2964 15.4553 33.3746 8.52435 24.8362 8.52435C16.2977 8.52435 9.37598 15.4553 9.37598 24.0051C9.37598 32.5548 16.2977 39.4858 24.8362 39.4858Z" fill="#FF6584"/>
<path d="M149.226 182C231.641 182 298.451 179.288 298.451 175.942C298.451 172.597 231.641 169.885 149.226 169.885C66.8106 169.885 0 172.597 0 175.942C0 179.288 66.8106 182 149.226 182Z" fill="#E6E6E6"/>
<path d="M37.9783 100.025C58.9532 100.025 75.9567 82.9994 75.9567 61.9967C75.9567 40.994 58.9532 23.968 37.9783 23.968C17.0035 23.968 0 40.994 0 61.9967C0 82.9994 17.0035 100.025 37.9783 100.025Z" fill="#228B22"/>
<path d="M41.6392 176.541H33.8604L37.4065 56.2694L41.6392 176.541Z" fill="#3F3D56"/>
<path d="M38.0929 79.0637L46.4438 67.4949L37.9787 81.9273L37.0635 80.3237L38.0929 79.0637Z" fill="#3F3D56"/>
<path d="M37.1777 90.7473L28.8271 79.1785L37.2923 93.6109L38.2075 92.0073L37.1777 90.7473Z" fill="#3F3D56"/>
<path d="M278.117 176.668H270.339L273.885 56.3959L278.117 176.668Z" fill="#3F3D56"/>
<path d="M274.571 79.1902L282.922 67.6214L274.457 82.0538L273.542 80.4502L274.571 79.1902Z" fill="#3F3D56"/>
<path d="M273.656 90.8738L265.306 79.305L273.771 93.7374L274.686 92.1338L273.656 90.8738Z" fill="#3F3D56"/>
<path d="M154.285 176.647C193.358 176.647 225.033 144.93 225.033 105.805C225.033 66.6799 193.358 34.9627 154.285 34.9627C115.211 34.9627 83.5361 66.6799 83.5361 105.805C83.5361 144.93 115.211 176.647 154.285 176.647Z" fill="#3F3D56"/>
<path d="M154.284 170.783C190.123 170.783 219.176 141.691 219.176 105.805C219.176 69.9188 190.123 40.8272 154.284 40.8272C118.446 40.8272 89.3926 69.9188 89.3926 105.805C89.3926 141.691 118.446 170.783 154.284 170.783Z" fill="white"/>
<path d="M154.051 114.719C158.838 114.719 162.719 110.833 162.719 106.04C162.719 101.246 158.838 97.3603 154.051 97.3603C149.264 97.3603 145.383 101.246 145.383 106.04C145.383 110.833 149.264 114.719 154.051 114.719Z" fill="#3F3D56"/>
<path d="M155.925 44.1113H152.177V51.1486H155.925V44.1113Z" fill="#3F3D56"/>
<path d="M155.925 160.931H152.177V167.968H155.925V160.931Z" fill="#3F3D56"/>
<path d="M99.2324 107.916V104.163H92.2044V107.916H99.2324Z" fill="#3F3D56"/>
<path d="M215.896 107.916V104.163H208.868V107.916H215.896Z" fill="#3F3D56"/>
<path d="M151.552 109.807L154.755 102.473L194.893 124.732L151.552 109.807Z" fill="#3F3D56"/>
<path d="M163.421 17.8386H145.148V38.9506H163.421V17.8386Z" fill="#3F3D56"/>
<path d="M154.285 23.703C165.93 23.703 175.369 21.0774 175.369 17.8386C175.369 14.5998 165.93 11.9742 154.285 11.9742C142.641 11.9742 133.201 14.5998 133.201 17.8386C133.201 21.0774 142.641 23.703 154.285 23.703Z" fill="#3F3D56"/>
<path d="M193.758 118.355L192.587 119.997C192.587 119.997 187.199 126.331 186.964 123.281C186.73 120.232 190.947 118.12 190.947 118.12L193.29 116.713L193.758 118.355Z" fill="#FFB8B8"/>
<path d="M227.105 123.895L228.086 125.658C228.086 125.658 231.497 133.244 228.644 132.151C225.792 131.058 225.691 126.339 225.691 126.339L225.423 123.616L227.105 123.895Z" fill="#FFB8B8"/>
<path d="M221.832 92.6375C225.771 92.6375 228.965 89.4396 228.965 85.4947C228.965 81.5499 225.771 78.352 221.832 78.352C217.892 78.352 214.698 81.5499 214.698 85.4947C214.698 89.4396 217.892 92.6375 221.832 92.6375Z" fill="#2F2E41"/>
<path d="M221.168 144.158L222.105 150.257V152.134H227.493V149.788C227.493 149.788 227.727 145.566 226.79 144.393C225.853 143.22 221.168 144.158 221.168 144.158Z" fill="#FFB8B8"/>
<path d="M211.562 144.158L212.5 150.257V152.134H217.888V149.788C217.888 149.788 218.122 145.566 217.185 144.393C216.248 143.22 211.562 144.158 211.562 144.158Z" fill="#FFB8B8"/>
<path d="M215.189 95.1676C215.189 95.1676 213.116 96.2613 214.532 98.7493C215.947 101.237 224.252 126.977 224.252 126.977L229.044 125.615L224.818 109.336L222.399 99.1052L215.189 95.1676Z" fill="#228B22"/>
<path d="M221.05 92.9033C224.026 92.9033 226.438 90.4877 226.438 87.508C226.438 84.5283 224.026 82.1127 221.05 82.1127C218.074 82.1127 215.662 84.5283 215.662 87.508C215.662 90.4877 218.074 92.9033 221.05 92.9033Z" fill="#FFB8B8"/>
<path d="M223.51 88.329L222.807 99.3542L217.888 95.8355C217.888 95.8355 219.528 89.2673 219.059 88.7982L223.51 88.329Z" fill="#FFB8B8"/>
<path d="M223.511 98.4158L218.211 94.4861C218.211 94.4861 215.78 93.4897 215.077 94.6626C214.374 95.8355 210.86 113.194 212.734 116.478C212.734 116.478 222.808 118.59 224.916 117.417L225.853 111.318C225.853 111.318 227.025 107.564 225.15 105.219L223.511 98.4158Z" fill="#228B22"/>
<path d="M216.483 94.8972C216.483 94.8972 214.609 93.4897 212.969 95.8355C211.329 98.1813 191.65 116.713 191.65 116.713L194.93 120.466L207.815 109.676L216.014 103.107L216.483 94.8972Z" fill="#228B22"/>
<path d="M225.033 117.299C225.033 117.299 213.437 115.071 212.266 116.713L212.031 119.293C212.031 119.293 209.454 124.219 210.86 132.195C212.266 140.171 211.328 145.097 211.328 145.097C211.328 145.097 217.654 144.393 222.339 145.097C227.024 145.8 227.727 145.097 227.727 145.097L225.033 117.299Z" fill="#2F2E41"/>
<path d="M227.962 151.196L221.168 151.43L223.511 169.024C223.511 169.024 221.636 176.53 223.745 176.999C225.211 177.295 226.701 177.452 228.196 177.468C228.196 177.468 230.304 179.58 232.647 179.345C234.203 179.146 235.71 178.669 237.098 177.937C237.098 177.937 237.567 176.53 235.927 176.061C234.287 175.592 229.836 174.184 228.899 169.258L227.962 151.196Z" fill="#2F2E41"/>
<path d="M218.356 151.196L211.562 151.43L213.905 169.024C213.905 169.024 212.031 176.53 214.139 176.999C215.605 177.295 217.095 177.452 218.59 177.468C218.59 177.468 220.699 179.58 223.042 179.345C224.597 179.146 226.105 178.669 227.493 177.937C227.493 177.937 227.961 176.53 226.321 176.061C224.681 175.592 220.23 174.184 219.293 169.258L218.356 151.196Z" fill="#2F2E41"/>
<path d="M224.327 80.9327C225.957 80.9327 227.278 79.6094 227.278 77.9771C227.278 76.3447 225.957 75.0214 224.327 75.0214C222.697 75.0214 221.375 76.3447 221.375 77.9771C221.375 79.6094 222.697 80.9327 224.327 80.9327Z" fill="#2F2E41"/>
<path d="M228.262 76.3761C228.262 75.6455 227.992 74.9409 227.504 74.398C227.016 73.8552 226.344 73.5126 225.618 73.4365C225.72 73.4258 225.823 73.4205 225.926 73.4205C226.708 73.4205 227.459 73.7319 228.013 74.2861C228.566 74.8404 228.877 75.5922 228.877 76.3761C228.877 77.16 228.566 77.9117 228.013 78.466C227.459 79.0203 226.708 79.3317 225.926 79.3317C225.823 79.3317 225.72 79.3263 225.618 79.3157C226.344 79.2396 227.016 78.897 227.504 78.3542C227.992 77.8113 228.262 77.1067 228.262 76.3761Z" fill="#2F2E41"/>
<path d="M221.002 86.9359C223.719 86.9359 225.921 85.6126 225.921 83.9803C225.921 82.3479 223.719 81.0247 221.002 81.0247C218.285 81.0247 216.082 82.3479 216.082 83.9803C216.082 85.6126 218.285 86.9359 221.002 86.9359Z" fill="#2F2E41"/>
<path d="M298.489 14.1855C298.288 10.6279 296.832 7.25739 294.38 4.67491C291.928 2.09243 288.64 0.465833 285.102 0.0851236C281.564 -0.295586 278.006 0.594342 275.062 2.59624C272.118 4.59813 269.98 7.58187 269.029 11.0155C268.847 11.0089 268.665 11.0016 268.481 11.0016C265.237 11.0022 262.081 12.0546 259.484 14.0012C256.887 15.9478 254.989 18.6841 254.074 21.8007C251.925 20.855 249.522 20.6498 247.244 21.2173C244.965 21.7848 242.939 23.093 241.482 24.937H288.321C289.687 24.9409 291.041 24.6686 292.299 24.1365C293.558 23.6044 294.697 22.8234 295.647 21.8403C296.598 20.8572 297.34 19.6921 297.83 18.4149C298.32 17.1377 298.548 15.7746 298.5 14.4072C298.497 14.3334 298.493 14.2595 298.489 14.1855Z" fill="#E6E6E6"/>
<path d="M259.333 45.829C261.56 45.829 263.366 44.0209 263.366 41.7905C263.366 39.5601 261.56 37.7521 259.333 37.7521C257.105 37.7521 255.3 39.5601 255.3 41.7905C255.3 44.0209 257.105 45.829 259.333 45.829Z" fill="#E6E6E6"/>
<path d="M271.51 35.6317C273.365 35.6317 274.869 34.1262 274.869 32.2691C274.869 30.412 273.365 28.9065 271.51 28.9065C269.656 28.9065 268.152 30.412 268.152 32.2691C268.152 34.1262 269.656 35.6317 271.51 35.6317Z" fill="#E6E6E6"/>
<path d="M287.9 54.5789C290.128 54.5789 291.933 52.7709 291.933 50.5405C291.933 48.3101 290.128 46.502 287.9 46.502C285.673 46.502 283.867 48.3101 283.867 50.5405C283.867 52.7709 285.673 54.5789 287.9 54.5789Z" fill="#E6E6E6"/>
<path d="M257.316 73.0885C259.544 73.0885 261.349 71.2804 261.349 69.05C261.349 66.8197 259.544 65.0116 257.316 65.0116C255.089 65.0116 253.283 66.8197 253.283 69.05C253.283 71.2804 255.089 73.0885 257.316 73.0885Z" fill="#E6E6E6"/>
<path d="M287.9 96.3095C290.128 96.3095 291.933 94.5015 291.933 92.2711C291.933 90.0407 290.128 88.2327 287.9 88.2327C285.673 88.2327 283.867 90.0407 283.867 92.2711C283.867 94.5015 285.673 96.3095 287.9 96.3095Z" fill="#E6E6E6"/>
<path d="M281.508 170.142C281.51 170.098 281.515 170.055 281.515 170.011C281.516 169.334 281.347 168.668 281.023 168.074C280.7 167.48 280.232 166.977 279.663 166.612C279.095 166.246 278.443 166.03 277.769 165.983C277.095 165.935 276.42 166.059 275.806 166.341C275.23 165.675 274.451 165.217 273.59 165.037C272.729 164.856 271.832 164.963 271.037 165.342C270.243 165.721 269.594 166.35 269.191 167.133C268.788 167.916 268.652 168.81 268.804 169.678C268.784 169.677 268.764 169.675 268.744 169.675C268.101 169.674 267.468 169.826 266.897 170.119C266.326 170.413 265.833 170.838 265.459 171.361C265.085 171.884 264.841 172.488 264.747 173.124C264.654 173.76 264.713 174.409 264.92 175.018C265.128 175.626 265.477 176.176 265.94 176.622C266.402 177.068 266.965 177.397 267.58 177.582C268.195 177.766 268.845 177.801 269.476 177.683C270.107 177.565 270.701 177.298 271.209 176.905C271.529 177.529 272.006 178.059 272.593 178.443C273.18 178.826 273.857 179.049 274.557 179.091C275.257 179.132 275.955 178.99 276.584 178.678C277.212 178.367 277.748 177.897 278.139 177.314C278.619 177.664 279.17 177.903 279.753 178.015C280.336 178.126 280.936 178.107 281.511 177.96C282.086 177.812 282.621 177.539 283.079 177.16C283.536 176.782 283.904 176.306 284.157 175.769C284.409 175.231 284.54 174.644 284.54 174.05C284.54 173.455 284.408 172.869 284.155 172.331C283.902 171.793 283.534 171.319 283.076 170.94C282.619 170.562 282.083 170.289 281.508 170.142Z" fill="#E6E6E6"/>
<path d="M291.597 77.8C292.526 77.8 293.278 77.0466 293.278 76.1173C293.278 75.188 292.526 74.4346 291.597 74.4346C290.669 74.4346 289.917 75.188 289.917 76.1173C289.917 77.0466 290.669 77.8 291.597 77.8Z" fill="#E6E6E6"/>
<path d="M280.843 37.4155C281.771 37.4155 282.523 36.6622 282.523 35.7328C282.523 34.8035 281.771 34.0502 280.843 34.0502C279.914 34.0502 279.162 34.8035 279.162 35.7328C279.162 36.6622 279.914 37.4155 280.843 37.4155Z" fill="#E6E6E6"/>
<path d="M275.13 79.1461C276.058 79.1461 276.81 78.3928 276.81 77.4635C276.81 76.5341 276.058 75.7808 275.13 75.7808C274.202 75.7808 273.449 76.5341 273.449 77.4635C273.449 78.3928 274.202 79.1461 275.13 79.1461Z" fill="#E6E6E6"/>
<path d="M276.473 77.4635C277.402 77.4635 278.154 76.7101 278.154 75.7808C278.154 74.8514 277.402 74.0981 276.473 74.0981C275.545 74.0981 274.793 74.8514 274.793 75.7808C274.793 76.7101 275.545 77.4635 276.473 77.4635Z" fill="#E6E6E6"/>
<path d="M277.482 75.7808C278.41 75.7808 279.163 75.0274 279.163 74.0981C279.163 73.1688 278.41 72.4154 277.482 72.4154C276.554 72.4154 275.802 73.1688 275.802 74.0981C275.802 75.0274 276.554 75.7808 277.482 75.7808Z" fill="#E6E6E6"/>
<path d="M273.449 89.9153C274.377 89.9153 275.129 89.162 275.129 88.2327C275.129 87.3033 274.377 86.55 273.449 86.55C272.521 86.55 271.769 87.3033 271.769 88.2327C271.769 89.162 272.521 89.9153 273.449 89.9153Z" fill="#E6E6E6"/>
<path d="M298.319 108.761C299.247 108.761 300 108.008 300 107.079C300 106.149 299.247 105.396 298.319 105.396C297.391 105.396 296.639 106.149 296.639 107.079C296.639 108.008 297.391 108.761 298.319 108.761Z" fill="#E6E6E6"/>
<path d="M262.358 109.771C263.286 109.771 264.039 109.018 264.039 108.088C264.039 107.159 263.286 106.406 262.358 106.406C261.43 106.406 260.678 107.159 260.678 108.088C260.678 109.018 261.43 109.771 262.358 109.771Z" fill="#E6E6E6"/>
<path d="M264.374 57.9443C265.302 57.9443 266.054 57.1909 266.054 56.2616C266.054 55.3323 265.302 54.5789 264.374 54.5789C263.446 54.5789 262.693 55.3323 262.693 56.2616C262.693 57.1909 263.446 57.9443 264.374 57.9443Z" fill="#E6E6E6"/>
<path d="M272.104 88.2327C273.032 88.2327 273.785 87.4793 273.785 86.55C273.785 85.6206 273.032 84.8673 272.104 84.8673C271.176 84.8673 270.424 85.6206 270.424 86.55C270.424 87.4793 271.176 88.2327 272.104 88.2327Z" fill="#E6E6E6"/>
<path d="M270.424 85.5404C271.352 85.5404 272.104 84.787 272.104 83.8577C272.104 82.9284 271.352 82.175 270.424 82.175C269.496 82.175 268.743 82.9284 268.743 83.8577C268.743 84.787 269.496 85.5404 270.424 85.5404Z" fill="#E6E6E6"/>
</g>
<defs>
<clipPath id="clip0_2108_5452">
<rect width="300" height="182" fill="white"/>
</clipPath>
</defs>
</svg>
