<svg width="300" height="197" viewBox="0 0 300 197" fill="none" xmlns="http://www.w3.org/2000/svg">
<g clip-path="url(#clip0_2108_5334)">
<path d="M195.794 86.0186C195.448 87.8319 195.034 89.6267 194.55 91.4031C194.498 91.6094 194.439 91.8126 194.38 92.0188H187.655C187.082 92.0195 186.533 92.2467 186.128 92.6507C185.723 93.0547 185.495 93.6025 185.495 94.1739V113.298C185.291 113.677 185.084 114.053 184.877 114.428C183.81 116.368 182.698 118.286 181.563 120.179C163.042 150.952 137.211 176.703 106.35 195.159L108.177 191.046C107.507 191 106.835 190.954 106.165 190.907C91.5816 189.913 76.9489 188.811 62.7082 185.541C47.8101 182.121 33.2362 176.188 21.5603 166.352C9.88122 156.513 1.31961 142.462 0.131311 127.26C-0.264923 122.035 0.26481 116.782 1.69622 111.741C4.43374 102.037 10.4153 93.3057 19.0449 88.1398C32.6004 80.0276 50.2824 81.6808 64.5724 88.4292C78.8594 95.1744 90.489 106.341 101.844 117.313C90.3795 97.7028 74.4173 81.0835 55.2669 68.8183C48.9213 64.7668 42.1868 61.1587 36.7917 55.9096C31.3997 50.6636 27.4213 43.3088 28.3751 35.8554C29.4584 27.4015 36.3998 20.9857 43.3534 16.0383C46.1311 14.0618 48.9984 12.187 51.9552 10.4629C60.2977 5.58638 69.3224 1.90742 78.8532 0.543588C91.7637 -1.30667 105.708 1.50104 115.606 9.97342C126.757 19.5202 131.331 34.9165 130.896 49.6446C137.767 39.6822 148.362 32.0564 160.328 31.7332C172.751 31.4007 184.56 39.2296 190.782 49.9617C197.001 60.6907 198.118 73.8426 195.794 86.0186Z" fill="#E6E6E6"/>
<path d="M117.195 127.394C124.472 126.755 131.193 126.008 138.244 124.018C145.078 122.089 151.654 118.86 156.52 113.587C161.752 107.915 164.577 100.55 166.57 93.2183C167.681 89.1305 168.595 84.9855 169.456 80.8391C170.391 76.3402 171.221 71.8215 171.948 67.2829C173.394 58.2486 174.426 49.1612 175.044 40.0205C175.119 38.9109 175.188 37.801 175.25 36.6907C175.288 36.0058 174.22 36.008 174.182 36.6907C173.674 45.7008 172.76 54.6757 171.44 63.6156C170.137 72.3989 168.47 81.1442 166.356 89.7701C164.564 97.0776 162.245 104.499 157.65 110.582C153.342 116.287 147.119 120.015 140.4 122.243C133.562 124.511 126.353 125.417 119.208 126.09C118.332 126.173 118.072 126.252 117.195 126.329C116.516 126.388 116.51 127.454 117.195 127.394Z" fill="white"/>
<path d="M2.31209 112.526C11.4922 113.034 20.5789 114.631 29.3801 117.284C38.1851 119.931 46.6464 123.605 54.5887 128.229C62.2631 132.701 69.3875 138.051 75.817 144.172C82.0571 150.116 87.6184 156.73 92.3995 163.894C97.2023 171.077 101.183 178.773 104.266 186.84C104.642 187.828 105.004 188.82 105.352 189.818C105.577 190.461 106.609 190.184 106.382 189.534C103.497 181.297 99.6949 173.409 95.0458 166.018C90.3976 158.626 84.9425 151.771 78.7803 145.578C72.5194 139.289 65.5514 133.743 58.0148 129.048C42.1905 119.216 24.2537 113.268 5.67734 111.692C4.55678 111.599 3.43504 111.522 2.31211 111.461C1.62538 111.424 1.62748 112.489 2.31209 112.526Z" fill="white"/>
<path d="M52.2431 11.7116C58.1127 13.5736 63.6763 16.2855 68.7558 19.7604C73.9462 23.3354 78.6799 27.5287 82.8521 32.2474C87.2487 37.2113 91.1575 42.5846 94.5248 48.2935C98.0964 54.3213 101.199 60.6135 103.806 67.1148C106.49 73.7895 108.747 80.6269 110.564 87.5862C112.412 94.628 113.855 101.769 114.886 108.975C115.912 116.104 116.534 123.286 116.746 130.485C116.961 137.369 116.757 144.26 116.136 151.12C115.567 157.519 114.529 163.868 113.03 170.116C111.698 175.76 109.822 181.261 107.426 186.543C106.871 187.742 106.283 188.924 105.66 190.09C105.337 190.695 106.259 191.233 106.582 190.627C109.229 185.582 111.343 180.276 112.889 174.794C114.624 168.692 115.881 162.465 116.65 156.169C117.502 149.338 117.917 142.46 117.893 135.576C117.877 128.344 117.446 121.119 116.6 113.937C115.754 106.665 114.498 99.4462 112.838 92.3152C111.182 85.1724 109.081 78.1396 106.547 71.2576C104.106 64.5954 101.182 58.1188 97.8 51.8791C94.5786 45.9248 90.8245 40.2729 86.5836 34.9925C82.5559 29.9647 77.9577 25.4195 72.881 21.4477C67.9857 17.6293 62.5762 14.5169 56.8116 12.2018C55.4029 11.6425 53.9747 11.1367 52.527 10.6844C51.8699 10.4782 51.5888 11.5062 52.2431 11.7116Z" fill="white"/>
<path d="M115.587 197C157.775 197 191.975 195.622 191.975 193.921C191.975 192.221 157.775 190.843 115.587 190.843C73.3986 190.843 39.1982 192.221 39.1982 193.921C39.1982 195.622 73.3986 197 115.587 197Z" fill="#E6E6E6"/>
<path d="M183.077 97.4955C183.039 97.6616 183.015 97.8305 183.004 98.0005L169.745 105.63L166.522 103.779L163.087 108.266L169.981 113.167L185.107 101.264C185.724 101.492 186.396 101.527 187.033 101.364C187.67 101.202 188.243 100.85 188.675 100.355C189.107 99.86 189.377 99.2457 189.45 98.5936C189.524 97.9415 189.396 97.2827 189.085 96.7046C188.774 96.1266 188.293 95.6568 187.708 95.3577C187.122 95.0586 186.459 94.9444 185.807 95.0303C185.155 95.1161 184.545 95.398 184.057 95.8383C183.569 96.2787 183.228 96.8567 183.077 97.4955Z" fill="#FFB8B8"/>
<path d="M152.882 102.176L163.321 109.598L167.99 103.759L157.842 95.6366C157.406 95.2871 156.902 95.0303 156.363 94.8818C155.823 94.7332 155.259 94.6961 154.704 94.7728C154.15 94.8494 153.617 95.0382 153.138 95.3275C152.659 95.6167 152.245 96.0005 151.92 96.4552C151.287 97.3411 151.033 98.4416 151.213 99.5145C151.393 100.587 151.994 101.545 152.882 102.176Z" fill="#228B22"/>
<path d="M131.332 186.859L134.993 187.816L140.434 174.189L135.032 172.777L131.332 186.859Z" fill="#FFB8B8"/>
<path d="M141.161 193.051L129.657 190.045L130.822 185.611L137.881 187.456C139.06 187.764 140.068 188.527 140.683 189.576C141.298 190.625 141.47 191.876 141.161 193.051Z" fill="#2F2E41"/>
<path d="M163.87 189.459L167.595 188.795L166.801 174.148L161.304 175.128L163.87 189.459Z" fill="#FFB8B8"/>
<path d="M175.396 190.965L163.69 193.051L162.882 188.54L170.065 187.26C170.659 187.154 171.268 187.166 171.858 187.295C172.447 187.424 173.005 187.667 173.5 188.011C173.995 188.355 174.418 188.793 174.743 189.3C175.068 189.807 175.29 190.373 175.396 190.965Z" fill="#2F2E41"/>
<path d="M156.535 81.7401C157.453 81.963 158.2 82.8959 158.648 83.9767C159.062 85.1119 159.342 86.2912 159.483 87.4908C159.835 89.7249 160.174 92.1435 159.445 94.2126C158.59 96.6377 156.314 97.9079 154.34 97.311C152.366 96.7141 150.796 94.4736 150.259 91.8945C149.771 89.2884 150.085 86.596 151.162 84.1719C151.723 82.8983 152.496 81.7233 153.523 81.1486C154.027 80.8447 154.627 80.7423 155.204 80.8621C155.78 80.9819 156.29 81.3151 156.63 81.7945" fill="#2F2E41"/>
<path d="M161.729 122.189L168.821 185.546L162.964 187.764L152.161 145.279L137.122 184.125L130.711 184.48C130.711 184.48 139.507 124.037 146.026 122.663L161.729 122.189Z" fill="#2F2E41"/>
<path d="M155.773 89.8256C159.96 89.8256 163.353 86.4402 163.353 82.2642C163.353 78.0881 159.96 74.7028 155.773 74.7028C151.586 74.7028 148.192 78.0881 148.192 82.2642C148.192 86.4402 151.586 89.8256 155.773 89.8256Z" fill="#FFB8B8"/>
<path d="M159.026 92.9978L150.834 91.932C150.834 91.932 145.491 98.3269 145.847 109.34C146.204 120.354 144.957 123.729 144.957 123.729L162.037 124.037C159.568 120.65 169.896 101.2 159.026 92.9978Z" fill="#228B22"/>
<path d="M163.427 125.576C163.256 125.577 163.086 125.592 162.917 125.62L152.437 114.492L153.506 110.939L148.341 108.63L145.136 116.446L160.213 128.409C160.132 129.06 160.252 129.72 160.556 130.302C160.861 130.884 161.335 131.359 161.917 131.665C162.499 131.971 163.161 132.093 163.814 132.015C164.467 131.937 165.081 131.663 165.574 131.228C166.066 130.794 166.415 130.22 166.573 129.583C166.731 128.946 166.691 128.276 166.458 127.662C166.225 127.049 165.81 126.521 165.268 126.148C164.727 125.775 164.085 125.576 163.427 125.576Z" fill="#FFB8B8"/>
<path d="M151.949 97.3273L147.095 109.163L153.862 112.36L159.466 100.647C159.707 100.143 159.843 99.5957 159.864 99.0378C159.886 98.4798 159.793 97.9234 159.591 97.4025C159.389 96.8817 159.083 96.4074 158.691 96.0087C158.299 95.61 157.83 95.2953 157.312 95.0839C156.812 94.8799 156.277 94.7761 155.737 94.7785C155.197 94.7809 154.663 94.8893 154.165 95.0976C153.666 95.3059 153.214 95.6101 152.834 95.9926C152.454 96.3752 152.153 96.8287 151.949 97.3273Z" fill="#228B22"/>
<path d="M153.789 89.1385C154.977 88.455 155.104 86.8062 154.942 85.4479C154.781 84.0897 154.511 82.5754 155.312 81.4648C156.267 80.1393 158.186 80.1129 159.822 80.0697C161.458 80.0264 163.451 79.5485 163.875 77.9718C164.155 76.9299 163.555 75.8119 162.695 75.1579C161.835 74.5039 160.76 74.2147 159.714 73.9399C157.374 73.3252 154.959 72.7053 152.564 73.0432C150.191 73.3778 148.046 74.6308 146.593 76.5309C145.139 78.4311 144.494 80.8257 144.798 83.1965C145.185 86.2293 145.747 87.5536 145.378 88.8908C144.691 91.3815 141.727 92.9815 141.668 95.5642C141.622 97.5844 143.411 99.1428 145.156 100.169C146.54 100.982 148.035 101.673 149.63 101.863C151.226 102.054 152.943 101.689 154.132 100.61C155.665 99.219 156.044 96.8947 155.604 94.8745C155.165 92.8543 154.037 91.0602 152.922 89.3179" fill="#2F2E41"/>
<path d="M297.222 91.4031H187.655C186.918 91.4042 186.212 91.6965 185.692 92.2158C185.171 92.7352 184.878 93.4393 184.877 94.1738V164.367C184.878 165.101 185.171 165.805 185.692 166.325C186.212 166.844 186.918 167.136 187.655 167.137H297.222C297.959 167.136 298.664 166.844 299.185 166.325C299.706 165.805 299.999 165.101 300 164.367V94.1738C299.999 93.4393 299.706 92.7352 299.185 92.2158C298.664 91.6965 297.959 91.4042 297.222 91.4031ZM299.383 164.367C299.382 164.938 299.154 165.486 298.749 165.89C298.344 166.294 297.795 166.521 297.222 166.522H187.655C187.082 166.521 186.533 166.294 186.128 165.89C185.723 165.486 185.495 164.938 185.494 164.367V94.1738C185.495 93.6025 185.723 93.0547 186.128 92.6507C186.533 92.2467 187.082 92.0194 187.655 92.0188H297.222C297.795 92.0194 298.344 92.2467 298.749 92.6507C299.154 93.0547 299.382 93.6025 299.383 94.1738V164.367Z" fill="#3F3D56"/>
<path d="M211.042 126.344H193.758C193.063 126.343 192.396 126.067 191.904 125.577C191.412 125.086 191.136 124.421 191.135 123.727V106.487C191.136 105.793 191.412 105.128 191.904 104.638C192.396 104.147 193.063 103.871 193.758 103.87H211.042C211.738 103.871 212.404 104.147 212.896 104.638C213.388 105.128 213.665 105.793 213.666 106.487V123.727C213.665 124.421 213.388 125.086 212.896 125.577C212.404 126.067 211.738 126.343 211.042 126.344Z" fill="#228B22"/>
<path d="M291.516 144.665H193.368C192.836 144.665 192.326 144.454 191.95 144.079C191.574 143.703 191.362 143.194 191.362 142.664C191.362 142.133 191.574 141.624 191.95 141.249C192.326 140.873 192.836 140.663 193.368 140.663H291.516C292.048 140.663 292.559 140.873 292.935 141.249C293.311 141.624 293.522 142.133 293.522 142.664C293.522 143.194 293.311 143.703 292.935 144.079C292.559 144.454 292.048 144.665 291.516 144.665Z" fill="#CCCCCC"/>
<path d="M291.582 134.967H193.434C192.902 134.967 192.392 134.756 192.015 134.381C191.639 134.006 191.428 133.497 191.428 132.966C191.428 132.435 191.639 131.926 192.015 131.551C192.392 131.176 192.902 130.965 193.434 130.965H291.582C292.114 130.965 292.624 131.176 293 131.551C293.376 131.926 293.588 132.435 293.588 132.966C293.588 133.497 293.376 134.006 293 134.381C292.624 134.756 292.114 134.967 291.582 134.967Z" fill="#CCCCCC"/>
<path d="M243.126 121.726H228.619C228.087 121.726 227.577 121.515 227.201 121.14C226.825 120.765 226.613 120.256 226.613 119.725C226.613 119.194 226.825 118.685 227.201 118.31C227.577 117.935 228.087 117.724 228.619 117.724H243.126C243.658 117.724 244.168 117.935 244.544 118.31C244.92 118.685 245.132 119.194 245.132 119.725C245.132 120.256 244.92 120.765 244.544 121.14C244.168 121.515 243.658 121.726 243.126 121.726Z" fill="#CCCCCC"/>
<path d="M291.582 111.877H228.619C228.087 111.877 227.577 111.667 227.201 111.291C226.825 110.916 226.613 110.407 226.613 109.876C226.613 109.346 226.825 108.837 227.201 108.461C227.577 108.086 228.087 107.875 228.619 107.875H291.582C292.114 107.875 292.624 108.086 293.001 108.461C293.377 108.837 293.588 109.346 293.588 109.876C293.588 110.407 293.377 110.916 293.001 111.291C292.624 111.667 292.114 111.877 291.582 111.877Z" fill="#CCCCCC"/>
<path d="M240.656 154.516H193.368C192.836 154.516 192.326 154.306 191.95 153.93C191.574 153.555 191.362 153.046 191.362 152.515C191.362 151.985 191.574 151.476 191.95 151.1C192.326 150.725 192.836 150.514 193.368 150.514H240.656C241.188 150.514 241.699 150.725 242.075 151.1C242.451 151.476 242.663 151.985 242.663 152.515C242.663 153.046 242.451 153.555 242.075 153.93C241.699 154.306 241.188 154.516 240.656 154.516Z" fill="#CCCCCC"/>
</g>
<defs>
<clipPath id="clip0_2108_5334">
<rect width="300" height="197" fill="white"/>
</clipPath>
</defs>
</svg>
