<svg width="300" height="155" viewBox="0 0 300 155" fill="none" xmlns="http://www.w3.org/2000/svg">
<g clip-path="url(#clip0_2108_5593)">
<path d="M150 138.542C232.843 138.542 300 136.664 300 134.347C300 132.03 232.843 130.151 150 130.151C67.1573 130.151 0 132.03 0 134.347C0 136.664 67.1573 138.542 150 138.542Z" fill="#E6E6E6"/>
<path d="M229.94 88.8848C229.75 88.8874 229.561 88.89 229.369 88.89C229.177 88.89 228.988 88.8874 228.798 88.8848C218.757 88.6565 211.479 82.3831 213.332 75.801L217.849 59.744L218.991 55.6811L239.228 56.0262L240.458 60.0009L245.3 75.6454C247.349 82.2638 240.072 88.6565 229.94 88.8848Z" fill="#3F3D56"/>
<path opacity="0.2" d="M240.458 60.0009C237.007 61.9732 233.093 62.9893 229.118 62.9441C225.144 62.899 221.254 61.7943 217.849 59.744L218.99 55.6811L239.228 56.0262L240.458 60.0009Z" fill="black"/>
<path d="M239.604 76.3338C240.478 73.0758 243.352 68.3759 251.41 62.7092C265.463 52.8249 257.079 45.4137 256.716 45.1031C255.954 44.4518 256.067 43.7205 256.978 43.4706C257.507 43.3648 258.053 43.3733 258.579 43.4957C259.104 43.6181 259.598 43.8514 260.026 44.1801C260.481 44.5564 270.979 53.5206 255.121 64.6725C240.849 74.7103 243.884 81.2627 243.919 81.3256C244.301 82.0264 243.688 82.5871 242.548 82.5796C241.407 82.572 240.172 81.9983 239.789 81.2983C239.708 81.1501 238.79 79.3668 239.604 76.3338Z" fill="#3F3D56"/>
<path d="M220.028 91.225C219.722 91.225 219.418 91.1646 219.135 91.0472C218.852 90.9299 218.594 90.7579 218.377 90.5411C218.16 90.3243 217.988 90.0668 217.871 89.7835C217.754 89.5002 217.693 89.1966 217.693 88.89V78.7716C217.693 78.1524 217.939 77.5585 218.377 77.1206C218.815 76.6827 219.409 76.4367 220.028 76.4367C220.648 76.4367 221.242 76.6827 221.68 77.1206C222.118 77.5585 222.364 78.1524 222.364 78.7716V88.89C222.364 89.1966 222.303 89.5002 222.186 89.7835C222.069 90.0668 221.897 90.3243 221.68 90.5411C221.463 90.7579 221.205 90.9299 220.922 91.0472C220.639 91.1646 220.335 91.225 220.028 91.225Z" fill="#3F3D56"/>
<path d="M222.076 67.2036C221.947 67.4822 221.766 67.7328 221.541 67.9411C221.316 68.1494 221.052 68.3114 220.764 68.4177C220.476 68.5241 220.171 68.5727 219.864 68.5609C219.558 68.5491 219.257 68.4771 218.978 68.3489L209.786 64.1197C209.224 63.8605 208.788 63.3887 208.573 62.8082C208.359 62.2276 208.384 61.5857 208.642 61.0235C208.901 60.4613 209.372 60.0248 209.953 59.8099C210.533 59.5949 211.175 59.6191 211.738 59.8772L220.93 64.1064C221.209 64.2345 221.459 64.4163 221.668 64.6413C221.876 64.8663 222.038 65.1302 222.144 65.4178C222.251 65.7054 222.299 66.0111 222.288 66.3175C222.276 66.6239 222.204 66.925 222.076 67.2036Z" fill="#3F3D56"/>
<path d="M236.662 67.2036C236.79 67.4822 236.972 67.7328 237.197 67.9411C237.422 68.1494 237.686 68.3114 237.973 68.4177C238.261 68.5241 238.567 68.5727 238.873 68.5609C239.18 68.5491 239.481 68.477 239.759 68.3489L248.952 64.1197C249.515 63.8609 249.951 63.3891 250.166 62.8083C250.381 62.2275 250.356 61.5851 250.097 61.0225C249.838 60.4599 249.367 60.0232 248.786 59.8084C248.205 59.5936 247.563 59.6184 247 59.8772L237.807 64.1064C237.529 64.2345 237.278 64.4163 237.07 64.6413C236.862 64.8663 236.7 65.1302 236.593 65.4178C236.487 65.7054 236.438 66.0111 236.45 66.3175C236.462 66.6239 236.534 66.925 236.662 67.2036Z" fill="#3F3D56"/>
<path d="M238.709 91.225C239.016 91.225 239.319 91.1646 239.603 91.0472C239.886 90.9299 240.144 90.7579 240.36 90.5411C240.577 90.3243 240.749 90.0668 240.867 89.7835C240.984 89.5002 241.044 89.1966 241.044 88.89V78.7716C241.044 78.1524 240.798 77.5585 240.36 77.1206C239.922 76.6827 239.328 76.4367 238.709 76.4367C238.09 76.4367 237.496 76.6827 237.058 77.1206C236.62 77.5585 236.374 78.1524 236.374 78.7716V88.89C236.374 89.1966 236.434 89.5002 236.552 89.7835C236.669 90.0668 236.841 90.3243 237.058 90.5411C237.275 90.7579 237.532 90.9299 237.816 91.0472C238.099 91.1646 238.402 91.225 238.709 91.225Z" fill="#3F3D56"/>
<path d="M248.467 25.7191C248.669 25.4649 248.815 25.1709 248.895 24.8564C248.975 24.5418 248.987 24.2139 248.931 23.8942L247.66 16.4182L246.389 8.94218C246.32 8.53853 246.147 8.16005 245.886 7.84478C245.624 7.52951 245.285 7.28857 244.901 7.14617C244.517 7.00377 244.102 6.96492 243.698 7.03354C243.295 7.10215 242.916 7.27581 242.601 7.53706L236.762 12.3756L233.244 15.2907C230.898 14.8735 228.499 14.8374 226.142 15.1836L222.753 12.3756L216.914 7.53706C216.598 7.27582 216.22 7.10216 215.816 7.03354C215.413 6.96493 214.998 7.00377 214.614 7.14618C214.23 7.28858 213.89 7.52952 213.629 7.84478C213.368 8.16005 213.194 8.53853 213.126 8.94219L211.855 16.4182L210.584 23.8942C210.516 24.2872 210.551 24.691 210.686 25.0663C208.508 28.405 207.264 32.2663 207.084 36.2485C206.904 40.2307 207.795 44.1884 209.663 47.7098C211.531 51.2312 214.309 54.1877 217.707 56.2718C221.106 58.3559 225 59.4914 228.986 59.5603C232.972 59.6291 236.904 58.6288 240.372 56.6634C243.84 54.6979 246.718 51.8391 248.707 48.3843C250.696 44.9296 251.722 41.0051 251.68 37.019C251.638 33.033 250.529 29.1311 248.467 25.7191Z" fill="#3F3D56"/>
<path d="M216.329 10.6006C216.191 10.6008 216.053 10.6258 215.923 10.6742C215.733 10.7437 215.564 10.8626 215.434 11.0189C215.305 11.1752 215.219 11.3631 215.186 11.5634L213.645 20.6295C213.611 20.8294 213.631 21.0347 213.701 21.2247C213.772 21.4148 213.891 21.5829 214.047 21.7123C214.203 21.8416 214.39 21.9276 214.59 21.9615C214.79 21.9955 214.995 21.9762 215.186 21.9057L223.808 18.7073C223.998 18.6368 224.166 18.5175 224.295 18.3614C224.425 18.2054 224.511 18.018 224.545 17.8182C224.579 17.6184 224.559 17.4131 224.489 17.2231C224.418 17.0331 224.299 16.8649 224.143 16.7356L217.062 10.8678C216.856 10.6957 216.597 10.6011 216.329 10.6006Z" fill="#E6E6E6"/>
<path d="M243.187 10.6006C242.919 10.6011 242.66 10.6957 242.454 10.8678L235.373 16.7356C235.217 16.8649 235.098 17.0331 235.027 17.2231C234.957 17.4131 234.937 17.6184 234.971 17.8182C235.005 18.018 235.091 18.2054 235.221 18.3614C235.35 18.5175 235.518 18.6368 235.708 18.7073L244.331 21.9057C244.521 21.9762 244.726 21.9955 244.926 21.9615C245.126 21.9276 245.313 21.8416 245.469 21.7123C245.625 21.5829 245.745 21.4148 245.815 21.2247C245.886 21.0347 245.905 20.8294 245.871 20.6295L244.33 11.5634C244.297 11.3631 244.211 11.1752 244.082 11.0189C243.952 10.8626 243.783 10.7437 243.593 10.6742C243.463 10.6258 243.326 10.6008 243.187 10.6006Z" fill="#E6E6E6"/>
<path d="M229.368 43.4872C231.088 43.4872 232.482 42.0933 232.482 40.3739C232.482 38.6545 231.088 37.2606 229.368 37.2606C227.649 37.2606 226.255 38.6545 226.255 40.3739C226.255 42.0933 227.649 43.4872 229.368 43.4872Z" fill="#E6E6E6"/>
<path d="M229.369 39.5956C230.515 39.5956 231.444 39.2471 231.444 38.8172C231.444 38.3874 230.515 38.0389 229.369 38.0389C228.222 38.0389 227.293 38.3874 227.293 38.8172C227.293 39.2471 228.222 39.5956 229.369 39.5956Z" fill="#3F3D56"/>
<path d="M227.812 42.19H230.666V45.6925C230.666 45.8799 230.629 46.0655 230.557 46.2386C230.485 46.4117 230.38 46.569 230.248 46.7015C230.115 46.834 229.958 46.9391 229.785 47.0108C229.611 47.0825 229.426 47.1195 229.239 47.1195C228.86 47.1195 228.497 46.9691 228.229 46.7015C227.962 46.4339 227.812 46.071 227.812 45.6925L227.812 42.19Z" fill="#FF6584"/>
<path d="M229.541 6.87629C229.392 7.18663 229.246 7.50033 229.11 7.82044C227.5 11.5755 226.957 15.702 227.54 19.7459C227.833 19.322 228.14 18.8805 228.452 18.4341C227.783 14.5531 228.159 10.564 229.541 6.87629Z" fill="#3F3D56"/>
<path d="M231.877 9.73017C231.728 10.0405 231.582 10.3542 231.446 10.6743C229.836 14.4294 229.292 18.5559 229.876 22.5998C230.169 22.1759 230.476 21.7344 230.788 21.288C230.119 17.4069 230.495 13.4179 231.877 9.73017Z" fill="#3F3D56"/>
<path d="M239.076 65.7577L238.747 61.5745L238.418 57.3912C238.4 57.1654 238.323 56.9481 238.195 56.7614C238.067 56.5747 237.892 56.425 237.687 56.3275C237.483 56.2299 237.256 56.1879 237.03 56.2057C236.804 56.2234 236.587 56.3003 236.4 56.4287L232.942 58.8052L230.416 60.5405C230.255 60.3516 230.054 60.1998 229.829 60.0958C229.603 59.9917 229.357 59.9379 229.109 59.9379C228.86 59.9379 228.615 59.9917 228.389 60.0958C228.163 60.1998 227.963 60.3516 227.801 60.5405L225.276 58.8052L221.817 56.4286C221.631 56.3003 221.413 56.2234 221.188 56.2057C220.962 56.1879 220.735 56.2299 220.531 56.3274C220.326 56.425 220.151 56.5747 220.023 56.7614C219.894 56.9481 219.817 57.1653 219.8 57.3912L219.471 61.5745L219.142 65.7577C219.124 65.9836 219.166 66.2101 219.263 66.4146C219.361 66.6191 219.511 66.7943 219.697 66.9226C219.884 67.051 220.101 67.1279 220.327 67.1456C220.553 67.1634 220.78 67.1214 220.984 67.0238L224.772 65.2171L227.884 63.7325C228.044 63.8948 228.235 64.0236 228.445 64.1115C228.655 64.1994 228.881 64.2447 229.109 64.2447C229.337 64.2447 229.562 64.1994 229.773 64.1115C229.983 64.0236 230.174 63.8948 230.334 63.7325L233.446 65.2171L237.233 67.0238C237.438 67.1214 237.664 67.1634 237.89 67.1456C238.116 67.1279 238.333 67.051 238.52 66.9227C238.707 66.7943 238.857 66.6191 238.954 66.4147C239.052 66.2102 239.094 65.9836 239.076 65.7577Z" fill="#228B22"/>
<path d="M225.217 37.7795C225.647 37.7795 225.995 37.431 225.995 37.0011C225.995 36.5713 225.647 36.2228 225.217 36.2228C224.787 36.2228 224.438 36.5713 224.438 37.0011C224.438 37.431 224.787 37.7795 225.217 37.7795Z" fill="#E6E6E6"/>
<path d="M233.52 37.7795C233.949 37.7795 234.298 37.431 234.298 37.0011C234.298 36.5713 233.949 36.2228 233.52 36.2228C233.09 36.2228 232.741 36.5713 232.741 37.0011C232.741 37.431 233.09 37.7795 233.52 37.7795Z" fill="#E6E6E6"/>
<path d="M78.7645 82.0085C78.9539 82.0111 79.1433 82.0137 79.3353 82.0137C79.5273 82.0137 79.7167 82.0111 79.9061 82.0085C89.9471 81.7802 97.2249 75.5068 95.3723 68.9247L90.8552 52.8677L89.7136 48.8048L69.4759 49.1499L68.246 53.1246L63.4046 68.7691C61.3548 75.3875 68.6326 81.7802 78.7645 82.0085Z" fill="#3F3D56"/>
<path opacity="0.2" d="M68.2461 53.1246C71.6967 55.0969 75.6112 56.113 79.5856 56.0678C83.5599 56.0227 87.4503 54.918 90.8552 52.8677L89.7136 48.8048L69.4759 49.1499L68.2461 53.1246Z" fill="black"/>
<path d="M66.6419 67.5544C64.4576 64.9837 59.8494 61.9653 50.1415 60.2914C33.2102 57.3708 37.6159 47.0853 37.8113 46.6492C38.2214 45.7344 37.8067 45.1215 36.8762 45.2856C36.3525 45.4164 35.8628 45.6577 35.44 45.9933C35.0171 46.3288 34.6709 46.7509 34.4246 47.2312C34.1744 47.766 28.5222 60.3598 47.6272 63.6539C64.8216 66.6199 64.883 73.8405 64.8784 73.9122C64.8326 74.7092 65.6268 74.9536 66.6541 74.459C67.6814 73.9643 68.5522 72.9173 68.5994 72.1204C68.6089 71.952 68.6758 69.9473 66.6419 67.5544Z" fill="#3F3D56"/>
<path d="M88.6759 84.3487C88.9826 84.3487 89.2862 84.2883 89.5696 84.171C89.8529 84.0536 90.1103 83.8816 90.3271 83.6648C90.544 83.448 90.716 83.1906 90.8333 82.9073C90.9507 82.624 91.0111 82.3203 91.0111 82.0137V71.8954C91.0103 71.2766 90.764 70.6834 90.3261 70.2461C89.8883 69.8088 89.2948 69.5632 88.6759 69.5632C88.0571 69.5632 87.4636 69.8088 87.0257 70.2461C86.5879 70.6834 86.3416 71.2766 86.3408 71.8954V82.0137C86.3408 82.3203 86.4012 82.624 86.5186 82.9073C86.6359 83.1906 86.8079 83.448 87.0248 83.6648C87.2416 83.8816 87.499 84.0536 87.7823 84.171C88.0656 84.2883 88.3693 84.3487 88.6759 84.3487Z" fill="#3F3D56"/>
<path d="M86.6288 60.3273C86.757 60.6059 86.9388 60.8565 87.1638 61.0648C87.3888 61.2731 87.6527 61.4351 87.9403 61.5414C88.2279 61.6478 88.5337 61.6964 88.8401 61.6846C89.1465 61.6728 89.4476 61.6008 89.7262 61.4726L98.9188 57.2434C99.1977 57.1155 99.4486 56.9338 99.6573 56.7088C99.8659 56.4838 100.028 56.2199 100.135 55.9321C100.241 55.6444 100.29 55.3385 100.278 55.0319C100.267 54.7252 100.195 54.4239 100.066 54.1452C99.9381 53.8664 99.7562 53.6157 99.5309 53.4073C99.3057 53.1989 99.0416 53.0369 98.7537 52.9307C98.4659 52.8244 98.1599 52.7759 97.8532 52.7879C97.5466 52.8 97.2454 52.8724 96.9667 53.0009L87.7742 57.2301C87.4956 57.3583 87.245 57.54 87.0366 57.765C86.8283 57.9901 86.6663 58.2539 86.56 58.5415C86.4536 58.8291 86.405 59.1348 86.4168 59.4412C86.4286 59.7477 86.5006 60.0487 86.6288 60.3273Z" fill="#3F3D56"/>
<path d="M72.0419 60.3273C71.9138 60.6059 71.732 60.8565 71.507 61.0648C71.2819 61.2731 71.0181 61.4351 70.7305 61.5414C70.4428 61.6478 70.1371 61.6964 69.8307 61.6846C69.5242 61.6728 69.2231 61.6008 68.9446 61.4726L59.752 57.2434C59.4731 57.1155 59.2221 56.9338 59.0135 56.7088C58.8048 56.4838 58.6426 56.2199 58.536 55.9321C58.4294 55.6444 58.3806 55.3385 58.3923 55.0319C58.4041 54.7252 58.4761 54.4239 58.6044 54.1452C58.7326 53.8664 58.9146 53.6157 59.1398 53.4073C59.3651 53.1989 59.6291 53.0369 59.917 52.9307C60.2049 52.8244 60.5109 52.7759 60.8175 52.7879C61.1241 52.8 61.4254 52.8724 61.704 53.0009L70.8966 57.2301C71.1752 57.3583 71.4258 57.54 71.6341 57.765C71.8425 57.9901 72.0044 58.2539 72.1108 58.5415C72.2171 58.8291 72.2658 59.1348 72.254 59.4412C72.2422 59.7477 72.1701 60.0487 72.0419 60.3273Z" fill="#3F3D56"/>
<path d="M69.9953 84.3487C69.6886 84.3487 69.385 84.2883 69.1017 84.171C68.8183 84.0536 68.5609 83.8816 68.3441 83.6648C68.1272 83.448 67.9552 83.1906 67.8379 82.9073C67.7205 82.624 67.6601 82.3203 67.6602 82.0137V71.8954C67.6609 71.2766 67.9072 70.6834 68.3451 70.2461C68.7829 69.8088 69.3764 69.5632 69.9953 69.5632C70.6141 69.5632 71.2076 69.8088 71.6455 70.2461C72.0833 70.6834 72.3296 71.2766 72.3304 71.8954V82.0137C72.3304 82.3203 72.27 82.624 72.1527 82.9073C72.0353 83.1906 71.8633 83.448 71.6465 83.6648C71.4296 83.8816 71.1722 84.0536 70.8889 84.171C70.6056 84.2883 70.3019 84.3487 69.9953 84.3487Z" fill="#3F3D56"/>
<path d="M98.0178 18.19C98.1524 17.8147 98.1874 17.4109 98.1195 17.018L96.8487 9.54192L95.5778 2.06589C95.5091 1.66224 95.3355 1.28376 95.0742 0.96849C94.813 0.653224 94.4733 0.412285 94.0894 0.269881C93.7055 0.127477 93.2909 0.0886269 92.8872 0.157242C92.4835 0.225858 92.105 0.399521 91.7897 0.66077L85.9504 5.49935L82.5617 8.30733C80.204 7.96108 77.8059 7.99724 75.4597 8.41441L71.9417 5.49934L66.1024 0.66076C65.7871 0.39951 65.4086 0.225848 65.005 0.157232C64.6013 0.0886162 64.1867 0.127462 63.8028 0.269866C63.4189 0.41227 63.0792 0.653213 62.8179 0.96848C62.5567 1.28375 62.383 1.66223 62.3144 2.06588L61.0435 9.54192L59.7726 17.018C59.7165 17.3376 59.7288 17.6655 59.8087 17.9801C59.8886 18.2946 60.0342 18.5886 60.2361 18.8428C58.1721 22.2555 57.0605 26.1591 57.017 30.1471C56.9734 34.1352 57.9996 38.062 59.9886 41.519C61.9776 44.976 64.8568 47.8368 68.3265 49.8036C71.7963 51.7705 75.7297 52.7716 79.7177 52.7027C83.7056 52.6338 87.6021 51.4974 91.0019 49.4118C94.4016 47.3263 97.1802 44.3678 99.0486 40.8441C100.917 37.3205 101.807 33.3606 101.626 29.3764C101.444 25.3922 100.198 21.5294 98.0178 18.19Z" fill="#3F3D56"/>
<path d="M91.6417 3.99154L84.5606 9.85906C84.4045 9.98839 84.2851 10.1568 84.2147 10.3468C84.1442 10.5368 84.1249 10.7421 84.1589 10.9419C84.1929 11.1417 84.2789 11.3291 84.4082 11.4851C84.5375 11.6412 84.7057 11.7605 84.8957 11.831L93.5181 15.0294C93.7082 15.1 93.9135 15.1192 94.1133 15.0852C94.3132 15.0513 94.5006 14.9653 94.6567 14.836C94.8128 14.7066 94.9321 14.5385 95.0026 14.3484C95.0731 14.1584 95.0923 13.9531 95.0584 13.7533L93.5172 4.68714C93.4844 4.48684 93.3988 4.2989 93.2692 4.14263C93.1397 3.98636 92.9709 3.8674 92.7801 3.79797C92.6504 3.74949 92.5131 3.72456 92.3746 3.72437C92.1066 3.72487 91.8472 3.81942 91.6417 3.99154Z" fill="#E6E6E6"/>
<path d="M65.1119 3.79797C64.9212 3.8674 64.7524 3.98636 64.6228 4.14263C64.4933 4.2989 64.4077 4.48684 64.3749 4.68714L62.8337 13.7533C62.7997 13.9531 62.819 14.1584 62.8895 14.3484C62.96 14.5385 63.0793 14.7066 63.2354 14.836C63.3915 14.9653 63.5789 15.0513 63.7788 15.0852C63.9786 15.1192 64.1839 15.1 64.374 15.0294L72.9964 11.831C73.1864 11.7605 73.3546 11.6412 73.4839 11.4851C73.6132 11.3291 73.6992 11.1417 73.7332 10.9419C73.7671 10.7421 73.7479 10.5368 73.6774 10.3468C73.6069 10.1568 73.4877 9.98865 73.3316 9.85931L66.2504 3.99154C66.0449 3.81942 65.7855 3.72486 65.5175 3.72437C65.379 3.72456 65.2417 3.74949 65.1119 3.79797Z" fill="#E6E6E6"/>
<path d="M79.3352 36.6109C81.0547 36.6109 82.4487 35.2171 82.4487 33.4976C82.4487 31.7782 81.0547 30.3843 79.3352 30.3843C77.6156 30.3843 76.2217 31.7782 76.2217 33.4976C76.2217 35.2171 77.6156 36.6109 79.3352 36.6109Z" fill="#E6E6E6"/>
<path d="M79.3354 32.7193C80.4818 32.7193 81.4111 32.3708 81.4111 31.941C81.4111 31.5111 80.4818 31.1626 79.3354 31.1626C78.1891 31.1626 77.2598 31.5111 77.2598 31.941C77.2598 32.3708 78.1891 32.7193 79.3354 32.7193Z" fill="#3F3D56"/>
<path d="M79.4646 40.2432C79.2772 40.2432 79.0916 40.2063 78.9185 40.1345C78.7454 40.0628 78.588 39.9577 78.4555 39.8252C78.323 39.6927 78.2179 39.5354 78.1462 39.3623C78.0745 39.1892 78.0376 39.0036 78.0376 38.8162V35.3137H80.8916V38.8162C80.8916 39.0036 80.8547 39.1892 80.783 39.3623C80.7113 39.5354 80.6062 39.6927 80.4736 39.8252C80.3411 39.9577 80.1838 40.0628 80.0107 40.1345C79.8375 40.2063 79.652 40.2432 79.4646 40.2432Z" fill="#FF6584"/>
<path d="M79.1621 0C79.3118 0.310338 79.4571 0.624032 79.5937 0.944141C81.204 4.69925 81.747 8.82575 81.1631 12.8696C80.8709 12.4457 80.5639 12.0042 80.2517 11.5578C80.9204 7.67677 80.5444 3.68769 79.1621 0Z" fill="#3F3D56"/>
<path d="M76.8271 2.85389C76.9768 3.16423 77.1221 3.47792 77.2588 3.79803C78.869 7.55313 79.412 11.6797 78.8281 15.7235C78.536 15.2996 78.229 14.8581 77.9167 14.4117C78.5855 10.5307 78.2094 6.54158 76.8271 2.85389Z" fill="#3F3D56"/>
<path d="M69.628 13.4787L69.957 9.29544L70.2859 5.11219C70.3037 4.88632 70.3806 4.6691 70.5089 4.48237C70.6372 4.29564 70.8124 4.14598 71.0169 4.04842C71.2214 3.95087 71.448 3.90886 71.6739 3.92663C71.8998 3.94439 72.117 4.02129 72.3037 4.14961L75.7623 6.52611L78.2878 8.2615C78.4492 8.07253 78.6496 7.92079 78.8753 7.81674C79.101 7.71269 79.3466 7.65882 79.5952 7.65882C79.8437 7.65882 80.0893 7.71269 80.315 7.81674C80.5407 7.92079 80.7411 8.07253 80.9026 8.2615L83.4281 6.52611L86.8866 4.14961C87.0733 4.02129 87.2906 3.94439 87.5164 3.92663C87.7423 3.90886 87.9689 3.95087 88.1734 4.04842C88.3779 4.14598 88.5531 4.29564 88.6814 4.48237C88.8098 4.6691 88.8867 4.88632 88.9044 5.11219L89.2334 9.29544L89.5623 13.4787C89.5801 13.7046 89.5381 13.9311 89.4405 14.1356C89.343 14.3401 89.1933 14.5153 89.0066 14.6436C88.8198 14.7719 88.6026 14.8488 88.3767 14.8666C88.1508 14.8844 87.9243 14.8423 87.7198 14.7448L83.9323 12.938L80.8203 11.4535C80.6602 11.6157 80.4694 11.7446 80.2591 11.8325C80.0488 11.9204 79.8231 11.9657 79.5952 11.9657C79.3672 11.9657 79.1415 11.9204 78.9312 11.8325C78.7209 11.7446 78.5301 11.6157 78.37 11.4535L75.258 12.938L71.4706 14.7448C71.2661 14.8424 71.0395 14.8844 70.8136 14.8666C70.5877 14.8489 70.3705 14.7719 70.1838 14.6436C69.997 14.5153 69.8474 14.3401 69.7498 14.1356C69.6522 13.9311 69.6102 13.7046 69.628 13.4787Z" fill="#228B22"/>
<path d="M82.708 30.1248C82.708 30.5547 83.0565 30.1248 83.4864 30.1248C83.9163 30.1248 84.2648 30.5547 84.2648 30.1248C84.2643 29.9187 84.1821 29.7211 84.0362 29.5755C83.8903 29.4299 83.6925 29.3481 83.4864 29.3481C83.2802 29.3481 83.0825 29.4299 82.9366 29.5755C82.7906 29.7211 82.7084 29.9187 82.708 30.1248Z" fill="#E6E6E6"/>
<path d="M75.962 30.1248C75.962 30.5547 75.6135 30.1248 75.1836 30.1248C74.7538 30.1248 74.4053 30.5547 74.4053 30.1248C74.4057 29.9187 74.4879 29.7211 74.6338 29.5755C74.7798 29.4299 74.9775 29.3481 75.1837 29.3481C75.3898 29.3481 75.5875 29.4299 75.7335 29.5755C75.8794 29.7211 75.9616 29.9187 75.962 30.1248Z" fill="#E6E6E6"/>
<path d="M162.32 88.8914V83.944H137.582V84.2534V88.8914V128.78V133.727H142.53H162.32V128.78H142.53V88.8914H162.32Z" fill="#3F3D56"/>
<path d="M174.38 83.9441V133.727H199.118V83.9441H174.38ZM194.171 128.78H179.328V88.8915H194.171V128.78Z" fill="#228B22"/>
<path d="M105.731 128.78V84.2534H100.783V128.78V133.727H105.731H125.521V128.78H105.731Z" fill="#228B22"/>
<path d="M89.6514 88.8914V83.944H64.9131V84.2534V88.8914V106.207V111.155V128.78V133.727H69.8608H89.6514V128.78H69.8608V111.155H89.6514V106.207H69.8608V88.8914H89.6514Z" fill="#3F3D56"/>
<path d="M283.229 88.8914V83.944H258.49V84.2534V88.8914V106.207V111.155V128.78V133.727H263.438H283.229V128.78H263.438V111.155H283.229V106.207H263.438V88.8914H283.229Z" fill="#228B22"/>
<path d="M48.2148 84.2534V125.143L35.1694 112.098L35.1397 112.128L35.1121 112.101L21.7758 125.436V84.0988H16.8281V133.573H21.7758V132.433L35.1421 119.067L48.2148 132.14V133.727H53.1625V84.2534H48.2148Z" fill="#3F3D56"/>
<path d="M242.102 84.2534V85.3931L228.736 98.7587L215.663 85.6867V84.0988H210.715V133.573H215.663V92.6833L228.708 105.728L228.738 105.698L228.765 105.725L242.102 92.3897V133.727H247.049V84.2534H242.102Z" fill="#3F3D56"/>
<path d="M113.064 53.7765C114.741 53.7765 116.101 52.4169 116.101 50.7398C116.101 49.0627 114.741 47.7031 113.064 47.7031C111.387 47.7031 110.027 49.0627 110.027 50.7398C110.027 52.4169 111.387 53.7765 113.064 53.7765Z" fill="#228B22"/>
<path d="M38.155 87.5177C39.8322 87.5177 41.1919 86.1581 41.1919 84.481C41.1919 82.8038 39.8322 81.4443 38.155 81.4443C36.4778 81.4443 35.1182 82.8038 35.1182 84.481C35.1182 86.1581 36.4778 87.5177 38.155 87.5177Z" fill="#228B22"/>
<path d="M98.2175 155C99.8947 155 101.254 153.64 101.254 151.963C101.254 150.286 99.8947 148.927 98.2175 148.927C96.5403 148.927 95.1807 150.286 95.1807 151.963C95.1807 153.64 96.5403 155 98.2175 155Z" fill="#228B22"/>
<path d="M174.476 62.8866C176.154 62.8866 177.513 61.527 177.513 59.8499C177.513 58.1728 176.154 56.8132 174.476 56.8132C172.799 56.8132 171.439 58.1728 171.439 59.8499C171.439 61.527 172.799 62.8866 174.476 62.8866Z" fill="#228B22"/>
<path d="M263.895 152.301C265.572 152.301 266.932 150.941 266.932 149.264C266.932 147.587 265.572 146.227 263.895 146.227C262.218 146.227 260.858 147.587 260.858 149.264C260.858 150.941 262.218 152.301 263.895 152.301Z" fill="#228B22"/>
<path d="M266.932 72.6716C268.61 72.6716 269.969 71.312 269.969 69.6349C269.969 67.9577 268.61 66.5982 266.932 66.5982C265.255 66.5982 263.896 67.9577 263.896 69.6349C263.896 71.312 265.255 72.6716 266.932 72.6716Z" fill="#228B22"/>
<path d="M228.465 127.332C230.142 127.332 231.501 125.973 231.501 124.296C231.501 122.618 230.142 121.259 228.465 121.259C226.787 121.259 225.428 122.618 225.428 124.296C225.428 125.973 226.787 127.332 228.465 127.332Z" fill="#228B22"/>
</g>
<defs>
<clipPath id="clip0_2108_5593">
<rect width="300" height="155" fill="white"/>
</clipPath>
</defs>
</svg>
