<svg width="250" height="249" viewBox="0 0 250 249" fill="none" xmlns="http://www.w3.org/2000/svg">
<g clip-path="url(#clip0_2112_5802)">
<path d="M164.902 65.9693H123.868C122.97 65.9721 122.083 65.7697 121.274 65.3776C120.466 64.9855 119.758 64.4141 119.203 63.7067C118.639 62.9927 118.244 62.1592 118.05 61.2696C117.856 60.38 117.868 59.4579 118.083 58.5733C121.865 42.7202 121.865 26.1987 118.083 10.3456C117.867 9.46109 117.856 8.539 118.05 7.64951C118.244 6.76001 118.639 5.92654 119.203 5.21252C119.758 4.50512 120.466 3.93364 121.274 3.54155C122.083 3.14946 122.97 2.94709 123.868 2.94986H164.902C166.318 2.95393 167.688 3.46117 168.766 4.38121C169.844 5.30126 170.56 6.57438 170.788 7.97382C173.488 25.5276 173.488 43.3916 170.788 60.9454C170.56 62.3448 169.844 63.6179 168.766 64.538C167.688 65.458 166.318 65.9653 164.902 65.9693Z" fill="#E6E6E6"/>
<path d="M123.868 6.03987C123.437 6.03842 123.011 6.13547 122.622 6.32362C122.234 6.51178 121.894 6.78609 121.627 7.12569C121.353 7.47363 121.162 7.87961 121.068 8.31275C120.974 8.74588 120.98 9.19475 121.085 9.62522C124.98 25.952 124.98 42.9672 121.086 59.2941C120.98 59.7244 120.974 60.1732 121.068 60.6063C121.162 61.0393 121.353 61.4452 121.627 61.7931C121.894 62.1328 122.234 62.4074 122.622 62.5956C123.011 62.7838 123.437 62.8809 123.868 62.8794H164.902C165.582 62.8796 166.24 62.6382 166.759 62.198C167.278 61.7579 167.625 61.1476 167.736 60.4759C170.389 43.2333 170.389 25.686 167.736 8.44334C167.625 7.77164 167.278 7.16139 166.759 6.72124C166.24 6.28109 165.582 6.03963 164.902 6.03986L123.868 6.03987Z" fill="white"/>
<path d="M155.947 20.8979H134.414C133.596 20.897 132.811 20.5711 132.232 19.9919C131.654 19.4126 131.328 18.6272 131.327 17.808V16.6005C131.328 15.7813 131.654 14.9959 132.232 14.4167C132.811 13.8374 133.596 13.5116 134.414 13.5107H155.947C156.766 13.5116 157.55 13.8374 158.129 14.4167C158.708 14.9959 159.034 15.7813 159.034 16.6005V17.808C159.034 18.6272 158.708 19.4126 158.129 19.9919C157.55 20.5711 156.766 20.897 155.947 20.8979Z" fill="#E6E6E6"/>
<path d="M155.947 36.155H134.414C133.596 36.1541 132.811 35.8283 132.232 35.249C131.654 34.6697 131.328 33.8843 131.327 33.0651V31.8577C131.328 31.0385 131.654 30.2531 132.232 29.6738C132.811 29.0945 133.596 28.7687 134.414 28.7678H155.947C156.766 28.7687 157.55 29.0945 158.129 29.6738C158.708 30.2531 159.034 31.0385 159.034 31.8577V33.0651C159.034 33.8843 158.708 34.6697 158.129 35.249C157.55 35.8283 156.766 36.1541 155.947 36.155Z" fill="#E6E6E6"/>
<path d="M155.947 51.4121H134.414C133.596 51.4112 132.811 51.0853 132.232 50.5061C131.654 49.9268 131.328 49.1414 131.327 48.3222V47.1147C131.328 46.2955 131.654 45.5101 132.232 44.9309C132.811 44.3516 133.596 44.0258 134.414 44.0249H155.947C156.766 44.0258 157.55 44.3516 158.129 44.9309C158.708 45.5101 159.034 46.2955 159.034 47.1147V48.3222C159.034 49.1414 158.708 49.9268 158.129 50.5061C157.55 51.0853 156.766 51.4112 155.947 51.4121Z" fill="#E6E6E6"/>
<path d="M242.089 105.109H201.055C200.157 105.112 199.27 104.909 198.462 104.517C197.653 104.125 196.945 103.554 196.39 102.846C195.826 102.132 195.431 101.299 195.237 100.409C195.043 99.5197 195.055 98.5975 195.27 97.713C199.052 81.8598 199.052 65.3384 195.27 49.4853C195.054 48.6007 195.043 47.6787 195.237 46.7892C195.431 45.8997 195.826 45.0662 196.39 44.3522C196.945 43.6448 197.653 43.0733 198.461 42.6812C199.27 42.2891 200.157 42.0867 201.055 42.0895H242.089C243.505 42.0936 244.875 42.6008 245.953 43.5209C247.031 44.4409 247.747 45.714 247.975 47.1135C250.675 64.6672 250.675 82.5313 247.975 100.085C247.747 101.484 247.031 102.758 245.953 103.678C244.875 104.598 243.505 105.105 242.089 105.109Z" fill="#E6E6E6"/>
<path d="M201.055 45.1795C200.624 45.178 200.198 45.275 199.809 45.4632C199.421 45.6514 199.081 45.9257 198.814 46.2653C198.54 46.6132 198.349 47.0192 198.255 47.4523C198.161 47.8855 198.167 48.3343 198.272 48.7648C202.167 65.0916 202.167 82.1068 198.273 98.4337C198.167 98.864 198.161 99.3128 198.255 99.7459C198.349 100.179 198.54 100.585 198.814 100.933C199.081 101.272 199.421 101.547 199.809 101.735C200.198 101.923 200.624 102.02 201.055 102.019H242.089C242.769 102.019 243.427 101.778 243.946 101.338C244.465 100.897 244.812 100.287 244.923 99.6155C247.576 82.3729 247.576 64.8256 244.923 47.5829C244.812 46.9112 244.465 46.301 243.946 45.8608C243.427 45.4207 242.769 45.1792 242.089 45.1794L201.055 45.1795Z" fill="white"/>
<path d="M160.27 149.656H119.237C118.3 149.659 117.374 149.448 116.531 149.039C115.687 148.63 114.948 148.033 114.37 147.295C113.781 146.551 113.37 145.682 113.168 144.754C112.965 143.826 112.977 142.865 113.202 141.942C116.974 126.129 116.974 109.649 113.202 93.8349C112.977 92.9126 112.965 91.951 113.168 91.0235C113.37 90.0959 113.781 89.2268 114.37 88.4823C114.948 87.7443 115.687 87.1481 116.531 86.739C117.374 86.3299 118.3 86.1187 119.237 86.1215H160.27C161.748 86.126 163.177 86.6553 164.301 87.6153C165.426 88.5754 166.173 89.9037 166.411 91.3638C169.115 108.944 169.115 126.834 166.411 144.414C166.173 145.874 165.426 147.202 164.301 148.162C163.177 149.122 161.748 149.652 160.27 149.656Z" fill="#F2F2F2"/>
<path d="M233.134 67.7623H211.602C210.783 67.7615 209.998 67.4356 209.419 66.8564C208.841 66.2771 208.515 65.4917 208.514 64.6725V63.465C208.515 62.6458 208.841 61.8604 209.419 61.2812C209.998 60.7019 210.783 60.3761 211.602 60.3752H233.134C233.953 60.3761 234.737 60.7019 235.316 61.2812C235.895 61.8604 236.221 62.6458 236.221 63.465V64.6725C236.221 65.4917 235.895 66.2771 235.316 66.8564C234.737 67.4356 233.953 67.7615 233.134 67.7623Z" fill="#E6E6E6"/>
<path d="M233.134 83.0195H211.602C210.783 83.0186 209.998 82.6928 209.419 82.1135C208.841 81.5342 208.515 80.7488 208.514 79.9296V78.7222C208.515 77.903 208.841 77.1176 209.419 76.5383C209.998 75.959 210.783 75.6332 211.602 75.6323H233.134C233.953 75.6332 234.737 75.959 235.316 76.5383C235.895 77.1176 236.221 77.903 236.221 78.7222V79.9296C236.221 80.7488 235.895 81.5342 235.316 82.1135C234.737 82.6928 233.953 83.0186 233.134 83.0195Z" fill="#E6E6E6"/>
<path d="M139.869 129.521C146.405 129.521 151.704 124.218 151.704 117.676C151.704 111.135 146.405 105.831 139.869 105.831C133.332 105.831 128.033 111.135 128.033 117.676C128.033 124.218 133.332 129.521 139.869 129.521Z" fill="white"/>
<path d="M145.529 116.131H141.412V112.011C141.412 111.602 141.249 111.209 140.96 110.919C140.67 110.629 140.278 110.466 139.868 110.466C139.459 110.466 139.066 110.629 138.777 110.919C138.487 111.209 138.324 111.602 138.324 112.011V116.131H134.208C133.798 116.131 133.406 116.294 133.116 116.584C132.827 116.874 132.664 117.267 132.664 117.676C132.664 118.086 132.827 118.479 133.116 118.769C133.406 119.059 133.798 119.221 134.208 119.221H138.324V123.341C138.324 123.751 138.487 124.144 138.777 124.434C139.066 124.723 139.459 124.886 139.868 124.886C140.278 124.886 140.67 124.723 140.96 124.434C141.249 124.144 141.412 123.751 141.412 123.341V119.221H145.529C145.938 119.221 146.331 119.059 146.62 118.769C146.91 118.479 147.072 118.086 147.072 117.676C147.072 117.267 146.91 116.874 146.62 116.584C146.331 116.294 145.938 116.131 145.529 116.131Z" fill="#E6E6E6"/>
<path d="M154.791 8.75491H133.179C132.565 8.75422 131.976 8.50984 131.542 8.07537C131.108 7.64091 130.864 7.05186 130.863 6.43744V2.31748C130.864 1.70306 131.108 1.114 131.542 0.679538C131.976 0.245076 132.565 0.000692441 133.179 0H154.791C155.405 0.000692441 155.994 0.245076 156.428 0.679538C156.862 1.114 157.106 1.70306 157.107 2.31748V6.43744C157.106 7.05186 156.862 7.64091 156.428 8.07537C155.994 8.50984 155.405 8.75422 154.791 8.75491Z" fill="#CCCCCC"/>
<path d="M233.007 48.4095H211.395C210.781 48.4088 210.192 48.1644 209.758 47.73C209.324 47.2955 209.08 46.7065 209.079 46.092V41.9721C209.08 41.3577 209.324 40.7686 209.758 40.3341C210.192 39.8997 210.781 39.6553 211.395 39.6546H233.007C233.621 39.6553 234.21 39.8997 234.644 40.3341C235.078 40.7686 235.322 41.3577 235.323 41.9721V46.092C235.322 46.7065 235.078 47.2955 234.644 47.73C234.21 48.1644 233.621 48.4088 233.007 48.4095Z" fill="#CCCCCC"/>
<path d="M45.5899 242.594H51.8986L53.871 218.241H45.5889L45.5899 242.594Z" fill="#FFB8B8"/>
<path d="M43.9805 240.533L56.4044 240.532H56.4049C57.4446 240.532 58.4742 240.737 59.4348 241.135C60.3954 241.533 61.2682 242.117 62.0035 242.853C62.7387 243.589 63.3219 244.462 63.7198 245.424C64.1177 246.385 64.3225 247.415 64.3224 248.456V248.713L43.9809 248.714L43.9805 240.533Z" fill="#2F2E41"/>
<path d="M11.6275 242.594H17.9362L20.9378 218.241H11.6265L11.6275 242.594Z" fill="#FFB8B8"/>
<path d="M10.0186 240.533L22.4425 240.532H22.443C23.4827 240.532 24.5123 240.737 25.4729 241.135C26.4335 241.533 27.3063 242.117 28.0416 242.853C28.7768 243.589 29.36 244.462 29.7579 245.424C30.1558 246.385 30.3605 247.415 30.3605 248.456V248.713L10.0189 248.714L10.0186 240.533Z" fill="#2F2E41"/>
<path d="M12.7466 234.901C12.103 234.901 11.4831 234.658 11.0099 234.222C10.7558 233.99 10.5513 233.709 10.4084 233.396C10.2655 233.083 10.1873 232.744 10.1784 232.4L7.64844 141.651L43.5718 150.639L54.6556 183.917C56.0849 188.198 56.7036 192.708 56.48 197.216L55.1037 229.474C55.0724 230.135 54.7878 230.758 54.3092 231.214C53.8306 231.671 53.1948 231.925 52.5337 231.924H46.5085C45.8866 231.922 45.2865 231.695 44.8182 231.286C44.3499 230.876 44.0448 230.311 43.9589 229.695L39.6524 194.087C39.2761 191.309 38.3052 188.646 36.8059 186.278L28.331 172.849C28.2744 172.759 28.1914 172.689 28.0935 172.648C27.9956 172.608 27.8875 172.598 27.784 172.621C27.6805 172.644 27.5867 172.699 27.5153 172.777C27.444 172.856 27.3986 172.955 27.3854 173.06L20.7347 232.33C20.6633 232.931 20.3823 233.488 19.9411 233.902C19.4999 234.316 18.9269 234.561 18.3229 234.594L12.893 234.896C12.8442 234.899 12.7954 234.901 12.7466 234.901Z" fill="#2F2E41"/>
<path d="M37.5942 82.8972C44.5743 82.8972 50.2328 77.2342 50.2328 70.2484C50.2328 63.2627 44.5743 57.5996 37.5942 57.5996C30.6141 57.5996 24.9556 63.2627 24.9556 70.2484C24.9556 77.2342 30.6141 82.8972 37.5942 82.8972Z" fill="#FFB8B8"/>
<path d="M43.3999 154.33C43.1824 154.329 42.9658 154.302 42.7551 154.248L7.11278 145.102C6.47553 144.938 5.92503 144.537 5.57446 143.98C5.22388 143.423 5.09987 142.752 5.22794 142.107L13.4134 97.9762C13.9234 95.4253 15.0444 93.0364 16.6801 91.0145C18.3158 88.9927 20.4174 87.3984 22.8044 86.3685C25.1302 85.3383 27.6737 84.8969 30.2103 85.0833C32.7469 85.2696 35.1987 86.0781 37.3493 87.4372C37.8483 87.7488 38.3509 88.0885 38.8429 88.4471C40.8234 89.9093 42.4386 91.8108 43.5616 94.0025C44.6847 96.1943 45.285 98.6166 45.3157 101.08L45.9666 151.718C45.971 152.059 45.9079 152.397 45.781 152.713C45.654 153.029 45.4658 153.317 45.2272 153.559C44.9885 153.802 44.7042 153.995 44.3905 154.128C44.0769 154.26 43.7402 154.328 43.3999 154.33Z" fill="#228B22"/>
<path d="M10.7799 154.849C10.3547 154.222 10.0719 153.511 9.95136 152.763C9.83082 152.016 9.87551 151.251 10.0823 150.523C10.289 149.794 10.6528 149.12 11.148 148.548C11.6431 147.976 12.2577 147.519 12.9483 147.21L11.363 128.875L19.764 133.432L19.9815 150.145C20.4232 151.34 20.4113 152.656 19.9481 153.844C19.4849 155.031 18.6026 156.007 17.4684 156.587C16.3342 157.167 15.0269 157.31 13.7941 156.99C12.5614 156.669 11.4889 155.908 10.7799 154.849Z" fill="#FFB8B8"/>
<path d="M13.7815 144.785C13.5445 144.785 13.3084 144.755 13.0787 144.696C12.5848 144.57 12.1341 144.313 11.7743 143.951C11.4145 143.59 11.159 143.138 11.0349 142.643L6.90629 126.223C5.46347 120.488 6.15127 114.424 8.84174 109.159L17.4912 92.2251C18.038 90.1976 19.3591 88.4664 21.1696 87.4049C22.9801 86.3434 25.135 86.0365 27.1695 86.5506C28.1835 86.8068 29.1367 87.262 29.9736 87.8897C30.8105 88.5175 31.5146 89.3052 32.0451 90.2073C32.5864 91.1224 32.9404 92.136 33.0866 93.1893C33.2327 94.2426 33.168 95.3145 32.8962 96.3425L20.5836 123.898L20.7298 140.396C20.7336 140.978 20.5588 141.547 20.2289 142.027C19.899 142.506 19.43 142.872 18.8853 143.076L14.7649 144.608C14.4503 144.725 14.1173 144.785 13.7815 144.785Z" fill="#228B22"/>
<path d="M72.7194 148.105C71.9678 148.019 71.2442 147.769 70.5996 147.373C69.9549 146.977 69.4049 146.444 68.9882 145.812C68.5715 145.18 68.2984 144.464 68.1879 143.715C68.0775 142.966 68.1325 142.202 68.3491 141.477L53.4297 130.719L62.361 127.319L75.1595 138.056C76.353 138.501 77.342 139.369 77.9391 140.495C78.5361 141.62 78.6998 142.926 78.399 144.165C78.0983 145.404 77.354 146.489 76.3072 147.215C75.2604 147.941 73.9838 148.258 72.7194 148.105Z" fill="#FFB8B8"/>
<path d="M64.9087 140.249C64.4689 140.249 64.0351 140.146 63.6415 139.949L48.5133 132.37C43.2293 129.723 39.0855 125.246 36.8526 119.77L29.6705 102.163C28.4919 100.425 28.0427 98.2937 28.4198 96.2278C28.7969 94.1619 29.9701 92.3271 31.6865 91.1189C32.544 90.5154 33.513 90.0888 34.537 89.8639C35.5609 89.639 36.6194 89.6204 37.6506 89.809C38.694 89.9968 39.6897 90.3899 40.5802 90.9656C41.4706 91.5413 42.238 92.2881 42.838 93.1628L55.6742 120.478L68.2638 131.129C68.7071 131.506 69.0242 132.01 69.172 132.573C69.3199 133.136 69.2915 133.731 69.0906 134.277L67.5624 138.401C67.3629 138.942 67.0025 139.409 66.5297 139.738C66.0545 140.071 65.4886 140.249 64.9087 140.249Z" fill="#228B22"/>
<path d="M34.9398 83.0909C35.6113 83.3849 36.9865 78.0299 36.3705 76.9588C35.4544 75.3659 35.5086 75.3774 34.9004 74.3236C34.2923 73.2697 34.1562 71.8273 34.9437 70.9001C35.7313 69.9728 37.5537 70.0958 37.9131 71.2584C37.6819 69.0502 39.8643 67.2752 42.0261 66.7763C44.1879 66.2775 46.4682 66.5872 48.6419 66.1433C51.1646 65.6282 53.7893 63.5119 52.7828 60.7355C52.6101 60.2733 52.3515 59.848 52.0207 59.482C50.8578 58.1734 49.2311 57.6147 47.6406 57.0744C44.3318 55.9504 40.9325 54.8124 37.4405 54.9364C34.5633 55.087 31.7924 56.0737 29.4668 57.7758C27.1412 59.478 25.3618 61.8216 24.3464 64.5201C24.1057 65.1952 23.9193 65.8884 23.7889 66.5931C22.5903 73.0431 26.3328 79.4051 32.4113 81.8613L34.9398 83.0909Z" fill="#2F2E41"/>
<path opacity="0.2" d="M20.0171 140.77L20.3037 123.812L29.2795 105.751L22.0754 124.29L20.0171 140.77Z" fill="black"/>
<path d="M101.412 183.329L63.5193 167.573C62.6887 167.23 61.9471 166.703 61.3509 166.03C60.7547 165.358 60.3196 164.558 60.0788 163.692C59.8312 162.816 59.7866 161.894 59.9484 160.998C60.1102 160.102 60.4741 159.255 61.0125 158.521C70.5825 145.334 76.9164 130.077 79.5015 113.985C79.6415 113.085 79.9847 112.229 80.5049 111.482C81.0252 110.735 81.7088 110.117 82.5038 109.674C83.287 109.234 84.1603 108.978 85.0572 108.927C85.954 108.875 86.8508 109.029 87.6793 109.376L125.572 125.133C126.879 125.681 127.949 126.675 128.592 127.938C129.234 129.202 129.408 130.653 129.082 132.033C124.846 149.28 117.997 165.777 108.774 180.95C108.027 182.155 106.877 183.055 105.529 183.491C104.181 183.927 102.722 183.869 101.412 183.329Z" fill="#E6E6E6"/>
<path d="M86.4944 112.23C86.0966 112.063 85.666 111.989 85.2353 112.013C84.8045 112.038 84.3851 112.161 84.0089 112.372C83.6222 112.588 83.2898 112.889 83.037 113.253C82.7841 113.617 82.6176 114.034 82.5499 114.472C79.8875 131.045 73.3644 146.758 63.5084 160.34C63.2459 160.696 63.0683 161.109 62.989 161.545C62.9097 161.981 62.9308 162.429 63.0507 162.855C63.1664 163.271 63.3756 163.656 63.662 163.979C63.9484 164.302 64.3046 164.555 64.7036 164.719L102.596 180.476C103.225 180.737 103.925 180.767 104.573 180.56C105.221 180.353 105.775 179.922 106.136 179.345C115.195 164.44 121.923 148.236 126.084 131.294C126.238 130.631 126.152 129.935 125.842 129.329C125.531 128.723 125.016 128.247 124.387 127.986L86.4944 112.23Z" fill="white"/>
<path d="M106.671 147.305L86.786 139.036C86.0305 138.721 85.4307 138.119 85.1183 137.362C84.8058 136.605 84.8063 135.754 85.1195 134.997L85.5824 133.882C85.8973 133.126 86.4991 132.526 87.2556 132.213C88.0122 131.901 88.8618 131.901 89.6181 132.215L109.503 140.483C110.258 140.798 110.858 141.4 111.17 142.158C111.483 142.915 111.482 143.765 111.169 144.522L110.706 145.637C110.391 146.393 109.79 146.993 109.033 147.306C108.276 147.619 107.427 147.618 106.671 147.305Z" fill="#228B22"/>
<path d="M100.822 161.394L80.9369 153.126C80.1813 152.811 79.5816 152.208 79.2691 151.451C78.9567 150.694 78.9572 149.844 79.2704 149.087L79.7333 147.972C80.0482 147.216 80.65 146.615 81.4065 146.303C82.1631 145.99 83.0127 145.99 83.769 146.304L103.654 154.572C104.409 154.888 105.009 155.49 105.321 156.247C105.634 157.004 105.633 157.854 105.32 158.611L104.857 159.726C104.542 160.483 103.941 161.083 103.184 161.395C102.427 161.708 101.578 161.708 100.822 161.394Z" fill="#228B22"/>
<path d="M114.638 127.503C114.341 127.503 114.046 127.445 113.77 127.333L93.7335 119.226C93.1646 118.995 92.7105 118.548 92.4707 117.982C92.231 117.416 92.2252 116.779 92.4546 116.209L93.9977 112.389C94.228 111.819 94.6749 111.364 95.2403 111.124C95.8056 110.884 96.4431 110.879 97.0124 111.109L117.049 119.217C117.618 119.448 118.072 119.895 118.312 120.461C118.552 121.026 118.557 121.664 118.328 122.234L116.785 126.054C116.612 126.481 116.315 126.848 115.932 127.106C115.55 127.364 115.1 127.503 114.638 127.503Z" fill="#CCCCCC"/>
<path d="M72.5557 249H0.514579C0.378104 249 0.247227 248.946 0.150724 248.849C0.0542219 248.753 0 248.622 0 248.485C0 248.348 0.0542219 248.217 0.150724 248.121C0.247227 248.024 0.378104 247.97 0.514579 247.97H72.5557C72.6922 247.97 72.8231 248.024 72.9196 248.121C73.0161 248.217 73.0703 248.348 73.0703 248.485C73.0703 248.622 73.0161 248.753 72.9196 248.849C72.8231 248.946 72.6922 249 72.5557 249Z" fill="#CCCCCC"/>
</g>
<defs>
<clipPath id="clip0_2112_5802">
<rect width="250" height="249" fill="white"/>
</clipPath>
</defs>
</svg>
