<svg width="250" height="244" viewBox="0 0 250 244" fill="none" xmlns="http://www.w3.org/2000/svg">
<g clip-path="url(#clip0_2112_5790)">
<path d="M158.71 54.8748H91.3462C89.8111 54.8766 88.3394 55.4872 87.2539 56.5726C86.1684 57.6579 85.5578 59.1294 85.5559 60.6643V210.363L84.7839 210.598L68.2584 215.658C67.4752 215.897 66.6292 215.815 65.9063 215.431C65.1833 215.047 64.6423 214.391 64.4021 213.609L15.2463 53.0646C15.0071 52.2815 15.0886 51.4355 15.473 50.7124C15.8574 49.9894 16.5131 49.4486 17.2961 49.2087L42.7619 41.4121L116.588 18.8175L142.054 11.0209C142.441 10.9016 142.848 10.86 143.252 10.8982C143.656 10.9365 144.048 11.0541 144.406 11.2441C144.764 11.4341 145.082 11.6928 145.34 12.0056C145.598 12.3183 145.791 12.6788 145.91 13.0665L158.475 54.1028L158.71 54.8748Z" fill="#F2F2F2"/>
<path d="M173.41 54.1028L158.266 4.64467C158.014 3.8206 157.602 3.05425 157.054 2.38941C156.506 1.72457 155.832 1.17426 155.071 0.769944C154.31 0.365624 153.477 0.115209 152.619 0.033017C151.761 -0.0491748 150.895 0.0384676 150.071 0.290927L114.268 11.2486L40.4457 33.8471L4.64239 44.8087C2.97916 45.3193 1.58651 46.469 0.770138 48.0052C-0.0462391 49.5415 -0.219649 51.3389 0.287979 53.0028L52.0455 222.031C52.4578 223.374 53.2899 224.549 54.4196 225.385C55.5492 226.221 56.917 226.672 58.3222 226.674C58.9726 226.674 59.6193 226.577 60.2406 226.384L84.7838 218.873L85.5558 218.634V217.827L84.7838 218.063L60.013 225.647C58.5448 226.095 56.9592 225.942 55.6037 225.222C54.2483 224.502 53.2338 223.274 52.7828 221.807L1.02929 52.7751C0.805823 52.0483 0.727938 51.2845 0.800095 50.5276C0.872252 49.7706 1.09303 49.0353 1.44979 48.3638C1.80656 47.6923 2.29231 47.0978 2.87921 46.6142C3.46611 46.1307 4.14265 45.7676 4.87007 45.5459L40.6733 34.5843L114.496 11.9897L150.299 1.02814C150.851 0.859776 151.424 0.773933 152.001 0.773395C153.239 0.776174 154.444 1.17525 155.439 1.91217C156.433 2.64909 157.166 3.68513 157.529 4.86853L172.603 54.1028L172.842 54.8748H173.645L173.41 54.1028Z" fill="#3F3D56"/>
<path d="M47.3572 49.335C46.6132 49.3345 45.8889 49.0955 45.2907 48.6533C44.6924 48.211 44.2517 47.5887 44.0331 46.8776L39.061 30.6392C38.9274 30.203 38.881 29.7448 38.9245 29.2907C38.9681 28.8366 39.1006 28.3955 39.3147 27.9926C39.5287 27.5897 39.8201 27.233 40.172 26.9427C40.524 26.6524 40.9297 26.4343 41.366 26.3008L109.282 5.51102C110.163 5.2422 111.115 5.33388 111.928 5.76594C112.742 6.19799 113.35 6.93511 113.621 7.81553L118.593 24.0541C118.862 24.9351 118.77 25.8866 118.338 26.7C117.906 27.5133 117.169 28.1221 116.288 28.3927L48.3722 49.1825C48.0433 49.2834 47.7012 49.3348 47.3572 49.335Z" fill="#228B22"/>
<path d="M73.403 17.3511C77.6669 17.3511 81.1234 13.8951 81.1234 9.63175C81.1234 5.36844 77.6669 1.91235 73.403 1.91235C69.1392 1.91235 65.6826 5.36844 65.6826 9.63175C65.6826 13.8951 69.1392 17.3511 73.403 17.3511Z" fill="#228B22"/>
<path d="M73.4029 14.5199C76.1029 14.5199 78.2917 12.3314 78.2917 9.63175C78.2917 6.9321 76.1029 4.74359 73.4029 4.74359C70.7029 4.74359 68.5142 6.9321 68.5142 9.63175C68.5142 12.3314 70.7029 14.5199 73.4029 14.5199Z" fill="white"/>
<path d="M232.629 224.702H102.155C101.285 224.701 100.451 224.355 99.8357 223.74C99.2205 223.124 98.8745 222.291 98.8735 221.421V65.103C98.8745 64.2332 99.2205 63.3993 99.8356 62.7842C100.451 62.1692 101.285 61.8232 102.155 61.8223H232.629C233.499 61.8233 234.333 62.1692 234.948 62.7843C235.563 63.3993 235.909 64.2332 235.91 65.103V221.421C235.909 222.291 235.563 223.124 234.948 223.739C234.333 224.355 233.499 224.701 232.629 224.702Z" fill="#E6E6E6"/>
<path d="M172.603 54.1028H91.346C89.6063 54.1053 87.9386 54.7974 86.7085 56.0274C85.4783 57.2574 84.7862 58.9249 84.7837 60.6643V218.063L85.5557 217.827V60.6643C85.5576 59.1294 86.1682 57.6579 87.2537 56.5726C88.3392 55.4872 89.8109 54.8767 91.346 54.8748H172.842L172.603 54.1028ZM243.438 54.1028H91.346C89.6063 54.1053 87.9386 54.7974 86.7085 56.0274C85.4783 57.2574 84.7862 58.9249 84.7837 60.6643V237.438C84.7862 239.178 85.4783 240.845 86.7085 242.075C87.9386 243.305 89.6063 243.998 91.346 244H243.438C245.177 243.998 246.845 243.305 248.075 242.075C249.305 240.845 249.997 239.178 250 237.438V60.6643C249.997 58.9249 249.305 57.2574 248.075 56.0274C246.845 54.7974 245.177 54.1053 243.438 54.1028ZM249.228 237.438C249.226 238.973 248.615 240.445 247.53 241.53C246.444 242.616 244.973 243.226 243.438 243.228H91.346C89.8109 243.226 88.3392 242.616 87.2537 241.53C86.1682 240.445 85.5576 238.973 85.5557 237.438V60.6643C85.5576 59.1294 86.1682 57.6579 87.2537 56.5726C88.3392 55.4872 89.8109 54.8767 91.346 54.8748H243.438C244.973 54.8767 246.444 55.4872 247.53 56.5726C248.615 57.6579 249.226 59.1294 249.228 60.6643V237.438Z" fill="#3F3D56"/>
<path d="M202.906 71.0855H131.878C130.957 71.0845 130.074 70.7182 129.423 70.0669C128.771 69.4157 128.405 68.5328 128.404 67.6118V50.6291C128.405 49.7082 128.771 48.8252 129.423 48.174C130.074 47.5227 130.957 47.1564 131.878 47.1554H202.906C203.827 47.1564 204.71 47.5227 205.361 48.174C206.013 48.8252 206.379 49.7082 206.38 50.6291V67.6118C206.379 68.5328 206.013 69.4157 205.361 70.0669C204.71 70.7182 203.827 71.0845 202.906 71.0855Z" fill="#228B22"/>
<path d="M167.392 48.3133C171.656 48.3133 175.112 44.8572 175.112 40.5939C175.112 36.3306 171.656 32.8745 167.392 32.8745C163.128 32.8745 159.672 36.3306 159.672 40.5939C159.672 44.8572 163.128 48.3133 167.392 48.3133Z" fill="#228B22"/>
<path d="M167.392 45.2958C169.989 45.2958 172.094 43.1907 172.094 40.5939C172.094 37.9972 169.989 35.8921 167.392 35.8921C164.795 35.8921 162.689 37.9972 162.689 40.5939C162.689 43.1907 164.795 45.2958 167.392 45.2958Z" fill="white"/>
</g>
<defs>
<clipPath id="clip0_2112_5790">
<rect width="250" height="244" fill="white"/>
</clipPath>
</defs>
</svg>
