<svg width="120" height="13" viewBox="0 0 120 13" fill="none" xmlns="http://www.w3.org/2000/svg">
<path d="M0 12.5V0.863636H5.02273C5.88636 0.863636 6.64205 1.03409 7.28977 1.375C7.9375 1.71591 8.44129 2.19508 8.80114 2.8125C9.16098 3.42992 9.34091 4.15151 9.34091 4.97727C9.34091 5.81061 9.1553 6.5322 8.78409 7.14205C8.41667 7.75189 7.89962 8.22159 7.23295 8.55114C6.57008 8.88068 5.79545 9.04545 4.90909 9.04545H1.90909V6.59091H4.27273C4.64394 6.59091 4.96023 6.52652 5.22159 6.39773C5.48674 6.26515 5.68939 6.07765 5.82955 5.83523C5.97349 5.5928 6.04545 5.30682 6.04545 4.97727C6.04545 4.64394 5.97349 4.35985 5.82955 4.125C5.68939 3.88636 5.48674 3.70455 5.22159 3.57955C4.96023 3.45076 4.64394 3.38636 4.27273 3.38636H3.15909V12.5H0ZM10.5455 12.5V3.77273H13.6818V12.5H10.5455ZM12.1136 2.86364C11.6894 2.86364 11.3258 2.72348 11.0227 2.44318C10.7197 2.16288 10.5682 1.82576 10.5682 1.43182C10.5682 1.03788 10.7197 0.700757 11.0227 0.420454C11.3258 0.140151 11.6894 0 12.1136 0C12.5417 0 12.9053 0.140151 13.2045 0.420454C13.5076 0.700757 13.6591 1.03788 13.6591 1.43182C13.6591 1.82576 13.5076 2.16288 13.2045 2.44318C12.9053 2.72348 12.5417 2.86364 12.1136 2.86364ZM19.4844 12.6591C18.5374 12.6591 17.7268 12.4716 17.0526 12.0966C16.3783 11.7178 15.8613 11.1913 15.5014 10.517C15.1416 9.83902 14.9616 9.05303 14.9616 8.15909C14.9616 7.26515 15.1416 6.48106 15.5014 5.80682C15.8613 5.12879 16.3783 4.60227 17.0526 4.22727C17.7268 3.84848 18.5374 3.65909 19.4844 3.65909C20.3404 3.65909 21.081 3.81439 21.706 4.125C22.3348 4.43182 22.8215 4.86742 23.1662 5.43182C23.5109 5.99242 23.6851 6.65152 23.6889 7.40909H20.7798C20.7382 6.95076 20.6056 6.60227 20.3821 6.36364C20.1624 6.12121 19.8783 6 19.5298 6C19.2571 6 19.0185 6.07955 18.8139 6.23864C18.6094 6.39394 18.4503 6.63068 18.3366 6.94886C18.223 7.26326 18.1662 7.65909 18.1662 8.13636C18.1662 8.61364 18.223 9.01136 18.3366 9.32955C18.4503 9.64394 18.6094 9.88068 18.8139 10.0398C19.0185 10.1951 19.2571 10.2727 19.5298 10.2727C19.7609 10.2727 19.9654 10.2197 20.1435 10.1136C20.3215 10.0038 20.4654 9.8447 20.5753 9.63636C20.6889 9.42424 20.7571 9.16667 20.7798 8.86364H23.6889C23.6776 9.63258 23.5014 10.303 23.1605 10.875C22.8196 11.4432 22.3366 11.8826 21.7116 12.1932C21.0904 12.5038 20.348 12.6591 19.4844 12.6591ZM27.8011 10.4318L27.8239 6.70455H28.233L30.3466 3.77273H33.8693L30.3239 8.34091H29.4375L27.8011 10.4318ZM24.983 12.5V0.863636H28.1193V12.5H24.983ZM30.3693 12.5L28.3693 9.04545L30.4148 6.81818L33.9602 12.5H30.3693ZM34.6406 12.5V0.863636H43.027V3.40909H37.7997V5.40909H42.5952V7.95455H37.7997V9.95455H43.0043V12.5H34.6406ZM47.6165 12.5H44.2074L48.0483 0.863636H52.3665L56.2074 12.5H52.7983L50.2528 4.06818H50.1619L47.6165 12.5ZM46.9801 7.90909H53.3892V10.2727H46.9801V7.90909ZM55.5412 3.40909V0.863636H65.6548V3.40909H62.1548V12.5H59.0412V3.40909H55.5412ZM70.0312 12.5V0.863636H75.054C75.9176 0.863636 76.6733 1.03409 77.321 1.375C77.9688 1.71591 78.4725 2.19508 78.8324 2.8125C79.1922 3.42992 79.3722 4.15151 79.3722 4.97727C79.3722 5.81061 79.1866 6.5322 78.8153 7.14205C78.4479 7.75189 77.9309 8.22159 77.2642 8.55114C76.6013 8.88068 75.8267 9.04545 74.9403 9.04545H71.9403V6.59091H74.304C74.6752 6.59091 74.9915 6.52652 75.2528 6.39773C75.518 6.26515 75.7206 6.07765 75.8608 5.83523C76.0047 5.5928 76.0767 5.30682 76.0767 4.97727C76.0767 4.64394 76.0047 4.35985 75.8608 4.125C75.7206 3.88636 75.518 3.70455 75.2528 3.57955C74.9915 3.45076 74.6752 3.38636 74.304 3.38636H73.1903V12.5H70.0312ZM80.5767 12.5V3.77273H83.7131V12.5H80.5767ZM82.1449 2.86364C81.7206 2.86364 81.357 2.72348 81.054 2.44318C80.7509 2.16288 80.5994 1.82576 80.5994 1.43182C80.5994 1.03788 80.7509 0.700757 81.054 0.420454C81.357 0.140151 81.7206 0 82.1449 0C82.5729 0 82.9366 0.140151 83.2358 0.420454C83.5388 0.700757 83.6903 1.03788 83.6903 1.43182C83.6903 1.82576 83.5388 2.16288 83.2358 2.44318C82.9366 2.72348 82.5729 2.86364 82.1449 2.86364ZM89.5156 12.6591C88.5687 12.6591 87.758 12.4716 87.0838 12.0966C86.4096 11.7178 85.8925 11.1913 85.5327 10.517C85.1728 9.83902 84.9929 9.05303 84.9929 8.15909C84.9929 7.26515 85.1728 6.48106 85.5327 5.80682C85.8925 5.12879 86.4096 4.60227 87.0838 4.22727C87.758 3.84848 88.5687 3.65909 89.5156 3.65909C90.3717 3.65909 91.1122 3.81439 91.7372 4.125C92.366 4.43182 92.8527 4.86742 93.1974 5.43182C93.5421 5.99242 93.7164 6.65152 93.7202 7.40909H90.8111C90.7694 6.95076 90.6368 6.60227 90.4134 6.36364C90.1937 6.12121 89.9096 6 89.5611 6C89.2884 6 89.0497 6.07955 88.8452 6.23864C88.6406 6.39394 88.4815 6.63068 88.3679 6.94886C88.2543 7.26326 88.1974 7.65909 88.1974 8.13636C88.1974 8.61364 88.2543 9.01136 88.3679 9.32955C88.4815 9.64394 88.6406 9.88068 88.8452 10.0398C89.0497 10.1951 89.2884 10.2727 89.5611 10.2727C89.7921 10.2727 89.9967 10.2197 90.1747 10.1136C90.3527 10.0038 90.4967 9.8447 90.6065 9.63636C90.7202 9.42424 90.7884 9.16667 90.8111 8.86364H93.7202C93.7088 9.63258 93.5327 10.303 93.1918 10.875C92.8509 11.4432 92.3679 11.8826 91.7429 12.1932C91.1217 12.5038 90.3793 12.6591 89.5156 12.6591ZM97.8324 10.4318L97.8551 6.70455H98.2642L100.378 3.77273H103.901L100.355 8.34091H99.4688L97.8324 10.4318ZM95.0142 12.5V0.863636H98.1506V12.5H95.0142ZM100.401 12.5L98.4006 9.04545L100.446 6.81818L103.991 12.5H100.401ZM107.831 0.863636V12.5H104.672V0.863636H107.831ZM109.01 3.40909V0.863636H119.124V3.40909H115.624V12.5H112.51V3.40909H109.01Z" fill="#228B22"/>
</svg>
