<svg width="25" height="25" viewBox="0 0 25 25" fill="none" xmlns="http://www.w3.org/2000/svg">
<path d="M12.5001 12.5C13.4473 12.5 14.3557 12.1237 15.0255 11.454C15.6952 10.7842 16.0715 9.87577 16.0715 8.92857V6.54762C16.0715 5.60042 15.6952 4.69201 15.0255 4.02224C14.3557 3.35246 13.4473 2.97619 12.5001 2.97619C11.5529 2.97619 10.6445 3.35246 9.9747 4.02224C9.30493 4.69201 8.92865 5.60042 8.92865 6.54762V8.92857C8.92865 9.87577 9.30493 10.7842 9.9747 11.454C10.6445 12.1237 11.5529 12.5 12.5001 12.5ZM12.5001 12.5C16.4453 12.5 20.8334 14.9821 20.8334 18.7762V19.6429C20.8334 19.9586 20.708 20.2614 20.4847 20.4846C20.2615 20.7079 19.9587 20.8333 19.6429 20.8333H5.35722C5.04149 20.8333 4.73869 20.7079 4.51543 20.4846C4.29217 20.2614 4.16675 19.9586 4.16675 19.6429V18.7762C4.16675 14.9821 8.55484 12.5 12.5001 12.5Z" stroke="#228B22" stroke-width="1.5" stroke-linecap="round" stroke-linejoin="round"/>
</svg>
