<svg width="300" height="223" viewBox="0 0 300 223" fill="none" xmlns="http://www.w3.org/2000/svg">
<g clip-path="url(#clip0_2108_5154)">
<path d="M282.222 201.238C279.43 201.238 276.753 202.349 274.778 204.327C272.804 206.305 271.695 208.988 271.695 211.785C271.695 214.583 272.804 217.265 274.778 219.243C276.753 221.221 279.43 222.333 282.222 222.333C285.014 222.333 287.691 221.221 289.665 219.243C291.639 217.265 292.749 214.583 292.749 211.785C292.749 208.988 291.639 206.305 289.665 204.327C287.691 202.349 285.014 201.238 282.222 201.238Z" fill="#CCCCCC"/>
<path d="M281.223 216.166C280.946 216.166 280.676 216.076 280.455 215.91L280.441 215.899L277.546 213.681C277.412 213.578 277.299 213.449 277.215 213.303C277.13 213.156 277.075 212.994 277.053 212.826C277.031 212.658 277.042 212.488 277.086 212.324C277.129 212.161 277.205 212.007 277.307 211.873C277.41 211.739 277.539 211.626 277.685 211.541C277.831 211.456 277.993 211.401 278.16 211.379C278.328 211.357 278.498 211.368 278.661 211.412C278.824 211.456 278.977 211.532 279.112 211.635L280.987 213.075L285.417 207.283C285.52 207.149 285.648 207.036 285.794 206.952C285.941 206.867 286.102 206.812 286.27 206.79C286.437 206.768 286.607 206.779 286.77 206.823C286.933 206.866 287.086 206.942 287.22 207.045L287.221 207.045L287.193 207.083L287.221 207.045C287.492 207.253 287.669 207.56 287.713 207.899C287.758 208.238 287.666 208.581 287.459 208.852L282.248 215.661C282.127 215.818 281.972 215.945 281.795 216.033C281.617 216.12 281.422 216.165 281.224 216.164L281.223 216.166Z" fill="white"/>
<path d="M259.303 218.115L254.319 218.114L251.949 198.852L259.305 198.853L259.303 218.115Z" fill="#FFB8B8"/>
<path d="M250.759 216.687H260.371V222.751H244.707C244.707 221.955 244.864 221.166 245.168 220.431C245.472 219.695 245.918 219.026 246.48 218.463C247.042 217.9 247.709 217.454 248.443 217.149C249.177 216.844 249.964 216.687 250.759 216.687Z" fill="#2F2E41"/>
<path d="M239.466 218.115L234.482 218.114L232.112 198.852L239.468 198.853L239.466 218.115Z" fill="#FFB8B8"/>
<path d="M230.922 216.687H240.534V222.751H224.87C224.87 221.955 225.027 221.166 225.331 220.431C225.635 219.695 226.081 219.026 226.643 218.463C227.205 217.9 227.872 217.454 228.606 217.149C229.34 216.844 230.127 216.687 230.922 216.687Z" fill="#2F2E41"/>
<path d="M263.143 151.52C262.741 151.076 262.442 150.55 262.266 149.977C262.09 149.405 262.042 148.801 262.124 148.208C262.206 147.615 262.417 147.047 262.742 146.544C263.067 146.042 263.497 145.617 264.004 145.299L262.46 136.067L267.831 133.759L269.828 146.827C270.304 147.715 270.439 148.747 270.206 149.728C269.973 150.709 269.39 151.57 268.566 152.149C267.742 152.727 266.734 152.983 265.735 152.867C264.735 152.751 263.813 152.272 263.143 151.52Z" fill="#FFB8B8"/>
<path d="M221.099 147.158C221.568 146.787 221.95 146.317 222.218 145.782C222.486 145.246 222.633 144.659 222.65 144.06C222.667 143.462 222.552 142.867 222.315 142.317C222.077 141.768 221.722 141.277 221.275 140.88L224.32 132.03L219.404 128.865L215.28 141.422C214.664 142.219 214.361 143.215 214.428 144.221C214.496 145.227 214.929 146.173 215.647 146.88C216.364 147.587 217.315 148.006 218.32 148.057C219.325 148.108 220.314 147.789 221.099 147.158Z" fill="#FFB8B8"/>
<path d="M246.625 81.9665C252.538 81.9665 257.332 77.163 257.332 71.2376C257.332 65.3122 252.538 60.5087 246.625 60.5087C240.711 60.5087 235.917 65.3122 235.917 71.2376C235.917 77.163 240.711 81.9665 246.625 81.9665Z" fill="#FFB8B8"/>
<path d="M220.768 140.538C220.584 140.538 220.402 140.512 220.225 140.461L217.104 139.563C216.606 139.419 216.185 139.083 215.932 138.628C215.68 138.174 215.618 137.638 215.758 137.138L222.199 114.352L231.18 92.2596C232.074 90.0633 233.94 88.6229 236.05 88.5007C237.014 88.4535 237.971 88.6874 238.805 89.174C239.639 89.6607 240.314 90.3792 240.749 91.2426C241.232 92.1666 241.497 93.1893 241.524 94.2321C241.551 95.2749 241.339 96.31 240.905 97.2579L230.696 119.628L222.58 139.322C222.432 139.681 222.181 139.989 221.858 140.205C221.536 140.422 221.156 140.537 220.768 140.538Z" fill="#228B22"/>
<path d="M252.667 80.235L246.718 80.341C246.098 80.3532 245.484 80.2194 244.926 79.9502C244.367 79.6811 243.879 79.2842 243.502 78.7915C243.125 78.2989 242.868 77.7243 242.753 77.114C242.638 76.5038 242.667 75.875 242.839 75.2783C242.967 74.8472 243.062 74.4073 243.125 73.9622C243.192 73.4769 243.205 72.9856 243.164 72.4973C243.127 72.0084 242.924 71.5468 242.59 71.1883C242.256 70.8298 241.811 70.5955 241.327 70.524C240.843 70.4525 240.349 70.5479 239.926 70.7947C239.503 71.0415 239.176 71.4249 238.999 71.8821C237.999 71.8964 235.868 71.5696 234.867 71.5839C232.743 66.128 237.372 58.9888 242.354 56.3073C247.434 53.5736 254.027 56.3548 255.974 62.0523C258.677 62.101 260.872 64.7714 261.22 67.7775C261.569 70.7836 260.334 73.9225 258.446 76.2265C256.558 78.5305 254.079 80.2099 252.667 80.235Z" fill="#2F2E41"/>
<path d="M233.111 216.316C232.628 216.314 232.164 216.134 231.806 215.811C231.447 215.488 231.219 215.045 231.165 214.565L228.958 140.201L256.767 142.185L256.788 142.364C263.073 195.073 260.924 213.318 260.902 213.496C260.886 213.766 260.816 214.03 260.694 214.271C260.572 214.512 260.402 214.725 260.195 214.897C259.987 215.07 259.746 215.197 259.487 215.272C259.228 215.347 258.956 215.367 258.689 215.332L252.544 215.48C252.078 215.427 251.646 215.209 251.327 214.864C251.008 214.52 250.823 214.073 250.805 213.603L245.062 159.743C245.027 159.603 244.943 159.48 244.826 159.396C244.71 159.311 244.567 159.271 244.423 159.281C244.275 159.281 244.132 159.332 244.017 159.426C243.903 159.52 243.825 159.65 243.796 159.796L241.577 213.833C241.601 214.334 241.431 214.826 241.103 215.205C240.775 215.585 240.314 215.824 239.815 215.873L233.305 216.306C233.241 216.313 233.176 216.316 233.111 216.316Z" fill="#2F2E41"/>
<path d="M244.65 149.087C244.483 149.087 244.317 149.084 244.151 149.079C236.154 148.838 229.898 142.776 228.171 140.924C227.952 140.688 227.793 140.401 227.711 140.088C227.629 139.776 227.625 139.448 227.7 139.134L232.313 119.58L231.089 102.58C230.897 100.22 231.206 97.847 231.995 95.6159C232.785 93.3847 234.037 91.3464 235.669 89.6352C237.03 88.1953 238.683 87.0653 240.517 86.3217C242.352 85.5782 244.324 85.2385 246.301 85.3256C254.085 85.6978 260.226 92.6693 260.281 101.197C260.368 114.404 259.98 115.311 259.852 115.61C255.967 124.694 258.089 137.446 258.832 141.138C258.898 141.468 258.879 141.809 258.777 142.129C258.675 142.449 258.493 142.738 258.249 142.968C253.976 147.029 249.403 149.086 244.65 149.087Z" fill="#228B22"/>
<path d="M264.732 144.116C264.288 144.116 263.858 143.965 263.511 143.687C263.164 143.41 262.921 143.023 262.822 142.59L258.063 121.816L251.685 98.0708C251.412 97.064 251.374 96.008 251.572 94.984C251.771 93.9599 252.201 92.9952 252.83 92.1638C253.401 91.3847 254.186 90.7881 255.088 90.4462C255.991 90.1043 256.973 90.0318 257.916 90.2373C259.978 90.7074 261.58 92.4368 262.099 94.7509L267.311 118.003L269.91 141.566C269.966 142.082 269.816 142.6 269.492 143.007C269.169 143.413 268.698 143.674 268.183 143.734L264.957 144.103C264.882 144.112 264.807 144.116 264.732 144.116Z" fill="#228B22"/>
<path d="M127.737 22.715H11.335C8.32877 22.715 5.44566 21.5184 3.31994 19.3885C1.19421 17.2585 0 14.3697 0 11.3575C0 8.3453 1.19421 5.45647 3.31994 3.32653C5.44566 1.19659 8.32877 0 11.335 0H127.737C130.743 0 133.626 1.19659 135.752 3.32653C137.878 5.45647 139.072 8.3453 139.072 11.3575C139.072 14.3697 137.878 17.2585 135.752 19.3885C133.626 21.5184 130.743 22.715 127.737 22.715Z" fill="#E6E6E6"/>
<path d="M11.3354 3.71303C9.31196 3.71303 7.37141 4.51842 5.94064 5.95204C4.50986 7.38565 3.70605 9.33006 3.70605 11.3575C3.70605 13.3849 4.50986 15.3293 5.94064 16.763C7.37141 18.1966 9.31196 19.002 11.3354 19.002H127.737C129.761 19.002 131.701 18.1966 133.132 16.763C134.563 15.3293 135.366 13.3849 135.366 11.3575C135.366 9.33006 134.563 7.38565 133.132 5.95204C131.701 4.51842 129.761 3.71303 127.737 3.71303H11.3354Z" fill="white"/>
<path d="M168.871 0.734352C166.08 0.734342 163.402 1.84558 161.428 3.82361C159.454 5.80163 158.345 8.48442 158.345 11.2818C158.345 14.0791 159.454 16.7619 161.428 18.74C163.402 20.718 166.079 21.8293 168.871 21.8293C171.663 21.8293 174.341 20.718 176.315 18.74C178.289 16.762 179.398 14.0792 179.398 11.2818C179.398 8.48446 178.289 5.80167 176.315 3.82363C174.341 1.8456 171.663 0.734352 168.871 0.734352Z" fill="#228B22"/>
<path d="M167.873 15.6623C167.596 15.6627 167.326 15.5729 167.104 15.4063L167.09 15.396L164.196 13.1771C164.061 13.0742 163.949 12.9458 163.864 12.7992C163.78 12.6526 163.725 12.4908 163.703 12.3229C163.68 12.1551 163.691 11.9845 163.735 11.8209C163.779 11.6573 163.854 11.504 163.957 11.3696C164.06 11.2352 164.188 11.1225 164.334 11.0378C164.481 10.9531 164.642 10.8981 164.81 10.8759C164.977 10.8538 165.147 10.8649 165.311 10.9087C165.474 10.9526 165.627 11.0281 165.761 11.1312L167.636 12.5719L172.067 6.78C172.17 6.64572 172.298 6.53303 172.444 6.44837C172.59 6.3637 172.752 6.30872 172.919 6.28656C173.086 6.2644 173.256 6.2755 173.42 6.31923C173.583 6.36295 173.736 6.43845 173.87 6.54139L173.87 6.54167L173.843 6.57993L173.871 6.54167C174.141 6.74988 174.318 7.05706 174.363 7.3958C174.407 7.73454 174.316 8.07717 174.109 8.3485L168.897 15.158C168.777 15.3149 168.621 15.4419 168.444 15.5291C168.267 15.6163 168.071 15.6613 167.874 15.6607L167.873 15.6623Z" fill="white"/>
<path d="M127.737 61.1557H11.335C8.32877 61.1557 5.44566 59.9591 3.31994 57.8292C1.19421 55.6993 0 52.8104 0 49.7982C0 46.786 1.19421 43.8972 3.31994 41.7673C5.44566 39.6373 8.32877 38.4408 11.335 38.4408H127.737C130.743 38.4408 133.626 39.6373 135.752 41.7673C137.878 43.8972 139.072 46.786 139.072 49.7982C139.072 52.8104 137.878 55.6993 135.752 57.8292C133.626 59.9591 130.743 61.1557 127.737 61.1557Z" fill="#E6E6E6"/>
<path d="M11.3354 42.1538C9.31196 42.1538 7.37141 42.9592 5.94064 44.3928C4.50986 45.8264 3.70605 47.7708 3.70605 49.7982C3.70605 51.8257 4.50986 53.7701 5.94064 55.2037C7.37141 56.6373 9.31196 57.4427 11.3354 57.4427H127.737C129.761 57.4427 131.701 56.6373 133.132 55.2037C134.563 53.7701 135.366 51.8257 135.366 49.7982C135.366 47.7708 134.563 45.8264 133.132 44.3928C131.701 42.9592 129.761 42.1538 127.737 42.1538H11.3354Z" fill="white"/>
<path d="M168.871 39.1751C166.08 39.1751 163.402 40.2863 161.428 42.2644C159.454 44.2424 158.345 46.9252 158.345 49.7225C158.345 52.5199 159.454 55.2027 161.428 57.1807C163.402 59.1588 166.079 60.27 168.871 60.27C171.663 60.27 174.341 59.1588 176.315 57.1808C178.289 55.2027 179.398 52.5199 179.398 49.7226C179.398 46.9252 178.289 44.2424 176.315 42.2644C174.341 40.2863 171.663 39.1751 168.871 39.1751Z" fill="#228B22"/>
<path d="M167.873 54.103C167.596 54.1035 167.326 54.0136 167.104 53.8471L167.09 53.8367L164.196 51.6179C164.061 51.5149 163.949 51.3865 163.864 51.2399C163.78 51.0934 163.725 50.9315 163.703 50.7637C163.68 50.5958 163.691 50.4252 163.735 50.2617C163.779 50.0981 163.854 49.9447 163.957 49.8104C164.06 49.676 164.188 49.5632 164.334 49.4785C164.481 49.3938 164.642 49.3388 164.81 49.3167C164.977 49.2945 165.147 49.3057 165.311 49.3495C165.474 49.3933 165.627 49.4689 165.761 49.572L167.636 51.0127L172.067 45.2208C172.17 45.0865 172.298 44.9738 172.444 44.8891C172.59 44.8044 172.752 44.7495 172.919 44.7273C173.086 44.7052 173.256 44.7163 173.42 44.76C173.583 44.8037 173.736 44.8792 173.87 44.9821L173.87 44.9824L173.843 45.0207L173.871 44.9824C174.141 45.1906 174.318 45.4978 174.363 45.8365C174.407 46.1753 174.316 46.5179 174.109 46.7893L168.897 53.5988C168.777 53.7557 168.621 53.8827 168.444 53.9698C168.267 54.057 168.071 54.102 167.874 54.1015L167.873 54.103Z" fill="white"/>
<path d="M127.737 99.5965H11.335C8.32877 99.5965 5.44566 98.3999 3.31994 96.2699C1.19421 94.14 0 91.2512 0 88.239C0 85.2268 1.19421 82.338 3.31994 80.208C5.44566 78.0781 8.32877 76.8815 11.335 76.8815H127.737C130.743 76.8815 133.626 78.0781 135.752 80.208C137.878 82.338 139.072 85.2268 139.072 88.239C139.072 91.2512 137.878 94.14 135.752 96.2699C133.626 98.3999 130.743 99.5965 127.737 99.5965Z" fill="#E6E6E6"/>
<path d="M11.3354 80.5945C9.31196 80.5945 7.37141 81.3999 5.94064 82.8335C4.50986 84.2671 3.70605 86.2115 3.70605 88.239C3.70605 90.2664 4.50986 92.2108 5.94064 93.6444C7.37141 95.078 9.31196 95.8834 11.3354 95.8834H127.737C129.761 95.8834 131.701 95.078 133.132 93.6444C134.563 92.2108 135.366 90.2664 135.366 88.239C135.366 86.2115 134.563 84.2671 133.132 82.8335C131.701 81.3999 129.761 80.5945 127.737 80.5945H11.3354Z" fill="white"/>
<path d="M168.871 77.6158C166.08 77.6158 163.402 78.7271 161.428 80.7051C159.454 82.6831 158.345 85.3659 158.345 88.1633C158.345 90.9606 159.454 93.6434 161.428 95.6215C163.402 97.5995 166.079 98.7108 168.871 98.7108C171.663 98.7108 174.341 97.5995 176.315 95.6215C178.289 93.6435 179.398 90.9607 179.398 88.1633C179.398 85.366 178.289 82.6832 176.315 80.7051C174.341 78.7271 171.663 77.6158 168.871 77.6158Z" fill="#E6E6E6"/>
<path d="M299.564 223H208.448C208.332 223 208.221 222.954 208.139 222.872C208.058 222.79 208.012 222.679 208.012 222.563C208.012 222.447 208.058 222.336 208.139 222.254C208.221 222.172 208.332 222.126 208.448 222.126H299.564C299.679 222.126 299.79 222.172 299.872 222.254C299.954 222.336 300 222.447 300 222.563C300 222.679 299.954 222.79 299.872 222.872C299.79 222.954 299.679 223 299.564 223Z" fill="#CCCCCC"/>
</g>
<defs>
<clipPath id="clip0_2108_5154">
<rect width="300" height="223" fill="white"/>
</clipPath>
</defs>
</svg>
