<svg width="25" height="25" viewBox="0 0 25 25" fill="none" xmlns="http://www.w3.org/2000/svg">
<path d="M18.4523 10.1191H11.3094M19.6427 4.16667C20.2742 4.16667 20.8798 4.41752 21.3263 4.86404C21.7728 5.31055 22.0237 5.91616 22.0237 6.54762V18.4524C22.0237 19.0839 21.7728 19.6895 21.3263 20.136C20.8798 20.5825 20.2742 20.8333 19.6427 20.8333L16.0725 20.8321L13.3416 23.5631C13.1366 23.7681 12.8638 23.8912 12.5745 23.9094C12.2852 23.9276 11.9992 23.8396 11.7701 23.6619L11.6582 23.5631L8.92726 20.8321L5.35703 20.8333C4.72556 20.8333 4.11995 20.5825 3.67344 20.136C3.22692 19.6895 2.97607 19.0839 2.97607 18.4524V6.54762C2.97607 5.91616 3.22692 5.31055 3.67344 4.86404C4.11995 4.41752 4.72556 4.16667 5.35703 4.16667H19.6427Z" stroke="#228B22" stroke-linecap="round" stroke-linejoin="round"/>
<path fill-rule="evenodd" clip-rule="evenodd" d="M7.73689 11.3095C8.33213 11.3095 8.92737 10.7143 8.92737 10.119C8.92737 9.52381 8.33213 8.92857 7.73689 8.92857C7.14166 8.92857 6.54761 9.52381 6.54761 10.119C6.54761 10.7143 7.14166 11.3095 7.73689 11.3095ZM7.73689 16.0714C8.33213 16.0714 8.92737 15.4762 8.92737 14.881C8.92737 14.2857 8.33213 13.6905 7.73689 13.6905C7.14166 13.6905 6.54761 14.2857 6.54761 14.881C6.54761 15.4762 7.14166 16.0714 7.73689 16.0714Z" fill="#228B22"/>
<path d="M18.4522 14.881H11.3093" stroke="#228B22" stroke-linecap="round" stroke-linejoin="round"/>
</svg>
