<svg width="300" height="229" viewBox="0 0 300 229" fill="none" xmlns="http://www.w3.org/2000/svg">
<g clip-path="url(#clip0_2108_5371)">
<path d="M27.6854 228.642L27.6714 228.733C27.6548 228.645 27.6388 228.554 27.6236 228.465C27.5959 228.321 27.5718 228.177 27.5491 228.032C26.6482 222.364 27.144 216.562 28.9933 211.129C29.3488 210.068 29.7537 209.027 30.2079 208.006C31.9452 204.049 34.408 200.453 37.4691 197.402C38.463 196.385 39.597 195.516 40.8369 194.819C41.0189 194.723 41.2019 194.632 41.389 194.547C42.5356 193.991 43.8266 193.804 45.0839 194.012C45.5407 194.098 45.9834 194.247 46.3994 194.454C46.5453 194.525 46.6858 194.602 46.8236 194.685C47.664 195.236 48.3817 195.955 48.9315 196.795C49.4813 197.636 49.8516 198.581 50.019 199.572C50.2578 201.049 50.2032 202.559 49.8583 204.016C49.8287 204.155 49.7968 204.293 49.7628 204.431C49.5182 205.402 49.2109 206.356 48.8429 207.287C45.1588 216.76 37.2415 225.166 27.6854 228.642Z" fill="#F2F2F2"/>
<path d="M46.3749 194.484C43.5002 198.613 40.7846 202.846 38.2282 207.184C35.6749 211.518 33.2885 215.945 31.0692 220.465C29.8276 222.994 28.6403 225.548 27.5074 228.128C27.3819 228.413 27.8051 228.662 27.9321 228.372C29.9555 223.767 32.1513 219.243 34.5195 214.799C36.8862 210.36 39.4192 206.015 42.1184 201.765C43.6286 199.386 45.189 197.041 46.7997 194.729C46.9798 194.47 46.5543 194.226 46.3749 194.484Z" fill="white"/>
<path d="M49.4507 204.04C47.2905 206.846 44.1108 208.688 40.6009 209.166C39.6217 209.3 38.6304 209.32 37.6467 209.225C37.3319 209.195 37.3297 209.685 37.6418 209.715C41.3026 210.023 44.9372 208.875 47.7563 206.521C48.5471 205.86 49.2583 205.11 49.8755 204.285C50.0645 204.034 49.6385 203.791 49.4507 204.04Z" fill="white"/>
<path d="M31.0007 219.261C30.4984 218.546 30.0811 217.775 29.7572 216.963C29.0172 215.113 28.7545 213.107 28.9933 211.129C29.3488 210.068 29.7537 209.027 30.2079 208.006C30.2355 208.046 30.252 208.093 30.256 208.141C30.26 208.19 30.2512 208.238 30.2306 208.282C29.9107 209.049 29.6808 209.85 29.5453 210.669C29.0591 213.591 29.7341 216.586 31.4263 219.018C31.4478 219.044 31.462 219.076 31.4677 219.11C31.4734 219.143 31.4704 219.178 31.4589 219.21C31.44 219.252 31.4102 219.289 31.3726 219.317C31.3349 219.344 31.2908 219.361 31.2444 219.367C31.1981 219.372 31.1512 219.365 31.1084 219.346C31.0657 219.328 31.0285 219.298 31.0007 219.261Z" fill="white"/>
<path d="M40.9101 194.509C40.3188 196.864 40.4949 199.345 41.4127 201.593C41.4452 201.649 41.4985 201.69 41.5611 201.707C41.6237 201.724 41.6905 201.716 41.7471 201.684C41.8023 201.651 41.8426 201.598 41.8596 201.535C41.8766 201.473 41.869 201.407 41.8383 201.35C40.979 199.217 40.8195 196.867 41.383 194.638C41.3976 194.576 41.3876 194.511 41.3552 194.456C41.3227 194.402 41.2702 194.362 41.2089 194.345C41.1475 194.328 41.0821 194.336 41.0263 194.367C40.9706 194.397 40.9289 194.448 40.9101 194.509Z" fill="white"/>
<path d="M27.6253 216.81L27.655 216.897C27.5993 216.827 27.5431 216.754 27.4882 216.682C27.3967 216.567 27.3083 216.451 27.2208 216.333C23.7886 211.732 21.531 206.364 20.6434 200.694C20.4653 199.59 20.3399 198.48 20.2674 197.364C19.9669 193.054 20.4763 188.726 21.7691 184.603C22.1768 183.241 22.7768 181.944 23.5511 180.752C23.6675 180.582 23.7871 180.416 23.9136 180.255C24.6706 179.23 25.7269 178.465 26.937 178.066C27.3814 177.93 27.8424 177.856 28.3071 177.846C28.4693 177.841 28.6298 177.845 28.7905 177.854C29.7908 177.952 30.7601 178.255 31.6378 178.744C32.5155 179.234 33.2827 179.899 33.8913 180.698C34.7895 181.896 35.443 183.258 35.8144 184.708C35.8528 184.845 35.8891 184.982 35.9231 185.12C36.1576 186.093 36.3288 187.081 36.4356 188.076C37.5764 198.176 34.4718 209.295 27.6253 216.81Z" fill="#F2F2F2"/>
<path d="M28.2995 177.884C27.6727 182.875 27.2355 187.884 26.9878 192.913C26.7413 197.937 26.6856 202.965 26.8209 207.998C26.8968 210.813 27.0326 213.626 27.2284 216.437C27.25 216.748 27.7402 216.772 27.7183 216.457C27.3695 211.439 27.2111 206.413 27.2431 201.378C27.2758 196.349 27.4995 191.325 27.914 186.308C28.146 183.501 28.4378 180.699 28.7894 177.904C28.8286 177.591 28.3386 177.573 28.2995 177.884Z" fill="white"/>
<path d="M35.4647 184.919C34.8559 188.407 32.8961 191.514 30.0102 193.567C29.2051 194.14 28.3363 194.617 27.4212 194.99C27.1287 195.11 27.3546 195.545 27.6446 195.426C31.0296 193.999 33.7147 191.296 35.117 187.902C35.5103 186.95 35.7914 185.955 35.9546 184.938C36.0052 184.628 35.5149 184.611 35.4647 184.919Z" fill="white"/>
<path d="M26.2004 206.963C25.4233 206.563 24.6954 206.074 24.0313 205.506C22.5162 204.211 21.351 202.556 20.6432 200.694C20.465 199.59 20.3397 198.48 20.2671 197.364C20.3101 197.387 20.3465 197.421 20.3726 197.462C20.3986 197.503 20.4135 197.55 20.4158 197.599C20.4887 198.426 20.6573 199.242 20.9182 200.03C21.8455 202.843 23.8357 205.183 26.4644 206.55C26.4957 206.564 26.523 206.585 26.5436 206.612C26.5643 206.64 26.5777 206.672 26.5824 206.705C26.5854 206.752 26.5762 206.798 26.5557 206.84C26.5352 206.882 26.504 206.918 26.4654 206.944C26.4268 206.97 26.382 206.985 26.3355 206.989C26.289 206.992 26.2424 206.983 26.2004 206.963Z" fill="white"/>
<path d="M23.4714 180.443C24.0422 182.803 25.3516 184.919 27.2091 186.483C27.264 186.518 27.3303 186.53 27.3936 186.516C27.457 186.502 27.5123 186.463 27.5476 186.409C27.5811 186.354 27.592 186.288 27.5781 186.225C27.5642 186.162 27.5266 186.107 27.4731 186.071C25.7208 184.581 24.4872 182.574 23.9501 180.338C23.9343 180.277 23.8953 180.223 23.8411 180.19C23.7869 180.157 23.7219 180.146 23.6598 180.159C23.5977 180.173 23.5433 180.21 23.5082 180.263C23.473 180.316 23.4598 180.381 23.4714 180.443Z" fill="white"/>
<path d="M27.8371 228.703L27.909 228.76C27.824 228.73 27.7374 228.699 27.6525 228.668C27.5136 228.621 27.3763 228.57 27.239 228.518C21.8678 226.489 17.0728 223.181 13.2696 218.881C12.5244 218.047 11.8207 217.179 11.1584 216.278C8.58264 212.808 6.67941 208.887 5.54702 204.717C5.15672 203.35 4.9636 201.935 4.97351 200.514C4.98005 200.308 4.99146 200.104 5.01109 199.9C5.09672 198.629 5.57457 197.416 6.37881 196.428C6.6799 196.074 7.02853 195.763 7.41477 195.505C7.54873 195.413 7.68603 195.33 7.82655 195.252C8.72197 194.796 9.70198 194.529 10.7052 194.469C11.7084 194.409 12.7133 194.556 13.6568 194.902C15.0589 195.428 16.3438 196.224 17.438 197.246C17.5442 197.341 17.6488 197.437 17.7518 197.535C18.4738 198.229 19.1501 198.968 19.7763 199.749C26.1802 207.645 29.5561 218.685 27.8371 228.703Z" fill="#F2F2F2"/>
<path d="M7.42906 195.541C9.59029 200.084 11.9214 204.54 14.4224 208.91C16.9218 213.276 19.5845 217.542 22.4105 221.71C23.9917 224.042 25.6221 226.339 27.3017 228.602C27.4875 228.852 27.9132 228.608 27.725 228.355C24.7272 224.314 21.8853 220.165 19.1994 215.906C16.5166 211.65 13.998 207.297 11.6434 202.846C10.3262 200.356 9.06255 197.839 7.85234 195.294C7.71694 195.009 7.29415 195.258 7.42906 195.541Z" fill="white"/>
<path d="M17.2578 197.612C18.6242 200.878 18.6473 204.551 17.3221 207.834C16.9524 208.75 16.4777 209.62 15.9076 210.427C15.7257 210.685 16.1506 210.931 16.3309 210.674C18.414 207.65 19.2194 203.927 18.5723 200.312C18.3906 199.298 18.0915 198.309 17.6811 197.364C17.5564 197.076 17.134 197.325 17.2578 197.612Z" fill="white"/>
<path d="M21.3306 221.172C20.4603 221.254 19.5834 221.233 18.7178 221.112C16.7434 220.837 14.87 220.07 13.2699 218.881C12.5247 218.047 11.821 217.179 11.1587 216.278C11.2072 216.274 11.256 216.283 11.3001 216.303C11.3443 216.324 11.3822 216.356 11.4103 216.396C11.9176 217.053 12.4994 217.65 13.144 218.174C15.4412 220.045 18.3789 220.945 21.3306 220.683C21.3643 220.677 21.3988 220.68 21.4309 220.692C21.4629 220.704 21.4914 220.724 21.5136 220.75C21.5412 220.787 21.5585 220.831 21.5637 220.877C21.569 220.924 21.562 220.971 21.5435 221.013C21.525 221.056 21.4956 221.093 21.4583 221.121C21.4209 221.149 21.3769 221.167 21.3306 221.172Z" fill="white"/>
<path d="M4.74035 200.296C6.49288 201.977 8.73644 203.055 11.1445 203.374C11.2768 203.391 11.3884 203.248 11.3896 203.129C11.3881 203.064 11.3618 203.003 11.3161 202.957C11.2705 202.911 11.209 202.885 11.1445 202.884C8.86534 202.572 6.74422 201.544 5.08699 199.95C4.85978 199.731 4.5127 200.077 4.74035 200.296Z" fill="white"/>
<path d="M61.2968 164.085C61.7755 163.757 62.1764 163.329 62.4714 162.829C62.7663 162.329 62.948 161.771 63.0038 161.194C63.0595 160.616 62.9879 160.034 62.794 159.487C62.6 158.94 62.2885 158.443 61.8814 158.029L63.4214 123.673L55.5809 124.552L56.0364 158.158C55.3868 158.888 55.0276 159.83 55.0269 160.807C55.0261 161.783 55.3838 162.726 56.0322 163.457C56.6806 164.188 57.5747 164.655 58.545 164.771C59.5153 164.887 60.4944 164.643 61.2968 164.085Z" fill="#FFB8B8"/>
<path d="M75.6001 222.244L80.0626 223.028L84.473 206.199L78.6261 205.041L75.6001 222.244Z" fill="#FFB8B8"/>
<path d="M87.9399 228.681L73.9153 226.217L74.8679 220.801L83.4739 222.313C84.1855 222.438 84.8655 222.702 85.475 223.09C86.0846 223.478 86.6118 223.982 87.0265 224.573C87.4412 225.164 87.7353 225.831 87.892 226.536C88.0488 227.241 88.065 227.97 87.9399 228.681Z" fill="#2F2E41"/>
<path d="M63.3518 224.476L67.8827 224.476L70.038 207.01L63.3511 207.01L63.3518 224.476Z" fill="#FFB8B8"/>
<path d="M76.6211 228.68L62.3814 228.681L62.3811 223.182L71.1191 223.182C72.5783 223.182 73.9777 223.761 75.0095 224.792C76.0413 225.823 76.621 227.222 76.6211 228.68Z" fill="#2F2E41"/>
<path d="M82.6259 219.693C82.5552 219.693 82.4845 219.689 82.4143 219.681L77.0814 219.242C76.8386 219.214 76.6042 219.136 76.3923 219.014C76.1804 218.892 75.9955 218.728 75.8489 218.533C75.7022 218.337 75.5969 218.114 75.5393 217.877C75.4816 217.639 75.4729 217.393 75.5135 217.152L80.4379 189.568L77.1105 172.033C77.0834 171.891 77.0056 171.763 76.8916 171.673C76.7775 171.584 76.6349 171.538 76.49 171.545C76.345 171.553 76.2076 171.612 76.103 171.712C75.9984 171.813 75.9337 171.948 75.9209 172.092L71.7611 218.863C71.7154 219.332 71.4891 219.765 71.1299 220.071C70.7707 220.377 70.3067 220.531 69.8358 220.502L64.8116 220.315C64.3713 220.284 63.9577 220.092 63.6488 219.777C63.3399 219.462 63.1572 219.045 63.1351 218.604L62.7974 162.548L88.8449 159.294L90.6645 187.38L90.6573 187.41L84.3781 218.316C84.2824 218.708 84.0578 219.057 83.7401 219.307C83.4224 219.557 83.0301 219.693 82.6259 219.693Z" fill="#2F2E41"/>
<path d="M71.3851 101.409C76.3981 101.409 80.462 97.3477 80.462 92.3375C80.462 87.3273 76.3981 83.2657 71.3851 83.2657C66.372 83.2657 62.3081 87.3273 62.3081 92.3375C62.3081 97.3477 66.372 101.409 71.3851 101.409Z" fill="#FFB8B8"/>
<path d="M79.938 166.645C78.5184 166.654 77.126 166.256 75.9256 165.498C71.5288 162.752 66.5347 163.843 63.9491 164.738C63.6925 164.828 63.419 164.859 63.1489 164.828C62.8788 164.797 62.6191 164.706 62.3893 164.561C62.1622 164.418 61.9702 164.226 61.8279 163.999C61.6855 163.772 61.5964 163.515 61.5673 163.249L56.8654 121.281C56.0775 114.249 60.3157 107.638 66.9427 105.561C67.1917 105.483 67.4448 105.409 67.7022 105.339C69.7645 104.78 71.9242 104.68 74.0295 105.045C76.1347 105.41 78.1343 106.232 79.8876 107.453C81.6735 108.687 83.167 110.297 84.2631 112.17C85.3592 114.043 86.0312 116.134 86.2319 118.294L90.1901 160.544C90.2171 160.817 90.1801 161.093 90.0822 161.35C89.9843 161.607 89.828 161.838 89.6257 162.024C88.2382 163.307 84.211 166.645 79.938 166.645Z" fill="#228B22"/>
<path d="M65.6202 130.28L55.0124 129.115C54.7106 129.082 54.4195 128.984 54.1589 128.828C53.8983 128.672 53.6743 128.462 53.5023 128.212C53.3302 127.962 53.2141 127.678 53.1619 127.379C53.1096 127.08 53.1225 126.773 53.1995 126.48L55.8996 116.195C56.0782 114.652 56.8614 113.244 58.0776 112.278C59.2937 111.311 60.8436 110.867 62.3873 111.041C63.9311 111.215 65.3427 111.994 66.3127 113.207C67.2827 114.42 67.7319 115.967 67.5618 117.511L67.9626 128.102C67.974 128.405 67.9199 128.708 67.8039 128.988C67.6879 129.268 67.5128 129.521 67.2905 129.727C67.0682 129.934 66.8039 130.09 66.5157 130.186C66.2275 130.281 65.922 130.314 65.6202 130.28Z" fill="#228B22"/>
<path d="M90.1478 162.614C90.5835 162.231 90.9298 161.757 91.1623 161.226C91.3948 160.694 91.5079 160.118 91.4936 159.538C91.4793 158.958 91.338 158.389 91.0796 157.869C90.8211 157.35 90.4519 156.893 89.9979 156.532L87.3839 122.24L79.7012 123.969L84.211 157.364C83.6541 158.166 83.4112 159.145 83.5282 160.114C83.6452 161.084 84.114 161.977 84.8458 162.624C85.5776 163.272 86.5215 163.628 87.4987 163.626C88.4759 163.624 89.4184 163.264 90.1478 162.614Z" fill="#FFB8B8"/>
<path d="M76.7556 128.125C76.5332 127.918 76.3581 127.666 76.2421 127.386C76.1261 127.105 76.072 126.803 76.0836 126.5L76.4844 115.908C76.3143 114.365 76.7635 112.817 77.7335 111.604C78.7035 110.392 80.1151 109.613 81.6589 109.439C83.2026 109.264 84.7525 109.709 85.9686 110.675C87.1848 111.641 87.968 113.05 88.1466 114.592L90.8467 124.877C90.9237 125.171 90.9365 125.478 90.8843 125.777C90.832 126.075 90.716 126.36 90.5439 126.61C90.3719 126.86 90.1479 127.07 89.8873 127.226C89.6267 127.381 89.3356 127.479 89.0338 127.512L78.426 128.678C78.1241 128.711 77.8186 128.679 77.5303 128.584C77.2421 128.488 76.9778 128.332 76.7556 128.125Z" fill="#228B22"/>
<path d="M70.8455 101.751C70.6842 101.751 70.5234 101.732 70.3663 101.695L70.3202 101.684C62.3396 100.464 60.5759 95.8439 60.1888 93.9145C59.7881 91.9169 60.2444 89.9888 61.2754 89.24C60.7133 87.4661 60.8035 85.8933 61.5442 84.5632C62.8359 82.2436 65.6394 81.4592 66.0153 81.3633C68.2542 79.7125 70.9329 80.8145 71.4203 81.0379C75.7511 79.4366 77.4064 80.7696 77.7058 81.0671C79.6417 81.4147 80.8217 82.162 81.2134 83.289C81.9492 85.4058 79.6223 88.0389 79.5229 88.15L79.4713 88.2075L76.0047 88.3725C75.6757 88.3882 75.3537 88.4728 75.0596 88.6209C74.7655 88.7689 74.5058 88.9771 74.2974 89.232C74.089 89.4868 73.9365 89.7825 73.8498 90.1001C73.7631 90.4176 73.7442 90.7498 73.7942 91.0751C73.888 91.4948 74.0066 91.9086 74.1492 92.3144C74.7412 94.1635 75.1848 95.7432 74.6126 96.3438C74.483 96.46 74.3233 96.5374 74.1517 96.5671C73.9801 96.5969 73.8036 96.5777 73.6424 96.5119C73.1005 96.3672 72.7324 96.3975 72.5491 96.6022C72.2644 96.9196 72.3513 97.7231 72.7938 98.8647C72.9326 99.2257 72.97 99.6177 72.9018 99.9984C72.8337 100.379 72.6627 100.734 72.4072 101.024C72.2149 101.251 71.9757 101.433 71.7061 101.559C71.4365 101.684 71.1429 101.75 70.8455 101.751Z" fill="#2F2E41"/>
<path d="M178.043 130.752H133.325C131.659 130.75 130.062 130.088 128.885 128.91C127.707 127.733 127.044 126.137 127.042 124.473V57.3122C127.044 55.6475 127.707 54.0515 128.885 52.8743C130.062 51.6972 131.659 51.0351 133.325 51.0332H178.043C179.708 51.0351 181.305 51.6972 182.483 52.8743C183.661 54.0515 184.324 55.6475 184.325 57.3122V124.473C184.324 126.137 183.661 127.733 182.483 128.91C181.305 130.088 179.708 130.75 178.043 130.752ZM133.325 51.7719C131.855 51.7736 130.446 52.3578 129.407 53.3965C128.368 54.4351 127.783 55.8433 127.782 57.3122V124.473C127.783 125.941 128.368 127.35 129.407 128.388C130.446 129.427 131.855 130.011 133.325 130.013H178.043C179.513 130.011 180.922 129.427 181.961 128.388C183 127.35 183.585 125.941 183.586 124.473V57.3122C183.585 55.8433 183 54.4351 181.961 53.3965C180.922 52.3578 179.513 51.7736 178.043 51.7719H133.325Z" fill="#3F3D56"/>
<path d="M171.205 83.3207H140.162C139.329 83.3198 138.531 82.9887 137.942 82.4002C137.353 81.8116 137.021 81.0136 137.021 80.1812V65.407C137.021 64.5746 137.353 63.7766 137.942 63.1881C138.531 62.5995 139.329 62.2684 140.162 62.2675H171.205C172.038 62.2685 172.837 62.5995 173.426 63.1881C174.015 63.7767 174.346 64.5747 174.347 65.407V80.1812C174.346 81.0136 174.015 81.8116 173.426 82.4001C172.837 82.9887 172.038 83.3198 171.205 83.3207Z" fill="#228B22"/>
<path d="M168.988 97.1715H142.379C141.595 97.1715 140.843 96.8602 140.289 96.306C139.734 95.7519 139.423 95.0003 139.423 94.2166C139.423 93.433 139.734 92.6814 140.289 92.1273C140.843 91.5731 141.595 91.2618 142.379 91.2618H168.988C169.772 91.2618 170.524 91.5731 171.079 92.1273C171.633 92.6814 171.945 93.433 171.945 94.2166C171.945 95.0003 171.633 95.7519 171.079 96.306C170.524 96.8602 169.772 97.1715 168.988 97.1715Z" fill="#CCCCCC"/>
<path d="M168.988 108.252H142.379C141.595 108.252 140.843 107.941 140.289 107.387C139.734 106.833 139.423 106.081 139.423 105.297C139.423 104.514 139.734 103.762 140.289 103.208C140.843 102.654 141.595 102.342 142.379 102.342H168.988C169.772 102.342 170.524 102.654 171.079 103.208C171.633 103.762 171.945 104.514 171.945 105.297C171.945 106.081 171.633 106.833 171.079 107.387C170.524 107.941 169.772 108.252 168.988 108.252Z" fill="#CCCCCC"/>
<path d="M168.988 119.333H142.379C141.595 119.333 140.843 119.021 140.289 118.467C139.734 117.913 139.423 117.162 139.423 116.378C139.423 115.594 139.734 114.843 140.289 114.289C140.843 113.734 141.595 113.423 142.379 113.423H168.988C169.772 113.423 170.524 113.734 171.079 114.289C171.633 114.843 171.945 115.594 171.945 116.378C171.945 117.162 171.633 117.913 171.079 118.467C170.524 119.021 169.772 119.333 168.988 119.333Z" fill="#CCCCCC"/>
<path d="M287.065 168.426H242.348C240.682 168.424 239.085 167.762 237.907 166.585C236.729 165.408 236.067 163.812 236.065 162.147V94.9864C236.067 93.3217 236.729 91.7257 237.907 90.5485C239.085 89.3714 240.682 88.7093 242.348 88.7074H287.065C288.731 88.7093 290.328 89.3714 291.506 90.5485C292.683 91.7257 293.346 93.3217 293.348 94.9864V162.147C293.346 163.812 292.683 165.408 291.506 166.585C290.328 167.762 288.731 168.424 287.065 168.426ZM242.348 89.4461C240.878 89.4478 239.469 90.032 238.43 91.0707C237.39 92.1093 236.806 93.5175 236.804 94.9864V162.147C236.806 163.616 237.39 165.024 238.43 166.063C239.469 167.101 240.878 167.685 242.348 167.687H287.065C288.535 167.685 289.944 167.101 290.983 166.063C292.023 165.024 292.607 163.616 292.609 162.147V94.9864C292.607 93.5175 292.023 92.1093 290.983 91.0707C289.944 90.032 288.535 89.4478 287.065 89.4461H242.348Z" fill="#3F3D56"/>
<path d="M278.011 105.297H251.402C250.618 105.297 249.866 104.986 249.311 104.432C248.757 103.878 248.445 103.126 248.445 102.342C248.445 101.559 248.757 100.807 249.311 100.253C249.866 99.6989 250.618 99.3876 251.402 99.3876H278.011C278.795 99.3876 279.547 99.6989 280.101 100.253C280.656 100.807 280.967 101.559 280.967 102.342C280.967 103.126 280.656 103.878 280.101 104.432C279.547 104.986 278.795 105.297 278.011 105.297Z" fill="#CCCCCC"/>
<path d="M278.011 116.378H251.402C250.618 116.378 249.866 116.067 249.311 115.512C248.757 114.958 248.445 114.207 248.445 113.423C248.445 112.639 248.757 111.888 249.311 111.334C249.866 110.78 250.618 110.468 251.402 110.468H278.011C278.795 110.468 279.547 110.78 280.101 111.334C280.656 111.888 280.967 112.639 280.967 113.423C280.967 114.207 280.656 114.958 280.101 115.512C279.547 116.067 278.795 116.378 278.011 116.378Z" fill="#CCCCCC"/>
<path d="M280.228 144.633H249.184C248.351 144.632 247.553 144.301 246.964 143.713C246.375 143.124 246.044 142.326 246.043 141.494V126.72C246.044 125.887 246.375 125.089 246.964 124.501C247.553 123.912 248.351 123.581 249.184 123.58H280.228C281.061 123.581 281.859 123.912 282.448 124.501C283.037 125.089 283.368 125.887 283.369 126.72V141.494C283.368 142.326 283.037 143.124 282.448 143.713C281.859 144.301 281.061 144.632 280.228 144.633Z" fill="#E6E6E6"/>
<path d="M278.011 157.746H251.402C250.618 157.746 249.866 157.434 249.311 156.88C248.757 156.326 248.445 155.575 248.445 154.791C248.445 154.007 248.757 153.256 249.311 152.701C249.866 152.147 250.618 151.836 251.402 151.836H278.011C278.795 151.836 279.547 152.147 280.101 152.701C280.656 153.256 280.967 154.007 280.967 154.791C280.967 155.575 280.656 156.326 280.101 156.88C279.547 157.434 278.795 157.746 278.011 157.746Z" fill="#CCCCCC"/>
<path d="M259.717 61.6823H214.999C213.334 61.6804 211.737 61.0182 210.559 59.8411C209.381 58.664 208.719 57.068 208.717 55.4032V13.7284C208.719 12.0636 209.381 10.4676 210.559 9.29047C211.737 8.11333 213.334 7.45119 214.999 7.44932H259.717C261.383 7.45119 262.98 8.11333 264.158 9.29047C265.335 10.4676 265.998 12.0636 266 13.7284V55.4032C265.998 57.068 265.335 58.664 264.158 59.8411C262.98 61.0182 261.383 61.6804 259.717 61.6823ZM214.999 8.18803C213.53 8.18969 212.121 8.77394 211.081 9.81259C210.042 10.8512 209.458 12.2595 209.456 13.7284V55.4032C209.458 56.8721 210.042 58.2803 211.081 59.319C212.121 60.3576 213.53 60.9419 214.999 60.9436H259.717C261.187 60.9419 262.596 60.3576 263.635 59.319C264.674 58.2803 265.259 56.8721 265.261 55.4032V13.7284C265.259 12.2595 264.674 10.8512 263.635 9.81259C262.596 8.77394 261.187 8.18969 259.717 8.18803H214.999Z" fill="#3F3D56"/>
<path d="M250.663 48.6013H224.054C223.27 48.6013 222.518 48.29 221.963 47.7359C221.409 47.1817 221.097 46.4302 221.097 45.6465C221.097 44.8628 221.409 44.1112 221.963 43.5571C222.518 43.003 223.27 42.6916 224.054 42.6916H250.663C251.447 42.6916 252.199 43.003 252.753 43.5571C253.308 44.1112 253.619 44.8628 253.619 45.6465C253.619 46.4302 253.308 47.1817 252.753 47.7359C252.199 48.29 251.447 48.6013 250.663 48.6013Z" fill="#CCCCCC"/>
<path d="M250.663 37.5207H224.054C223.27 37.5207 222.518 37.2094 221.963 36.6552C221.409 36.1011 221.097 35.3495 221.097 34.5658C221.097 33.7822 221.409 33.0306 221.963 32.4764C222.518 31.9223 223.27 31.611 224.054 31.611H250.663C251.447 31.611 252.199 31.9223 252.753 32.4764C253.308 33.0306 253.619 33.7822 253.619 34.5658C253.619 35.3495 253.308 36.1011 252.753 36.6552C252.199 37.2094 251.447 37.5207 250.663 37.5207Z" fill="#CCCCCC"/>
<path d="M250.663 26.44H224.054C223.27 26.44 222.518 26.1287 221.963 25.5746C221.409 25.0204 221.097 24.2689 221.097 23.4852C221.097 22.7015 221.409 21.9499 221.963 21.3958C222.518 20.8417 223.27 20.5303 224.054 20.5303H250.663C251.447 20.5303 252.199 20.8417 252.753 21.3958C253.308 21.9499 253.619 22.7015 253.619 23.4852C253.619 24.2689 253.308 25.0204 252.753 25.5746C252.199 26.1287 251.447 26.44 250.663 26.44Z" fill="#CCCCCC"/>
<path d="M180.63 61.3129C185.324 61.3129 189.13 57.5095 189.13 52.8177C189.13 48.126 185.324 44.3226 180.63 44.3226C175.935 44.3226 172.13 48.126 172.13 52.8177C172.13 57.5095 175.935 61.3129 180.63 61.3129Z" fill="#228B22"/>
<path d="M179.787 56.0585C179.596 56.0588 179.41 55.997 179.257 55.8824L179.247 55.8753L177.25 54.3467C177.157 54.276 177.079 54.1877 177.02 54.0868C176.961 53.9859 176.923 53.8744 176.907 53.7587C176.892 53.643 176.899 53.5254 176.929 53.4126C176.959 53.2998 177.011 53.194 177.082 53.1013C177.153 53.0086 177.242 52.9309 177.343 52.8725C177.444 52.8142 177.556 52.7764 177.672 52.7613C177.788 52.7461 177.905 52.754 178.018 52.7845C178.131 52.8149 178.237 52.8673 178.329 52.9386L179.623 53.9302L182.681 49.9449C182.752 49.8524 182.84 49.7748 182.941 49.7166C183.042 49.6583 183.153 49.6205 183.269 49.6052C183.384 49.59 183.502 49.5976 183.614 49.6277C183.727 49.6578 183.832 49.7098 183.925 49.7807L183.906 49.8065L183.925 49.7811C184.112 49.9244 184.234 50.1358 184.265 50.3689C184.296 50.602 184.233 50.8379 184.09 51.0246L180.493 55.7123C180.41 55.8203 180.303 55.9077 180.181 55.9678C180.058 56.0278 179.924 56.0588 179.787 56.0585Z" fill="white"/>
<path d="M291.5 99.3565C296.194 99.3565 300 95.553 300 90.8613C300 86.1695 296.194 82.3661 291.5 82.3661C286.806 82.3661 283 86.1695 283 90.8613C283 95.553 286.806 99.3565 291.5 99.3565Z" fill="#3F3D56"/>
<path d="M290.657 94.102C290.466 94.1024 290.28 94.0406 290.127 93.9259L290.117 93.9188L288.12 92.3903C288.027 92.3196 287.949 92.2313 287.89 92.1304C287.831 92.0295 287.793 91.918 287.777 91.8023C287.762 91.6866 287.769 91.5689 287.799 91.4561C287.829 91.3433 287.882 91.2375 287.953 91.1449C288.024 91.0522 288.112 90.9744 288.213 90.9161C288.315 90.8577 288.426 90.8199 288.542 90.8048C288.658 90.7897 288.776 90.7976 288.888 90.828C289.001 90.8584 289.107 90.9108 289.199 90.9822L290.493 91.9737L293.551 87.9884C293.622 87.896 293.71 87.8184 293.811 87.7601C293.912 87.7018 294.023 87.664 294.139 87.6488C294.254 87.6335 294.372 87.6412 294.484 87.6713C294.597 87.7014 294.703 87.7534 294.795 87.8242L294.776 87.85L294.796 87.8246C294.982 87.9679 295.104 88.1793 295.135 88.4125C295.166 88.6456 295.103 88.8814 294.96 89.0682L291.363 93.7558C291.28 93.8639 291.173 93.9513 291.051 94.0113C290.928 94.0714 290.794 94.1024 290.657 94.102Z" fill="white"/>
<path d="M264.522 16.9903C269.216 16.9903 273.022 13.1869 273.022 8.49516C273.022 3.80341 269.216 0 264.522 0C259.827 0 256.021 3.80341 256.021 8.49516C256.021 13.1869 259.827 16.9903 264.522 16.9903Z" fill="#3F3D56"/>
<path d="M263.679 11.7359C263.488 11.7362 263.302 11.6744 263.149 11.5598L263.139 11.5527L261.142 10.0241C261.049 9.95347 260.971 9.86515 260.912 9.76424C260.853 9.66334 260.815 9.55184 260.799 9.43613C260.784 9.32043 260.791 9.20279 260.821 9.08998C260.851 8.97717 260.903 8.8714 260.975 8.77873C261.046 8.68606 261.134 8.60832 261.235 8.54996C261.337 8.49161 261.448 8.45379 261.564 8.43867C261.68 8.42356 261.798 8.43144 261.91 8.46188C262.023 8.49231 262.129 8.54469 262.221 8.61602L263.515 9.60758L266.573 5.62228C266.644 5.52984 266.732 5.45227 266.833 5.394C266.934 5.33572 267.045 5.29788 267.161 5.28264C267.276 5.26739 267.394 5.27504 267.506 5.30515C267.619 5.33526 267.725 5.38724 267.817 5.45812L267.798 5.48392L267.818 5.4585C268.004 5.60179 268.126 5.8132 268.157 6.04634C268.188 6.27947 268.125 6.51529 267.982 6.70206L264.385 11.3897C264.302 11.4977 264.195 11.5852 264.073 11.6452C263.95 11.7052 263.816 11.7363 263.679 11.7359Z" fill="white"/>
<path d="M141.175 229H0.369567C0.271552 229 0.177551 228.961 0.108244 228.892C0.0389362 228.823 0 228.729 0 228.631C0 228.533 0.0389362 228.439 0.108244 228.369C0.177551 228.3 0.271552 228.261 0.369567 228.261H141.175C141.273 228.261 141.367 228.3 141.436 228.369C141.505 228.439 141.544 228.533 141.544 228.631C141.544 228.729 141.505 228.823 141.436 228.892C141.367 228.961 141.273 229 141.175 229Z" fill="#3F3D56"/>
</g>
<defs>
<clipPath id="clip0_2108_5371">
<rect width="300" height="229" fill="white"/>
</clipPath>
</defs>
</svg>
