<svg width="21" height="21" viewBox="0 0 21 21" fill="none" xmlns="http://www.w3.org/2000/svg">
<path d="M8.5 10.5C8.89397 10.5 9.28407 10.4224 9.64805 10.2716C10.012 10.1209 10.3427 9.8999 10.6213 9.62132C10.8999 9.34274 11.1209 9.01203 11.2716 8.64805C11.4224 8.28407 11.5 7.89397 11.5 7.5V5.5C11.5 4.70435 11.1839 3.94129 10.6213 3.37868C10.0587 2.81607 9.29565 2.5 8.5 2.5C7.70435 2.5 6.94129 2.81607 6.37868 3.37868C5.81607 3.94129 5.5 4.70435 5.5 5.5V7.5C5.5 7.89397 5.5776 8.28407 5.72836 8.64805C5.87913 9.01203 6.1001 9.34274 6.37868 9.62132C6.65726 9.8999 6.98797 10.1209 7.35195 10.2716C7.71593 10.4224 8.10603 10.5 8.5 10.5ZM8.5 10.5C11.814 10.5 15.5 12.585 15.5 15.772V16.5C15.5 16.7652 15.3946 17.0196 15.2071 17.2071C15.0196 17.3946 14.7652 17.5 14.5 17.5H2.5C2.23478 17.5 1.98043 17.3946 1.79289 17.2071C1.60536 17.0196 1.5 16.7652 1.5 16.5V15.772C1.5 12.585 5.186 10.5 8.5 10.5Z" stroke="#228B22" stroke-linecap="round" stroke-linejoin="round"/>
<path fill-rule="evenodd" clip-rule="evenodd" d="M12.52 2.67799C13.1001 2.88786 13.6013 3.27137 13.9556 3.77632C14.3099 4.28128 14.5 4.88315 14.5 5.49999V6.49999C14.5 7.79699 13.652 9.08099 12.5 9.49999C13.174 8.58099 13.51 7.41399 13.51 5.99999C13.51 4.58599 13.179 3.47699 12.52 2.67799ZM17.5 17.5H18.5C18.7652 17.5 19.0196 17.3946 19.2071 17.2071C19.3946 17.0196 19.5 16.7652 19.5 16.5V15.772C19.5 13.602 17.79 11.942 15.653 11.105C15.653 11.105 18.5 13.5 17.5 17.5Z" fill="#228B22" stroke="#228B22" stroke-linecap="round" stroke-linejoin="round"/>
</svg>
