<svg width="35" height="35" viewBox="0 0 35 35" fill="none" xmlns="http://www.w3.org/2000/svg">
<path fill-rule="evenodd" clip-rule="evenodd" d="M15.833 9.16666C14.5069 9.16666 13.2352 9.69344 12.2975 10.6311C11.3598 11.5688 10.833 12.8406 10.833 14.1667V22.5C10.833 23.8261 11.3598 25.0978 12.2975 26.0355C13.2352 26.9732 14.5069 27.5 15.833 27.5L19.9463 27.4983L22.8047 31.5483C22.9391 31.7382 23.1117 31.8978 23.3115 32.0169C23.5113 32.136 23.7338 32.212 23.9647 32.24L24.1663 32.2533C24.5748 32.2532 24.969 32.1031 25.2741 31.8315C25.5792 31.5599 25.774 31.1857 25.8213 30.78L25.833 30.5867L25.8347 27.4983L27.4997 27.5C28.8258 27.5 30.0975 26.9732 31.0352 26.0355C31.9729 25.0978 32.4997 23.8261 32.4997 22.5V14.1667C32.4997 12.8406 31.9729 11.5688 31.0352 10.6311C30.0975 9.69344 28.8258 9.16666 27.4997 9.16666H15.833Z" stroke="#F5F5F5" stroke-linecap="round" stroke-linejoin="round"/>
<path d="M10.8331 22.5L7.49977 25.8333V19.1667H5.98977C5.11232 19.1667 4.27023 18.8208 3.6462 18.2039C3.02217 17.5871 2.66653 16.7491 2.65644 15.8717L2.53977 5.87167C2.5347 5.43071 2.61717 4.99313 2.78242 4.58428C2.94766 4.17543 3.19239 3.80342 3.50243 3.48982C3.81246 3.17622 4.18164 2.92726 4.58858 2.75735C4.99551 2.58744 5.43212 2.49997 5.8731 2.5H20.8331C21.7172 2.5 22.565 2.85119 23.1901 3.47631C23.8152 4.10143 24.1664 4.94928 24.1664 5.83333V9.16667" stroke="#F5F5F5" stroke-linecap="round" stroke-linejoin="round"/>
</svg>
